<?xml version="1.0" standalone="no"?>
<!DOCTYPE svg PUBLIC "-//W3C//DTD SVG 1.1//EN" "http://www.w3.org/Graphics/SVG/1.1/DTD/svg11.dtd" >
<svg xmlns="http://www.w3.org/2000/svg">
<metadata>
This is a custom SVG webfont generated by Font Squirrel.
Copyright   : 2006 The Monotype Corporation All Rights Reserved
Designer    : Monotype Type Drawing Office  Robin Nicholas Patricia Saunders 1982
Foundry     : The Monotype Corporation
</metadata>
<defs>
<font id="webfontvG09sSad" horiz-adv-x="1139" >
<font-face units-per-em="2048" ascent="1638" descent="-410" />
<missing-glyph horiz-adv-x="569" />
<glyph unicode=" "  horiz-adv-x="569" />
<glyph unicode="&#x09;" horiz-adv-x="569" />
<glyph unicode="&#xa0;" horiz-adv-x="569" />
<glyph unicode="!" horiz-adv-x="483" d="M307 45q0 -28 -18.5 -46.5t-46.5 -18.5t-47 18.5t-19 46.5t19 47t47 19t46.5 -19t18.5 -47zM279 285h-74l-12 1104h98z" />
<glyph unicode="&#x22;" horiz-adv-x="516" d="M203 1026h-64l-8 375q-1 23 8.5 32t32.5 9h51zM381 1026h-64l-8 375q0 23 9 32t32 9h51z" />
<glyph unicode="#" horiz-adv-x="1065" d="M954 836h-209l-53 -324h217v-61h-227l-61 -379h-66l61 379h-241l-62 -379h-65l61 379h-198v61h208l54 324h-217v61h227l61 379h66l-61 -379h241l62 379h65l-61 -379h198v-61zM627 512l53 324h-242l-53 -324h242z" />
<glyph unicode="$" horiz-adv-x="1051" d="M854 391q0 -130 -83 -217.5t-222 -105.5v-191h-66v186q-152 0 -293 56l13 76q140 -58 282 -58q129 0 205 59.5t76 170.5q0 104 -58.5 164.5t-224.5 136.5q-138 62 -204 135.5t-66 181.5q0 123 76 197.5t196 91.5v199h66v-195q142 0 240 -49l-11 -72q-110 47 -229 47 q-113 0 -181.5 -52t-68.5 -151q0 -56 13 -94.5t48 -72t79.5 -59t125.5 -62.5q152 -70 219.5 -144.5t67.5 -177.5z" />
<glyph unicode="%" horiz-adv-x="1692" d="M1546 328q0 -150 -76.5 -249t-205.5 -99q-130 0 -206.5 99t-76.5 249t77 249t206 99t205.5 -99t76.5 -249zM1477 328q0 132 -59.5 209t-153.5 77t-153.5 -77t-59.5 -209q0 -133 59.5 -210t153.5 -77t153.5 77t59.5 210zM711 1020q0 -150 -77 -249t-206 -99t-206 99 t-77 249t77 249t206 99t206 -99t77 -249zM641 1020q0 132 -59.5 209.5t-153.5 77.5t-153.5 -77.5t-59.5 -209.5t59.5 -209.5t153.5 -77.5t153.5 77.5t59.5 209.5zM1278 1409h78l-942 -1450h-78z" />
<glyph unicode="&#x26;" horiz-adv-x="1315" d="M1249 0h-110l-121 143h-4q-183 -163 -461 -163q-85 0 -163 24t-139.5 68.5t-98.5 114t-37 153.5q0 60 17 113t44 95t74.5 85.5t95.5 78t119 79.5v4q-45 52 -71 85.5t-54.5 78.5t-41.5 87.5t-13 86.5q0 126 90 201t200 75q124 0 198.5 -77.5t74.5 -190.5q0 -58 -18 -107 t-58 -93t-82 -78t-110 -81v-4l444 -520h4q122 155 131 430h82q-15 -308 -168 -485zM571 1335q-80 0 -138 -51.5t-58 -138.5q0 -81 32.5 -141.5t122.5 -167.5h5q61 41 95.5 68t67.5 63t46.5 76.5t13.5 91.5q0 89 -53 144.5t-134 55.5zM567 53q241 0 400 144v4l-451 536h-4 q-82 -52 -131.5 -89t-93.5 -84t-63 -98t-19 -114q0 -129 102.5 -214t259.5 -85z" />
<glyph unicode="'" horiz-adv-x="391" d="M256 1026h-63l-9 375q0 23 9 32t32 9h51z" />
<glyph unicode="(" horiz-adv-x="602" d="M182 629q0 236 71 456.5t173 364.5h61q-106 -166 -170.5 -376t-64.5 -445t64.5 -445.5t170.5 -376.5h-61q-102 145 -173 365.5t-71 456.5z" />
<glyph unicode=")" horiz-adv-x="602" d="M420 629q0 -236 -71 -456.5t-173 -365.5h-61q106 166 170.5 376.5t64.5 445.5t-64.5 445t-170.5 376h61q102 -144 173 -364.5t71 -456.5z" />
<glyph unicode="*" horiz-adv-x="909" d="M416 1380h78l-17 -293h4l269 107l24 -74l-282 -73v-5l184 -225l-64 -45l-155 246h-4l-156 -246l-64 45l185 225v5l-283 73l25 74l268 -107h4z" />
<glyph unicode="+" horiz-adv-x="1249" d="M657 555h457v-61h-457v-494h-65v494h-457v61h457v494h65v-494z" />
<glyph unicode="," horiz-adv-x="393" d="M190 90h68q-83 -248 -154 -412l-81 -16q80 222 122 395q9 33 45 33z" />
<glyph unicode="-" horiz-adv-x="735" d="M575 555v-61h-415v61h415z" />
<glyph unicode="." horiz-adv-x="401" d="M201 111q28 0 46.5 -19t18.5 -47t-18.5 -46.5t-46.5 -18.5t-47 18.5t-19 46.5t19 47t47 19z" />
<glyph unicode="/" horiz-adv-x="692" d="M631 1434h71l-641 -1510h-71z" />
<glyph unicode="0" horiz-adv-x="1051" d="M526 1368q195 0 315 -185.5t120 -508.5t-120 -508.5t-315 -185.5q-196 0 -316 185.5t-120 508.5t120 508.5t316 185.5zM526 53q149 0 246.5 165.5t97.5 455.5t-97.5 455t-246.5 165t-247.5 -165.5t-98.5 -454.5q0 -290 98.5 -455.5t247.5 -165.5z" />
<glyph unicode="1" horiz-adv-x="1051" d="M594 1348h41v-1348h-82v1239l-291 -115l-10 72z" />
<glyph unicode="2" horiz-adv-x="1051" d="M891 72v-72h-756v61l277 349q235 296 302.5 409t67.5 207q0 121 -75 194.5t-215 73.5q-67 0 -144 -20t-139 -57l-10 73q134 78 313 78q164 0 262 -95.5t98 -238.5q0 -50 -16 -102t-41 -102q-25 -48 -87 -136l-122 -163l-176 -224l-184 -231v-4h645z" />
<glyph unicode="3" horiz-adv-x="1051" d="M436 -20q-159 0 -303 65l10 74q148 -66 316 -66q148 0 252 82t104 217q0 134 -98 213t-291 86v76q88 6 169 48t134 115t53 159q0 117 -74.5 181t-215.5 64q-138 0 -275 -67l-10 73q136 68 305 68q161 0 260.5 -82.5t99.5 -210.5q0 -127 -91.5 -223.5t-221.5 -136.5v-4 q146 -26 246 -117t100 -225q0 -124 -64.5 -213.5t-169 -132.5t-235.5 -43z" />
<glyph unicode="4" horiz-adv-x="1051" d="M821 430h178v-72h-178v-358h-82v358h-655v66l649 924h88v-918zM180 430h559v414q0 239 2 387h-4l-557 -799v-2z" />
<glyph unicode="5" horiz-adv-x="1051" d="M279 750q102 47 225 47q177 0 291 -105.5t114 -273.5q0 -196 -139 -317t-344 -121q-160 0 -281 59l11 74q143 -60 278 -60q159 0 272 93.5t113 244.5q0 162 -89.5 247t-244.5 85q-117 0 -215 -49l-73 2l20 672h625v-72h-551l-19 -526h7z" />
<glyph unicode="6" horiz-adv-x="1051" d="M530 -20q-179 0 -295 147t-116 401q0 164 53.5 315.5t142.5 262t206.5 180.5t242.5 82l10 -74q-154 -22 -280.5 -120.5t-201.5 -248.5t-85 -323h4q40 102 137.5 158.5t210.5 56.5q164 0 270.5 -109t106.5 -276q0 -199 -117 -325.5t-289 -126.5zM535 743 q-138 0 -228 -83.5t-90 -208.5q0 -163 93.5 -280.5t226.5 -117.5q126 0 217.5 98.5t91.5 266.5q0 143 -86 234t-225 91z" />
<glyph unicode="7" horiz-adv-x="1051" d="M926 1348v-74l-533 -1274h-84l535 1272v4h-697v72h779z" />
<glyph unicode="8" horiz-adv-x="1051" d="M621 721q157 -74 233 -158t76 -211q0 -89 -35.5 -162t-94.5 -117.5t-130 -68.5t-146 -24q-175 0 -290 93t-115 253q0 95 43 170.5t109.5 124.5t164.5 92v4q-260 121 -260 334q0 134 106.5 225.5t260.5 91.5q143 0 248.5 -88t105.5 -215q0 -117 -77.5 -202t-198.5 -138v-4 zM264 1055q0 -113 71 -185t197 -118q129 48 203 118t74 177t-75 178t-195 71q-121 0 -198 -69t-77 -172zM524 53q130 0 224 77t94 206q0 125 -83.5 208.5t-240.5 141.5q-150 -59 -230.5 -141t-80.5 -199q0 -130 90.5 -211.5t226.5 -81.5z" />
<glyph unicode="9" horiz-adv-x="1051" d="M520 1368q178 0 295 -147.5t117 -401.5q0 -164 -53.5 -315.5t-142.5 -261.5t-206.5 -180.5t-242.5 -81.5l-11 73q116 17 218 78.5t176 153.5t120 211.5t54 248.5h-4q-27 -68 -83 -117.5t-124 -73.5t-141 -24q-166 0 -271.5 108.5t-105.5 276.5q0 200 116.5 326.5 t288.5 126.5zM516 604q138 0 228 83.5t90 209.5q0 161 -94.5 279t-225.5 118q-127 0 -218 -98.5t-91 -265.5q0 -144 85.5 -235t225.5 -91z" />
<glyph unicode=":" horiz-adv-x="401" d="M201 881q-28 0 -47 18.5t-19 46.5t19 47t47 19t46.5 -19t18.5 -47t-18.5 -46.5t-46.5 -18.5zM201 111q28 0 46.5 -19t18.5 -47t-18.5 -46.5t-46.5 -18.5t-47 18.5t-19 46.5t19 47t47 19z" />
<glyph unicode=";" horiz-adv-x="414" d="M213 881q-28 0 -47 18.5t-19 46.5t19 47t47 19t47 -19t19 -47t-19 -46.5t-47 -18.5zM190 90h68q-83 -248 -154 -412l-81 -16q80 222 122 395q9 33 45 33z" />
<glyph unicode="&#x3c;" horiz-adv-x="1016" d="M164 539l702 -375v-74l-762 414v74l762 413v-73l-702 -375v-4z" />
<glyph unicode="=" horiz-adv-x="1290" d="M1108 281h-926v61h926v-61zM1108 707h-926v61h926v-61z" />
<glyph unicode="&#x3e;" horiz-adv-x="1016" d="M852 539v4l-702 375v73l761 -413v-74l-761 -414v74z" />
<glyph unicode="?" horiz-adv-x="786" d="M672 1151q0 -85 -44 -171.5t-153 -234.5q-75 -103 -103 -189.5t-28 -195.5v-75h-82v57q0 139 42 246t132 231q77 105 111.5 176t34.5 146q0 88 -64 147.5t-184 59.5q-125 0 -230 -58l-10 74q117 57 260 57q142 0 230 -73.5t88 -196.5zM369 45q0 28 -19 47t-47 19 t-46.5 -19t-18.5 -47t18.5 -46.5t46.5 -18.5t47 18.5t19 46.5z" />
<glyph unicode="@" horiz-adv-x="1798" d="M1018 1188q121 0 231 -51.5t187 -134t122.5 -188t45.5 -212.5q0 -221 -108 -360.5t-269 -139.5q-66 0 -113 39.5t-61 124.5h-4q-94 -178 -279 -178q-88 0 -159.5 77t-71.5 195q0 234 136.5 378.5t354.5 144.5q86 0 170 -31l-65 -438q-21 -134 10 -192t104 -58 q119 0 201 110.5t82 292.5q0 153 -66.5 279.5t-194 203t-290.5 76.5q-210 0 -384 -95.5t-274 -261.5t-100 -366q0 -174 75.5 -313t203 -215t282.5 -76q231 0 416 111l8 -57q-190 -115 -448 -115q-121 0 -232.5 49.5t-193.5 133t-131 200t-49 244.5q0 149 43.5 279.5t123 229 t186.5 170t237.5 108t273.5 36.5zM1077 481l47 326q-56 14 -120 14q-177 0 -286.5 -124.5t-109.5 -315.5q0 -108 55.5 -169.5t131.5 -61.5q116 0 186.5 79.5t95.5 251.5z" />
<glyph unicode="A" horiz-adv-x="1178" d="M1026 0l-168 489h-555l-168 -489h-82l488 1389h84l487 -1389h-86zM328 561h508l-250 727h-6z" />
<glyph unicode="B" horiz-adv-x="1055" d="M641 729q142 -33 225.5 -121.5t83.5 -214.5q0 -192 -143 -297.5t-375 -105.5q-121 0 -256 22v1366q152 21 285 21q218 0 335 -91t117 -241q0 -120 -80.5 -210.5t-191.5 -123.5v-4zM258 745h221q62 0 122 19.5t110.5 56t81 96.5t30.5 134q0 130 -96.5 202t-277.5 72 q-108 0 -191 -14v-566zM473 678h-215v-598q112 -17 195 -17q189 0 298 86t109 232q0 133 -101.5 215t-285.5 82z" />
<glyph unicode="C" horiz-adv-x="1188" d="M90 690q0 158 53.5 294t144.5 228t212.5 144.5t255.5 52.5q238 0 358 -63l-10 -74q-166 63 -342 63q-116 0 -222 -46t-186 -127.5t-127 -203t-47 -264.5q0 -194 76 -341.5t203 -223.5t284 -76q179 0 340 66l11 -76q-148 -63 -371 -63q-126 0 -240 47.5t-202 135.5 t-139.5 224.5t-51.5 302.5z" />
<glyph unicode="D" horiz-adv-x="1358" d="M176 1376q150 23 334 23q353 0 555.5 -179.5t202.5 -484.5q0 -165 -63 -306t-169 -236t-248 -149t-299 -54q-133 0 -313 14v1372zM258 1311v-1239q162 -9 252 -9q131 0 252 47.5t213.5 130.5t147.5 207t55 267q0 276 -177 443t-489 167q-138 0 -254 -14z" />
<glyph unicode="E" horiz-adv-x="991" d="M258 72h619v-72h-701v1389h682v-72h-600v-563h530v-72h-530v-610z" />
<glyph unicode="F" horiz-adv-x="911" d="M258 0h-82v1389h682v-72h-600v-584h530v-71h-530v-662z" />
<glyph unicode="G" horiz-adv-x="1278" d="M770 1409q202 0 338 -66l-10 -79q-66 31 -157 51t-177 20q-119 0 -225 -44.5t-186 -125t-126.5 -202.5t-46.5 -269t42.5 -266.5t118 -199t178.5 -122.5t224 -43q185 0 324 50v473h-346v71h428v-598q-179 -69 -426 -69q-130 0 -244 45t-201 130t-137.5 218.5t-50.5 300.5 q0 168 56 307t150 229t216.5 139.5t257.5 49.5z" />
<glyph unicode="H" horiz-adv-x="1358" d="M1100 1389h82v-1389h-82v680h-842v-680h-82v1389h82v-637h842v637z" />
<glyph unicode="I" horiz-adv-x="434" d="M258 0h-82v1389h82v-1389z" />
<glyph unicode="J" horiz-adv-x="750" d="M584 444q0 -234 -108 -349t-290 -115q-107 0 -174 28l11 74q73 -29 178 -29q139 0 220 93t81 290v953h82v-945z" />
<glyph unicode="K" horiz-adv-x="1079" d="M1055 1389l-594 -666l635 -723h-113l-571 664h-6l-148 -166v-498h-82v1389h82v-789h8l686 789h103z" />
<glyph unicode="L" horiz-adv-x="954" d="M176 1389h82v-1317h639v-72h-721v1389z" />
<glyph unicode="M" horiz-adv-x="1647" d="M1321 1389h100l49 -1389h-81l-35 1278h-6l-496 -1237h-78l-487 1237h-6l-35 -1278h-76l49 1389h103l491 -1254h6z" />
<glyph unicode="N" horiz-adv-x="1384" d="M1214 1389v-1389h-112l-592 897q-189 287 -264 410h-6q6 -164 6 -410v-897h-76v1389h113l591 -897l265 -412h6q-6 166 -6 412v897h75z" />
<glyph unicode="O" horiz-adv-x="1438" d="M719 -20q-137 0 -256.5 59.5t-200 158t-126.5 228t-46 268.5t46 269t126.5 228.5t200 158t256.5 59.5t256.5 -59.5t200 -158t126.5 -228.5t46 -269t-46 -268.5t-126.5 -228t-200 -158t-256.5 -59.5zM719 53q159 0 283.5 90.5t189.5 236t65 314.5t-65 314.5t-189.5 236 t-283.5 90.5q-120 0 -222 -53t-171 -141.5t-107.5 -204.5t-38.5 -242t38.5 -242t107.5 -204.5t171 -141.5t222 -53z" />
<glyph unicode="P" horiz-adv-x="1012" d="M258 1313v-649q68 -11 158 -11q188 0 308 94.5t120 260.5q0 160 -110.5 238.5t-303.5 78.5q-84 0 -172 -12zM176 0v1372q131 27 260 27q235 0 366.5 -98.5t131.5 -272.5q0 -112 -43.5 -199.5t-118.5 -141t-169.5 -80.5t-203.5 -27q-59 0 -141 10v-590h-82z" />
<glyph unicode="Q" horiz-adv-x="1438" d="M1348 694q0 -150 -52 -286.5t-149 -239.5t-225 -152l75 -290l-79 -21l-70 289q-57 -14 -129 -14q-137 0 -256.5 59.5t-200 158t-126.5 228t-46 268.5t46 269t126.5 228.5t200 158t256.5 59.5t256.5 -59.5t200 -158t126.5 -228.5t46 -269zM719 53q159 0 283.5 90.5 t189.5 236t65 314.5t-65 314.5t-189.5 236t-283.5 90.5q-120 0 -222 -53t-171 -141.5t-107.5 -204.5t-38.5 -242t38.5 -242t107.5 -204.5t171 -141.5t222 -53z" />
<glyph unicode="R" horiz-adv-x="1044" d="M258 702h236q159 0 260.5 86t101.5 236q0 147 -102 223t-289 76q-105 0 -207 -18v-603zM508 631h-250v-631h-82v1366q144 31 295 31q216 0 345.5 -94t129.5 -259q0 -95 -45 -174t-110 -125.5t-142 -68.5v-4q93 -26 149 -95t79 -184q40 -205 100 -393h-96q-50 179 -90 381 q-24 118 -94.5 184t-188.5 66z" />
<glyph unicode="S" horiz-adv-x="1004" d="M160 1059q0 85 33.5 153.5t89.5 110.5t126 64t146 22q171 0 264 -49l-10 -74q-96 49 -254 49q-131 0 -219 -70t-88 -188q0 -67 18 -116.5t60 -89.5t91.5 -69.5t131.5 -66.5q163 -75 241 -157.5t78 -210.5q0 -171 -124 -279t-328 -108q-184 0 -312 51l11 75 q147 -53 309 -53q150 0 253 78.5t103 210.5q0 65 -17.5 113.5t-59.5 89t-96 72t-142 71.5q-146 66 -225.5 153.5t-79.5 217.5z" />
<glyph unicode="T" horiz-adv-x="971" d="M940 1389v-72h-414v-1317h-82v1317h-413v72h909z" />
<glyph unicode="U" horiz-adv-x="1204" d="M1051 469q0 -229 -124.5 -359t-322.5 -130q-194 0 -319 128.5t-125 329.5v951h82v-930q0 -192 101.5 -299t264.5 -107q170 0 267.5 109.5t97.5 296.5v930h78v-920z" />
<glyph unicode="V" horiz-adv-x="1114" d="M520 0l-487 1389h86l440 -1287h6l445 1287h82l-488 -1389h-84z" />
<glyph unicode="W" horiz-adv-x="1776" d="M1667 1389h78l-424 -1389h-82l-342 1274h-6l-346 -1274h-84l-420 1389h86l375 -1280h6l348 1280h82l344 -1280h6z" />
<glyph unicode="X" horiz-adv-x="995" d="M952 1389l-409 -676l436 -713h-96l-381 643h-4l-379 -643h-90l432 709l-418 680h96l363 -609h4l356 609h90z" />
<glyph unicode="Y" horiz-adv-x="1042" d="M930 1389h90l-451 -781v-608h-82v600l-454 789h98l397 -711h4z" />
<glyph unicode="Z" horiz-adv-x="1112" d="M182 72h836v-72h-928v72l803 1241v4h-739v72h829v-74l-801 -1239v-4z" />
<glyph unicode="[" horiz-adv-x="608" d="M510 1372h-236v-1489h236v-61h-301v1612h301v-62z" />
<glyph unicode="\" horiz-adv-x="692" d="M61 1434l641 -1510h-71l-641 1510h71z" />
<glyph unicode="]" horiz-adv-x="608" d="M98 1372v62h301v-1612h-301v61h236v1489h-236z" />
<glyph unicode="^" horiz-adv-x="1094" d="M584 1339l374 -798h-73l-334 733h-6l-336 -733h-74l375 798h74z" />
<glyph unicode="_" horiz-adv-x="1032" d="M979 -174h-926v61h926v-61z" />
<glyph unicode="`" horiz-adv-x="506" d="M88 1442h68q27 0 39 -23q62 -123 135 -239l-78 -4q-107 159 -164 266z" />
<glyph unicode="a" horiz-adv-x="950" d="M469 1008q156 0 240 -86.5t84 -241.5v-680h-76l-6 186h-4q-43 -97 -125 -151.5t-181 -54.5q-127 0 -216 86.5t-89 222.5q0 159 120.5 247.5t305.5 88.5q89 0 189 -17v45q0 146 -62.5 214.5t-202.5 68.5q-114 0 -233 -51l-8 69q132 54 264 54zM711 410v131q-69 16 -170 16 q-161 0 -258 -65t-97 -193q0 -116 67.5 -184t172.5 -68q124 0 204.5 101.5t80.5 261.5z" />
<glyph unicode="b" horiz-adv-x="1133" d="M262 793q69 110 152 160.5t192 50.5q196 0 313 -134.5t117 -359.5q0 -235 -123.5 -382.5t-320.5 -147.5q-224 0 -330 210h-4l-6 -190h-76v1475h82v-682h4zM258 588v-193q0 -151 97.5 -247.5t238.5 -96.5q152 0 252 119.5t100 323.5q0 200 -93.5 319t-262.5 119 q-145 0 -238.5 -101.5t-93.5 -242.5z" />
<glyph unicode="c" horiz-adv-x="936" d="M186 506q0 -212 109.5 -333.5t292.5 -121.5q104 0 256 55l8 -69q-126 -57 -293 -57q-129 0 -234 61t-167 176.5t-62 265.5q0 247 138 384t356 137q86 0 160 -17t112 -43l-8 -70q-119 58 -260 58q-181 0 -294.5 -110.5t-113.5 -315.5z" />
<glyph unicode="d" horiz-adv-x="1133" d="M870 190q-68 -109 -151.5 -159.5t-192.5 -50.5q-197 0 -313.5 134t-116.5 359q0 235 124 383t321 148q114 0 197 -56t132 -155h4v682h82v-1475h-75l-7 190h-4zM874 395v193q0 151 -97.5 247.5t-237.5 96.5q-154 0 -253.5 -119.5t-99.5 -323.5q0 -200 93.5 -319 t263.5 -119q144 0 237.5 101.5t93.5 242.5z" />
<glyph unicode="e" horiz-adv-x="1006" d="M901 578q0 -46 -6 -89h-713q0 -207 103 -322.5t282 -115.5q129 0 240 51l8 -69q-117 -53 -278 -53q-91 0 -169.5 31t-140 91.5t-96.5 159t-35 223.5q0 105 33.5 200.5t92 166.5t144.5 113.5t185 42.5q111 0 192 -60t119.5 -156t38.5 -214zM186 557h631q0 174 -72 276.5 t-213 102.5q-146 0 -241.5 -111t-104.5 -268z" />
<glyph unicode="f" horiz-adv-x="641" d="M236 1085q0 199 94 304.5t239 105.5q79 0 129 -29l-8 -65q-55 22 -123 22q-114 0 -182 -79t-68 -234v-127h263v-72h-263v-911h-81v911h-162v72h162v102z" />
<glyph unicode="g" horiz-adv-x="1128" d="M952 983v-848q0 -152 -35 -262t-100.5 -173.5t-148.5 -92.5t-189 -29q-180 0 -301 72l8 74q127 -74 297 -74q186 0 286.5 108.5t100.5 329.5v115h-4q-68 -110 -151.5 -160.5t-192.5 -50.5q-197 0 -311.5 132t-114.5 357q0 234 123 378.5t318 144.5q114 0 197 -56 t132 -155h4l7 190h75zM535 932q-152 0 -250.5 -119t-98.5 -315q0 -199 93.5 -317t259.5 -118q144 0 237.5 101.5t93.5 243.5v180q0 151 -97.5 247.5t-237.5 96.5z" />
<glyph unicode="h" horiz-adv-x="1073" d="M258 786h4q56 107 148 164.5t202 57.5q152 0 227.5 -100t75.5 -263v-645h-81v614q0 158 -57.5 239t-192.5 81q-139 0 -232.5 -103t-93.5 -249v-582h-82v1475h82v-689z" />
<glyph unicode="i" horiz-adv-x="434" d="M176 0v983h82v-983h-82zM217 1182q-26 0 -43.5 17.5t-17.5 43.5t17.5 44t43.5 18t44 -18t18 -44t-18 -43.5t-44 -17.5z" />
<glyph unicode="j" horiz-adv-x="459" d="M283 80q0 -160 -39.5 -263t-116.5 -158.5t-203 -80.5l-8 74q70 13 119.5 38t88.5 72t58 123t19 183v915h82v-903zM242 1182q-26 0 -44 17.5t-18 43.5t18 44t44 18t43.5 -18t17.5 -44t-17.5 -43.5t-43.5 -17.5z" />
<glyph unicode="k" horiz-adv-x="936" d="M885 983l-402 -403l455 -580h-104l-402 520h-6l-168 -176v-344h-82v1475h82v-1043h6q43 50 172 188l235 250l107 113h107z" />
<glyph unicode="l" horiz-adv-x="434" d="M258 0h-82v1475h82v-1475z" />
<glyph unicode="m" horiz-adv-x="1640" d="M856 750h6q112 254 338 254q141 0 212 -95.5t71 -267.5v-641h-82v610q0 161 -54.5 240.5t-177.5 79.5q-132 0 -215.5 -114t-83.5 -279v-537h-82v606q0 324 -231 324q-133 0 -216 -113t-83 -280v-537h-82v983h76l6 -201h4q111 222 326 222q106 0 175.5 -71.5t92.5 -182.5z " />
<glyph unicode="n" horiz-adv-x="1073" d="M258 786h4q56 107 148 164.5t202 57.5q152 0 227.5 -100t75.5 -263v-645h-81v614q0 158 -57.5 239t-192.5 81q-139 0 -232.5 -103t-93.5 -249v-582h-82v987h76z" />
<glyph unicode="o" horiz-adv-x="1090" d="M96 492q0 232 127 372t322 140q194 0 321 -140t127 -372q0 -233 -126.5 -372.5t-321.5 -139.5t-322 140t-127 372zM186 492q0 -200 96.5 -320.5t262.5 -120.5t262 120t96 321q0 200 -96 320t-262 120t-262.5 -120t-96.5 -320z" />
<glyph unicode="p" horiz-adv-x="1133" d="M262 793q69 110 152 160.5t192 50.5q196 0 313 -134.5t117 -359.5q0 -235 -123.5 -382.5t-320.5 -147.5q-224 0 -330 210h-4v-591h-82v1384h76l6 -190h4zM258 588v-193q0 -151 97.5 -247.5t238.5 -96.5q152 0 252 119.5t100 323.5q0 200 -93.5 319t-262.5 119 q-145 0 -238.5 -101.5t-93.5 -242.5z" />
<glyph unicode="q" horiz-adv-x="1133" d="M870 190q-68 -109 -151.5 -159.5t-192.5 -50.5q-197 0 -313.5 134t-116.5 359q0 235 124 383t321 148q114 0 197 -56t132 -155h4l7 190h75v-1384h-82v591h-4zM874 395v193q0 151 -97.5 247.5t-237.5 96.5q-154 0 -253.5 -119.5t-99.5 -323.5q0 -200 93.5 -319t263.5 -119 q144 0 237.5 101.5t93.5 242.5z" />
<glyph unicode="r" horiz-adv-x="557" d="M526 1008l-4 -97q-61 -9 -102 -37q-81 -52 -121.5 -154t-40.5 -274v-446h-82v987h76l6 -252h4q38 120 107 191.5t157 81.5z" />
<glyph unicode="s" horiz-adv-x="799" d="M373 469q-109 45 -166 111t-57 163q0 122 84 191.5t208 69.5q119 0 201 -46l-8 -69q-97 43 -189 43q-87 0 -148.5 -45t-61.5 -125q0 -86 39 -135t135 -90q143 -61 206.5 -124.5t63.5 -152.5q0 -132 -92.5 -206t-241.5 -74q-147 0 -244 53l9 71q124 -53 245 -53 q108 0 173 50.5t65 138.5q0 74 -49 126t-172 103z" />
<glyph unicode="t" horiz-adv-x="625" d="M500 983v-72h-226v-678q0 -95 39 -138.5t103 -43.5q57 0 112 21l9 -66q-59 -26 -142 -26q-91 0 -146.5 56.5t-55.5 170.5v704h-146v72h146v207h81v-207h226z" />
<glyph unicode="u" horiz-adv-x="1073" d="M815 201h-4q-58 -108 -149.5 -164.5t-200.5 -56.5q-78 0 -137.5 27.5t-95 77t-53 114t-17.5 143.5v641h82v-610q0 -158 57 -239t192 -81q138 0 232 103.5t94 249.5v577h82v-983h-76z" />
<glyph unicode="v" horiz-adv-x="944" d="M829 983h82l-395 -983h-84l-393 983h88l348 -893h4z" />
<glyph unicode="w" horiz-adv-x="1499" d="M1376 983h82l-344 -983h-82l-274 874h-6l-277 -874h-86l-342 983h90l295 -883h6l277 883h86l276 -883h6z" />
<glyph unicode="x" horiz-adv-x="905" d="M838 983l-342 -473v-6l370 -504h-102l-315 440h-7l-315 -440h-94l366 500v6l-346 477h103l290 -412h7l290 412h95z" />
<glyph unicode="y" horiz-adv-x="928" d="M516 -6q-79 -195 -175.5 -290t-242.5 -126l-8 74q116 26 196 98.5t138 216.5l12 31l-397 985h88l350 -893h4l353 893h81z" />
<glyph unicode="z" horiz-adv-x="850" d="M727 911l-541 -833v-6h572v-72h-664v72l541 833v6h-494v72h586v-72z" />
<glyph unicode="{" horiz-adv-x="674" d="M166 598v61q96 11 126.5 46t20.5 122l-32 291q-38 336 301 336v-61q-77 0 -128.5 -19.5t-76 -55.5t-32.5 -87t1 -113l33 -289q11 -92 -14.5 -131t-98.5 -67v-4q73 -28 98.5 -67.5t14.5 -131.5l-33 -289q-9 -62 -1 -112.5t32.5 -86.5t76 -55.5t128.5 -19.5v-62 q-340 0 -301 336l32 291q10 87 -20.5 122t-126.5 46z" />
<glyph unicode="|" horiz-adv-x="487" d="M279 -512h-70v2048h70v-2048z" />
<glyph unicode="}" horiz-adv-x="674" d="M508 598q-96 -11 -127 -46t-21 -122l33 -291q38 -336 -301 -336v62q149 0 200 69.5t36 204.5l-33 289q-11 92 14.5 131.5t98.5 67.5v4q-73 28 -98.5 67t-14.5 131l33 289q15 135 -36 205t-200 70v61q339 0 301 -336l-33 -291q-10 -87 21 -122t127 -46v-61z" />
<glyph unicode="~" horiz-adv-x="1225" d="M602 494q-222 75 -287 75q-56 0 -81 -31t-27 -100h-62q0 98 50.5 145.5t134.5 47.5q43 0 105.5 -16.5t187.5 -59.5q222 -76 286 -76q57 0 82 31t27 100h61q0 -98 -50.5 -145t-133.5 -47q-42 0 -103.5 16.5t-189.5 59.5z" />
<glyph unicode="&#xa1;" horiz-adv-x="682" d="M284 697h116l55 -776v-325h-223v325zM240 1062h207v-205h-207v205z" />
<glyph unicode="&#xa2;" d="M415 177l223 763q-32 3 -50 3q-83 0 -154 -46q-70 -44 -106 -138.5t-36 -223.5q0 -266 123 -358zM744 894l-222 -766q33 -9 61 -9q103 0 179 71q76 70 93 199l179 -20q-33 -185 -157 -291q-122 -106 -291 -106q-47 0 -103 14l-118 -395l-112 32l115 398q-114 55 -188 183 q-73 128 -73 322q0 179 58 305q58 127 175 192q116 64 238 64q31 0 100 -8l113 387l110 -32l-112 -387q97 -42 151 -114t75 -183l-175 -27q-26 113 -96 171z" />
<glyph unicode="&#xa3;" d="M396 809h315v-148h-284q19 -42 19 -88q0 -193 -178 -382q78 22 144 22q86 0 187 -25q175 -41 233 -41q72 0 192 56l58 -165q-91 -39 -143 -51q-49 -12 -100 -12q-39 0 -85 8q-26 4 -130 36q-107 33 -132 38q-50 8 -94 8q-72 0 -153.5 -25t-148.5 -68l-69 173 q94 51 163 151q67 98 67 241q0 59 -17 124h-196v148h154q-33 113 -42 163q-9 52 -9 101q0 208 154 325q125 93 300 93q180 0 298 -100t145 -279l-179 -27q-15 120 -90 189q-73 69 -178 69q-111 0 -185 -72q-73 -70 -73 -172q0 -111 57 -290z" />
<glyph unicode="&#xa4;" d="M305 726q0 -108 76 -184t183 -76t183 76t76 184q0 107 -76 183q-75 76 -183 76q-107 0 -183 -76t-76 -183zM213 961l-139 136l115 119l139 -139q106 72 237 72q132 0 237 -72l139 139l116 -119l-139 -136q71 -110 71 -235q0 -126 -71 -236l139 -136l-116 -119l-139 140 q-104 -73 -237 -73q-131 0 -237 73l-139 -140l-115 119l139 136q-71 110 -71 236q0 125 71 235z" />
<glyph unicode="&#xa5;" d="M657 0h-180v325h-415v139h415v143h-415v148h341l-406 711h200l290 -516q48 -87 76 -154q21 48 82 163l274 507h214l-405 -711h341v-148h-412v-143h412v-139h-412v-325z" />
<glyph unicode="&#xa6;" horiz-adv-x="532" d="M188 360h157v-791h-157v791zM188 1491h157v-790h-157v790z" />
<glyph unicode="&#xa7;" d="M728 244q72 37 109.5 87t37.5 100q0 58 -52 120t-225 169q-136 84 -204 138q-80 -45 -115 -91t-35 -103q0 -64 46 -120q47 -58 207 -152q138 -82 231 -148zM143 -70l181 26q28 -130 89 -182q62 -53 166 -53q103 0 159 52q58 52 58 122q0 51 -36 94q-61 75 -340 245 q-150 93 -207 142q-60 54 -96 124.5t-36 143.5q0 96 60 174q59 77 165 109q-70 67 -99.5 124.5t-29.5 123.5q0 128 100 222t265 94q186 0 291.5 -88.5t126.5 -258.5l-187 -19q-20 119 -71.5 168.5t-143.5 49.5q-91 0 -149 -50q-56 -50 -56 -109q0 -52 36 -96 q57 -69 306 -220q153 -94 212 -141q138 -116 138 -263q0 -114 -73 -193q-42 -47 -154 -93q159 -120 159 -281q0 -87 -50 -166q-49 -79 -144 -120q-95 -42 -203 -42q-190 0 -302.5 94.5t-134.5 266.5z" />
<glyph unicode="&#xa8;" horiz-adv-x="682" d="M622 1270h-188v205h188v-205zM249 1270h-188v205h188v-205z" />
<glyph unicode="&#xa9;" horiz-adv-x="1509" d="M1000 614l123 -36q-30 -125 -128 -200q-98 -74 -236 -74q-177 0 -286 114q-108 113 -110 316q-2 197 110.5 312.5t293.5 113.5q131 -1 219.5 -63.5t121.5 -172.5l-119 -29q-30 74 -88.5 113.5t-137.5 39.5q-115 0 -190 -82q-74 -83 -74 -235q0 -153 70 -232 q71 -78 183 -78q91 0 158 52q68 53 90 141zM758 1366q-159 0 -310 -82q-149 -80 -235 -233q-85 -151 -85 -315q0 -165 83 -313q82 -148 234 -233q151 -83 313 -83t313 83q150 84 233 233q83 151 83 313q0 164 -85 315q-85 153 -235 233q-151 82 -309 82zM758 1491 q189 0 371 -98q181 -97 282 -279t101 -378t-100 -375q-99 -179 -279 -280q-179 -99 -375 -99q-199 0 -376 99q-178 99 -279 280q-100 179 -100 375t101 378q102 182 283 279q182 98 371 98z" />
<glyph unicode="&#xaa;" horiz-adv-x="758" d="M533 1104q-53 -14 -192 -36q-90 -14 -117 -39q-28 -25 -28 -64q0 -43 35 -71t95 -28q73 0 127 39q52 38 72 96q7 21 8 103zM548 853q-122 -107 -256 -107q-114 0 -179 61q-66 61 -66 158q0 145 145 193q34 12 99 21l147 22q38 6 96 20q-2 72 -14 94q-14 26 -50.5 42.5 t-92.5 16.5q-147 0 -166 -125l-137 34q12 90 88 148q76 60 217 60q165 0 232 -61t67 -181v-240l-1 -61q-1 -132 41 -184h-148q-21 43 -22 89z" />
<glyph unicode="&#xab;" d="M991 984l-264 -456l264 -456h-152l-313 456l313 456h152zM601 984l-261 -456l259 -456h-146l-319 456l319 456h148z" />
<glyph unicode="&#xac;" horiz-adv-x="1196" d="M1082 1030v-606h-170v438h-798v168h968z" />
<glyph unicode="&#xad;" horiz-adv-x="682" d="M575 555v-61h-415v61h415z" />
<glyph unicode="&#xae;" horiz-adv-x="1509" d="M558 1021v-245h159q115 0 155 34q42 34 42 90q0 35 -20 64q-20 30 -56 43q-36 14 -131 14h-149zM558 319h-131v812h279q141 0 207 -23q65 -22 102 -78q38 -56 38 -119q0 -90 -64 -155q-64 -67 -168 -74q44 -18 69 -43q49 -47 120 -161l99 -159h-160l-72 128 q-84 148 -137 189q-39 28 -105 28h-77v-345zM758 1366q-159 0 -310 -82q-149 -80 -235 -233q-85 -151 -85 -315q0 -165 83 -313q82 -148 234 -233q151 -83 313 -83t313 83q150 84 233 233q83 151 83 313q0 164 -85 315q-85 153 -235 233q-151 82 -309 82zM758 1491 q189 0 371 -98q181 -97 282 -279t101 -378t-100 -375q-99 -179 -279 -280q-179 -99 -375 -99q-199 0 -376 99q-178 99 -279 280q-100 179 -100 375t101 378q102 182 283 279q182 98 371 98z" />
<glyph unicode="&#xaf;" horiz-adv-x="1131" d="M1162 1566h-1193v129h1193v-129z" />
<glyph unicode="&#xb0;" horiz-adv-x="819" d="M237 1214q0 -71 49 -120t120 -49q69 0 118 49q50 50 50 120q0 69 -50 119t-118 50q-70 0 -120 -50q-49 -49 -49 -119zM128 1214q0 115 81 196q83 81 196 81q116 0 197 -81t81 -196t-82 -197q-81 -81 -196 -81q-113 0 -196 81q-81 81 -81 197z" />
<glyph unicode="&#xb1;" horiz-adv-x="1124" d="M1046 168v-168h-968v168h968zM647 260h-170v403h-399v167h399v399h170v-399h399v-167h-399v-403z" />
<glyph unicode="&#xb2;" horiz-adv-x="682" d="M648 733h-623q6 56 47 114q65 88 207 190q144 105 171 135q37 40 37 84q0 50 -36 80t-102 30t-99 -24q-32 -23 -53 -90l-151 16q30 112 101.5 164t204.5 52q150 0 221 -59t71 -144q0 -83 -59 -159q-43 -53 -205 -171q-83 -60 -118 -97h386v-121z" />
<glyph unicode="&#xb3;" horiz-adv-x="682" d="M33 929l146 15q19 -58 52 -82q43 -30 102 -30q71 0 114 39t43 94q0 110 -159 110q-5 0 -33 -2q-9 -1 -22 -1l22 110q77 -1 116.5 27.5t39.5 74.5q0 39 -31 64t-88 25q-56 0 -87.5 -22t-54.5 -80l-143 23q40 105 103 148q63 42 183 42q143 0 209 -54t66 -133 q0 -56 -36 -99t-102 -61q87 -21 130 -71t43 -120q0 -93 -79 -162t-225 -69q-265 0 -309 214z" />
<glyph unicode="&#xb4;" horiz-adv-x="682" d="M371 1194h-149l133 280h236z" />
<glyph unicode="&#xb5;" horiz-adv-x="1180" d="M841 1062h177v-1062h-161v126q-53 -81 -103 -110q-71 -41 -163 -41q-83 0 -147 33q-47 25 -106 99v-514h-178v1469h178v-450q0 -247 26 -318q26 -72 84.5 -114t134.5 -42q79 0 143 44q63 44 89 113q26 72 26 314v453z" />
<glyph unicode="&#xb6;" horiz-adv-x="1100" d="M570 -407h-165v1045q-189 11 -296 121q-108 111 -108 285q0 193 120 307q121 115 353 115h633v-173h-144v-1700h-170v1700h-223v-1700z" />
<glyph unicode="&#xb7;" horiz-adv-x="682" d="M443 637h-205v205h205v-205z" />
<glyph unicode="&#xb8;" horiz-adv-x="682" d="M216 -154l52 177h134l-33 -107q81 -9 126 -50.5t45 -96.5q0 -75 -72 -132q-71 -58 -217 -58q-83 0 -144 12l11 117q57 -4 94 -4q94 0 132 26q29 20 29 49q-4 22 -11.5 33t-43 22t-102.5 12z" />
<glyph unicode="&#xb9;" horiz-adv-x="682" d="M476 733h-145v554q-103 -82 -224 -113v123q59 19 138 73q77 52 123 114h108v-751z" />
<glyph unicode="&#xba;" horiz-adv-x="748" d="M373 1358q-85 0 -132.5 -59.5t-47.5 -183.5q0 -121 49 -182t131 -61q84 0 132 61t48 187q0 118 -49 178t-131 60zM373 1491q145 0 236 -100q92 -101 92 -276q0 -174 -92 -275q-91 -100 -235 -100q-145 0 -237 98t-92 273q0 180 91 280t237 100z" />
<glyph unicode="&#xbb;" d="M140 72l264 456l-264 456h151l314 -456l-314 -456h-151zM531 72l260 456l-261 456h148l319 -456l-319 -456h-147z" />
<glyph unicode="&#xbc;" horiz-adv-x="1708" d="M1200 231h230v263zM1574 -31h-144v154h-383v123l405 474h122v-489h104v-108h-104v-154zM476 733h-145v554q-103 -82 -224 -113v123q59 19 138 73q77 52 123 114h108v-751zM409 -57h-157l1102 1548h156z" />
<glyph unicode="&#xbd;" horiz-adv-x="1708" d="M1672 -31h-623q6 56 48 113q62 87 206 191q144 103 171 135q37 40 37 84q0 50 -35.5 79.5t-102.5 29.5q-66 0 -99 -24q-32 -23 -53 -89l-151 15q30 113 102 165t204 52q150 0 221 -59t71 -144q0 -83 -59 -159q-47 -58 -204 -172q-86 -63 -119 -96h386v-121zM476 733h-145 v554q-103 -82 -224 -113v123q59 19 138 73q77 52 123 114h108v-751zM385 -57h-157l1101 1548h157z" />
<glyph unicode="&#xbe;" horiz-adv-x="1708" d="M1200 231h229v263zM1574 -31h-145v154h-382v123l404 474h123v-489h104v-108h-104v-154zM33 929l146 15q19 -58 52 -82q43 -30 102 -30q71 0 114 39t43 94q0 113 -156 110q-15 0 -28 -0.5t-21 -1.5t-9 -1l22 110q77 -1 116.5 27.5t39.5 74.5q0 39 -31 64t-88 25 q-56 0 -87.5 -22t-54.5 -80l-143 23q40 105 103 148q63 42 183 42q143 0 209 -54t66 -133q0 -56 -36 -99t-102 -61q87 -21 130 -71t43 -120q0 -93 -79 -162t-225 -69q-265 0 -309 214zM409 -57h-157l1101 1548h157z" />
<glyph unicode="&#xbf;" horiz-adv-x="1251" d="M548 701h173q1 -23 1 -51q0 -110 -30 -187q-23 -61 -71 -117q-34 -41 -130 -125q-93 -83 -121 -131q-27 -50 -27 -107q0 -106 82 -185t201 -79q117 0 193.5 73.5t99.5 222.5l184 -21q-25 -203 -148.5 -313t-325.5 -110q-217 0 -344 117t-127 283q0 97 44 177 q46 81 176 196q92 83 116 116q27 38 39 85q13 48 15 156zM528 1062h205v-205h-205v205z" />
<glyph unicode="&#xc0;" horiz-adv-x="1366" d="M1026 0l-168 489h-555l-168 -489h-82l488 1389h84l487 -1389h-86zM328 561h508l-250 727h-6zM447 1804h68q27 0 39 -23q62 -123 135 -239l-78 -4q-107 159 -164 266z" />
<glyph unicode="&#xc1;" horiz-adv-x="1366" d="M1026 0l-168 489h-555l-168 -489h-82l488 1389h84l487 -1389h-86zM328 561h508l-250 727h-6zM690 1556h-149l133 280h236z" />
<glyph unicode="&#xc2;" horiz-adv-x="1366" d="M1026 0l-168 489h-555l-168 -489h-82l488 1389h84l487 -1389h-86zM328 561h508l-250 727h-6zM774 1556l-110 170l-113 -170h-206l216 280h192l225 -280h-204z" />
<glyph unicode="&#xc3;" horiz-adv-x="1366" d="M1026 0l-168 489h-555l-168 -489h-82l488 1389h84l487 -1389h-86zM328 561h508l-250 727h-6zM482 1556h-133q-2 104 57 166q57 62 146 62q62 0 169 -54q59 -30 94 -30q33 0 49.5 18.5t23.5 68.5h130q-3 -111 -56 -169.5t-140 -58.5q-62 0 -166 56q-68 36 -98 36 q-34 0 -55 -24q-23 -24 -21 -71z" />
<glyph unicode="&#xc4;" horiz-adv-x="1366" d="M1026 0l-168 489h-555l-168 -489h-82l488 1389h84l487 -1389h-86zM328 561h508l-250 727h-6zM940 1556h-188v205h188v-205zM567 1556h-188v205h188v-205z" />
<glyph unicode="&#xc5;" horiz-adv-x="1366" d="M1026 0l-168 489h-555l-168 -489h-82l488 1389h84l487 -1389h-86zM328 561h508l-250 727h-6zM557 1600q0 -48 31 -79q32 -32 75 -32q42 0 74 32t32 77q0 46 -31 77q-32 32 -75 32t-75 -32q-31 -31 -31 -75zM481 1601q0 73 53 126q55 53 127 53q75 0 127 -54 q53 -53 53 -129q0 -77 -53 -130t-126 -53q-75 0 -128 53q-53 55 -53 134z" />
<glyph unicode="&#xc6;" horiz-adv-x="2048" d="M832 1293l-339 -698h484v698h-145zM211 0h-210l705 1466h1203v-173h-737v-451h685v-172h-685v-497h764v-173h-959v423h-566z" />
<glyph unicode="&#xc7;" horiz-adv-x="1479" d="M90 690q0 158 53.5 294t144.5 228t212.5 144.5t255.5 52.5q238 0 358 -63l-10 -74q-166 63 -342 63q-116 0 -222 -46t-186 -127.5t-127 -203t-47 -264.5q0 -194 76 -341.5t203 -223.5t284 -76q179 0 340 66l11 -76q-148 -63 -371 -63q-126 0 -240 47.5t-202 135.5 t-139.5 224.5t-51.5 302.5zM620 -154l52 177h134l-33 -107q81 -9 126 -50.5t45 -96.5q0 -75 -72 -132q-71 -58 -217 -58q-83 0 -144 12l11 117q57 -4 94 -4q94 0 132 26q29 20 29 49q-4 22 -11.5 33t-43 22t-102.5 12z" />
<glyph unicode="&#xc8;" horiz-adv-x="1366" d="M258 72h619v-72h-701v1389h682v-72h-600v-563h530v-72h-530v-610zM473 1804h68q27 0 39 -23q62 -123 135 -239l-78 -4q-107 159 -164 266z" />
<glyph unicode="&#xc9;" horiz-adv-x="1366" d="M258 72h619v-72h-701v1389h682v-72h-600v-563h530v-72h-530v-610zM711 1556h-149l133 280h236z" />
<glyph unicode="&#xca;" horiz-adv-x="1366" d="M258 72h619v-72h-701v1389h682v-72h-600v-563h530v-72h-530v-610zM817 1556l-110 170l-113 -170h-206l216 280h192l225 -280h-204z" />
<glyph unicode="&#xcb;" horiz-adv-x="1366" d="M258 72h619v-72h-701v1389h682v-72h-600v-563h530v-72h-530v-610zM986 1556h-188v205h188v-205zM613 1556h-188v205h188v-205z" />
<glyph unicode="&#xcc;" horiz-adv-x="569" d="M258 0h-82v1389h82v-1389zM53 1804h68q27 0 39 -23q62 -123 135 -239l-78 -4q-107 159 -164 266z" />
<glyph unicode="&#xcd;" horiz-adv-x="569" d="M258 0h-82v1389h82v-1389zM290 1556h-149l133 280h236z" />
<glyph unicode="&#xce;" horiz-adv-x="569" d="M258 0h-82v1389h82v-1389zM397 1556l-110 170l-113 -170h-206l216 280h192l225 -280h-204z" />
<glyph unicode="&#xcf;" horiz-adv-x="569" d="M258 0h-82v1389h82v-1389zM565 1556h-188v205h188v-205zM192 1556h-188v205h188v-205z" />
<glyph unicode="&#xd0;" horiz-adv-x="1479" d="M352 667v-494h313q145 0 228 27q82 27 130 75q147 147 147 468q0 171 -39 275q-37 102 -100 165q-62 62 -138 86q-77 24 -233 24h-308v-494h404v-132h-404zM687 0h-529v667h-161v132h161v667h506q170 0 260 -21q127 -29 215 -105q231 -195 231 -599q0 -223 -71 -386 q-70 -160 -170 -234q-97 -72 -228 -104q-73 -17 -214 -17z" />
<glyph unicode="&#xd1;" horiz-adv-x="1479" d="M1214 1389v-1389h-112l-592 897q-189 287 -264 410h-6q6 -164 6 -410v-897h-76v1389h113l591 -897l265 -412h6q-6 166 -6 412v897h75zM563 1556h-133q-2 104 57 166q57 62 146 62q63 0 169 -54q58 -30 94 -30q33 0 49.5 18.5t23.5 68.5h130q-3 -111 -56 -169.5 t-140 -58.5q-62 0 -166 56q-67 36 -98 36q-34 0 -55 -24q-23 -24 -21 -71z" />
<glyph unicode="&#xd2;" horiz-adv-x="1593" d="M719 -20q-137 0 -256.5 59.5t-200 158t-126.5 228t-46 268.5t46 269t126.5 228.5t200 158t256.5 59.5t256.5 -59.5t200 -158t126.5 -228.5t46 -269t-46 -268.5t-126.5 -228t-200 -158t-256.5 -59.5zM719 53q159 0 283.5 90.5t189.5 236t65 314.5t-65 314.5t-189.5 236 t-283.5 90.5q-120 0 -222 -53t-171 -141.5t-107.5 -204.5t-38.5 -242t38.5 -242t107.5 -204.5t171 -141.5t222 -53zM539 1804h68q27 0 39 -23q62 -123 135 -239l-78 -4q-107 159 -164 266z" />
<glyph unicode="&#xd3;" horiz-adv-x="1593" d="M719 -20q-137 0 -256.5 59.5t-200 158t-126.5 228t-46 268.5t46 269t126.5 228.5t200 158t256.5 59.5t256.5 -59.5t200 -158t126.5 -228.5t46 -269t-46 -268.5t-126.5 -228t-200 -158t-256.5 -59.5zM719 53q159 0 283.5 90.5t189.5 236t65 314.5t-65 314.5t-189.5 236 t-283.5 90.5q-120 0 -222 -53t-171 -141.5t-107.5 -204.5t-38.5 -242t38.5 -242t107.5 -204.5t171 -141.5t222 -53zM826 1556h-149l133 280h236z" />
<glyph unicode="&#xd4;" horiz-adv-x="1593" d="M719 -20q-137 0 -256.5 59.5t-200 158t-126.5 228t-46 268.5t46 269t126.5 228.5t200 158t256.5 59.5t256.5 -59.5t200 -158t126.5 -228.5t46 -269t-46 -268.5t-126.5 -228t-200 -158t-256.5 -59.5zM719 53q159 0 283.5 90.5t189.5 236t65 314.5t-65 314.5t-189.5 236 t-283.5 90.5q-120 0 -222 -53t-171 -141.5t-107.5 -204.5t-38.5 -242t38.5 -242t107.5 -204.5t171 -141.5t222 -53zM908 1556l-110 170l-113 -170h-206l216 280h192l225 -280h-204z" />
<glyph unicode="&#xd5;" horiz-adv-x="1593" d="M719 -20q-137 0 -256.5 59.5t-200 158t-126.5 228t-46 268.5t46 269t126.5 228.5t200 158t256.5 59.5t256.5 -59.5t200 -158t126.5 -228.5t46 -269t-46 -268.5t-126.5 -228t-200 -158t-256.5 -59.5zM719 53q159 0 283.5 90.5t189.5 236t65 314.5t-65 314.5t-189.5 236 t-283.5 90.5q-120 0 -222 -53t-171 -141.5t-107.5 -204.5t-38.5 -242t38.5 -242t107.5 -204.5t171 -141.5t222 -53zM599 1556h-133q-2 104 57 166q57 62 146 62q63 0 169 -54q58 -30 94 -30q33 0 49.5 18.5t23.5 68.5h130q-3 -111 -56 -169.5t-140 -58.5q-62 0 -166 56 q-67 36 -98 36q-34 0 -55 -24q-23 -24 -21 -71z" />
<glyph unicode="&#xd6;" horiz-adv-x="1593" d="M719 -20q-137 0 -256.5 59.5t-200 158t-126.5 228t-46 268.5t46 269t126.5 228.5t200 158t256.5 59.5t256.5 -59.5t200 -158t126.5 -228.5t46 -269t-46 -268.5t-126.5 -228t-200 -158t-256.5 -59.5zM719 53q159 0 283.5 90.5t189.5 236t65 314.5t-65 314.5t-189.5 236 t-283.5 90.5q-120 0 -222 -53t-171 -141.5t-107.5 -204.5t-38.5 -242t38.5 -242t107.5 -204.5t171 -141.5t222 -53zM1077 1556h-188v205h188v-205zM704 1556h-188v205h188v-205z" />
<glyph unicode="&#xd7;" horiz-adv-x="1196" d="M282 288l-121 121l315 315l-314 314l122 122l314 -314l313 313l120 -121l-312 -313l314 -314l-122 -122l-314 314z" />
<glyph unicode="&#xd8;" horiz-adv-x="1593" d="M1212 1094l-743 -832q74 -61 142 -88q85 -33 184 -33q218 0 360 154t142 432q0 209 -85 367zM384 362l746 835q-96 74 -165 101q-71 27 -165 27q-219 0 -362 -149t-143 -443q0 -118 22 -206q17 -69 67 -165zM1250 1332l168 188l99 -84l-176 -198q86 -128 116 -224 q40 -124 40 -282q0 -226 -91 -401q-92 -177 -256 -266q-164 -90 -349 -90q-137 0 -250 39q-87 30 -201 115l-168 -188l-99 84l176 197q-98 150 -131 254q-33 106 -33 254q0 226 90 402t252 268q163 91 362 91q133 0 234 -36q102 -35 217 -123z" />
<glyph unicode="&#xd9;" horiz-adv-x="1479" d="M1051 469q0 -229 -124.5 -359t-322.5 -130q-194 0 -319 128.5t-125 329.5v951h82v-930q0 -192 101.5 -299t264.5 -107q170 0 267.5 109.5t97.5 296.5v930h78v-920zM477 1804h68q27 0 39 -23q62 -123 135 -239l-78 -4q-107 159 -164 266z" />
<glyph unicode="&#xda;" horiz-adv-x="1479" d="M1051 469q0 -229 -124.5 -359t-322.5 -130q-194 0 -319 128.5t-125 329.5v951h82v-930q0 -192 101.5 -299t264.5 -107q170 0 267.5 109.5t97.5 296.5v930h78v-920zM763 1556h-149l133 280h236z" />
<glyph unicode="&#xdb;" horiz-adv-x="1479" d="M1051 469q0 -229 -124.5 -359t-322.5 -130q-194 0 -319 128.5t-125 329.5v951h82v-930q0 -192 101.5 -299t264.5 -107q170 0 267.5 109.5t97.5 296.5v930h78v-920zM846 1556l-110 170l-113 -170h-206l216 280h192l225 -280h-204z" />
<glyph unicode="&#xdc;" horiz-adv-x="1479" d="M1051 469q0 -229 -124.5 -359t-322.5 -130q-194 0 -319 128.5t-125 329.5v951h82v-930q0 -192 101.5 -299t264.5 -107q170 0 267.5 109.5t97.5 296.5v930h78v-920zM1015 1556h-188v205h188v-205zM642 1556h-188v205h188v-205z" />
<glyph unicode="&#xdd;" horiz-adv-x="1366" d="M930 1389h90l-451 -781v-608h-82v600l-454 789h98l397 -711h4zM704 1556h-149l133 280h236z" />
<glyph unicode="&#xde;" horiz-adv-x="1366" d="M352 995v-524h379q188 0 267 70t79 196q0 90 -46 156.5t-122 87.5q-51 14 -182 14h-375zM352 0h-194v1466h194v-298h359q143 0 224 -14q108 -20 181 -70q74 -50 117 -141q44 -93 44 -200q0 -185 -119 -316q-118 -129 -430 -129h-376v-298z" />
<glyph unicode="&#xdf;" horiz-adv-x="1251" d="M333 0h-180v999q0 182 44 281q45 99 149 155t234 56q173 0 272 -87q99 -86 99 -200q0 -52 -18 -106.5t-64 -133.5q-47 -83 -58 -112q-12 -32 -12 -55q0 -32 22 -63q23 -34 121 -97q135 -87 181 -143q64 -76 64 -182q0 -139 -103 -238q-102 -99 -262 -99q-127 0 -221 67 q-96 69 -142 174l155 72q48 -89 97.5 -127t107.5 -38q77 0 130 52q54 53 54 122q0 55 -32 96q-23 28 -112 88q-166 113 -205 171q-40 56 -40 117q0 40 13 79q12 36 65 128q50 84 68 132q16 42 16 78q0 61 -55 109q-56 48 -145 48q-108 0 -175 -66q-68 -66 -68 -286v-991z " />
<glyph unicode="&#xe0;" d="M469 1008q156 0 240 -86.5t84 -241.5v-680h-76l-6 186h-4q-43 -97 -125 -151.5t-181 -54.5q-127 0 -216 86.5t-89 222.5q0 159 120.5 247.5t305.5 88.5q89 0 189 -17v45q0 146 -62.5 214.5t-202.5 68.5q-114 0 -233 -51l-8 69q132 54 264 54zM711 410v131q-69 16 -170 16 q-161 0 -258 -65t-97 -193q0 -116 67.5 -184t172.5 -68q124 0 204.5 101.5t80.5 261.5zM338 1442h68q27 0 39 -23q62 -123 135 -239l-78 -4q-107 159 -164 266z" />
<glyph unicode="&#xe1;" d="M536 1175h-68q57 107 164 266l78 -4q-73 -116 -135 -239q-12 -23 -39 -23zM711 541v-131q0 -160 -80.5 -261.5t-204.5 -101.5q-105 0 -172.5 68t-67.5 184q0 128 97 193t258 65q101 0 170 -16zM469 1008q-132 0 -264 -54l8 -69q119 51 233 51q140 0 202.5 -68.5 t62.5 -214.5v-45q-100 17 -189 17q-185 0 -305.5 -88.5t-120.5 -247.5q0 -136 89 -222.5t216 -86.5q99 0 181 54.5t125 151.5h4l6 -186h76v680q0 155 -84 241.5t-240 86.5z" />
<glyph unicode="&#xe2;" d="M469 1008q156 0 240 -86.5t84 -241.5v-680h-76l-6 186h-4q-43 -97 -125 -151.5t-181 -54.5q-127 0 -216 86.5t-89 222.5q0 159 120.5 247.5t305.5 88.5q89 0 189 -17v45q0 146 -62.5 214.5t-202.5 68.5q-114 0 -233 -51l-8 69q132 54 264 54zM711 410v131q-69 16 -170 16 q-161 0 -258 -65t-97 -193q0 -116 67.5 -184t172.5 -68q124 0 204.5 101.5t80.5 261.5zM676 1194l-110 170l-113 -170h-206l216 280h192l225 -280h-204z" />
<glyph unicode="&#xe3;" d="M469 1008q156 0 240 -86.5t84 -241.5v-680h-76l-6 186h-4q-43 -97 -125 -151.5t-181 -54.5q-127 0 -216 86.5t-89 222.5q0 159 120.5 247.5t305.5 88.5q89 0 189 -17v45q0 146 -62.5 214.5t-202.5 68.5q-114 0 -233 -51l-8 69q132 54 264 54zM711 410v131q-69 16 -170 16 q-161 0 -258 -65t-97 -193q0 -116 67.5 -184t172.5 -68q124 0 204.5 101.5t80.5 261.5zM362 1219h-133q-2 104 57 166q57 62 146 62q62 0 169 -54q59 -30 94 -30q33 0 49.5 18.5t23.5 68.5h130q-3 -111 -56 -169.5t-140 -58.5q-62 0 -166 56q-68 36 -98 36q-34 0 -55 -24 q-23 -24 -21 -71z" />
<glyph unicode="&#xe4;" d="M469 1008q156 0 240 -86.5t84 -241.5v-680h-76l-6 186h-4q-43 -97 -125 -151.5t-181 -54.5q-127 0 -216 86.5t-89 222.5q0 159 120.5 247.5t305.5 88.5q89 0 189 -17v45q0 146 -62.5 214.5t-202.5 68.5q-114 0 -233 -51l-8 69q132 54 264 54zM711 410v131q-69 16 -170 16 q-161 0 -258 -65t-97 -193q0 -116 67.5 -184t172.5 -68q124 0 204.5 101.5t80.5 261.5zM844 1270h-188v205h188v-205zM471 1270h-188v205h188v-205z" />
<glyph unicode="&#xe5;" d="M469 1008q156 0 240 -86.5t84 -241.5v-680h-76l-6 186h-4q-43 -97 -125 -151.5t-181 -54.5q-127 0 -216 86.5t-89 222.5q0 159 120.5 247.5t305.5 88.5q89 0 189 -17v45q0 146 -62.5 214.5t-202.5 68.5q-114 0 -233 -51l-8 69q132 54 264 54zM711 410v131q-69 16 -170 16 q-161 0 -258 -65t-97 -193q0 -116 67.5 -184t172.5 -68q124 0 204.5 101.5t80.5 261.5zM459 1337q0 -48 31 -79q32 -32 75 -32q42 0 74 32t32 77q0 46 -31 77q-32 32 -75 32t-75 -32q-31 -31 -31 -75zM383 1338q0 73 53 126q55 53 127 53q75 0 127 -54q53 -53 53 -129 q0 -77 -53 -130t-126 -53q-75 0 -128 53q-53 55 -53 134z" />
<glyph unicode="&#xe6;" horiz-adv-x="1821" d="M793 533q-78 -34 -322 -73q-109 -16 -153 -51q-59 -47 -59 -123q0 -70 53 -120q52 -48 154 -48q114 0 200 57q87 58 112 142q15 53 15 216zM969 633h584q-14 154 -88 229t-200 75q-125 0 -207 -80q-80 -80 -89 -224zM1546 349l188 -24q-51 -168 -171 -258.5t-297 -90.5 q-127 0 -222.5 48t-172.5 150q-104 -102 -210.5 -150t-229.5 -48q-173 0 -268 88q-95 89 -95 216q0 87 49 161q49 76 138 115q86 38 283 64q143 19 252 49q1 17 1 41q0 126 -53 176q-52 51 -183 51q-87 0 -147 -21q-61 -21 -89 -60q-27 -36 -47 -123l-175 21q29 120 80 185 q54 70 152 108.5t228 38.5q166 0 269 -50q58 -28 99 -93q66 72 147.5 107.5t193.5 35.5q162 0 268 -79q105 -77 155 -207q49 -128 49 -254q0 -5 -2 -61h-767q1 -144 35 -209q36 -67 107 -109q73 -43 162 -43q103 0 174.5 59t98.5 166z" />
<glyph unicode="&#xe7;" horiz-adv-x="1024" d="M186 506q0 -212 109.5 -333.5t292.5 -121.5q104 0 256 55l8 -69q-126 -57 -293 -57q-129 0 -234 61t-167 176.5t-62 265.5q0 247 138 384t356 137q86 0 160 -17t112 -43l-8 -70q-119 58 -260 58q-181 0 -294.5 -110.5t-113.5 -315.5zM411 -134l52 177h134l-33 -107 q81 -9 126 -50.5t45 -96.5q0 -75 -72 -132q-71 -58 -217 -58q-82 0 -144 12l11 117q57 -4 94 -4q94 0 132 26q29 20 29 49q-4 22 -11.5 33t-43 22t-102.5 12z" />
<glyph unicode="&#xe8;" d="M901 578q0 -46 -6 -89h-713q0 -207 103 -322.5t282 -115.5q129 0 240 51l8 -69q-117 -53 -278 -53q-91 0 -169.5 31t-140 91.5t-96.5 159t-35 223.5q0 105 33.5 200.5t92 166.5t144.5 113.5t185 42.5q111 0 192 -60t119.5 -156t38.5 -214zM186 557h631q0 174 -72 276.5 t-213 102.5q-146 0 -241.5 -111t-104.5 -268zM309 1442h68q27 0 39 -23q62 -123 135 -239l-78 -4q-107 159 -164 266z" />
<glyph unicode="&#xe9;" d="M536 1175h-68q57 107 164 266l78 -4q-73 -116 -135 -239q-12 -23 -39 -23zM817 557h-631q9 157 104.5 268t241.5 111q141 0 213 -102.5t72 -276.5zM901 578q0 118 -38.5 214t-119.5 156t-192 60q-99 0 -185 -42.5t-144.5 -113.5t-92 -166.5t-33.5 -200.5 q0 -125 35 -223.5t96.5 -159t140 -91.5t169.5 -31q161 0 278 53l-8 69q-111 -51 -240 -51q-179 0 -282 115.5t-103 322.5h713q6 43 6 89z" />
<glyph unicode="&#xea;" d="M901 578q0 -46 -6 -89h-713q0 -207 103 -322.5t282 -115.5q129 0 240 51l8 -69q-117 -53 -278 -53q-91 0 -169.5 31t-140 91.5t-96.5 159t-35 223.5q0 105 33.5 200.5t92 166.5t144.5 113.5t185 42.5q111 0 192 -60t119.5 -156t38.5 -214zM186 557h631q0 174 -72 276.5 t-213 102.5q-146 0 -241.5 -111t-104.5 -268zM677 1194l-110 170l-113 -170h-206l216 280h192l225 -280h-204z" />
<glyph unicode="&#xeb;" d="M901 578q0 -46 -6 -89h-713q0 -207 103 -322.5t282 -115.5q129 0 240 51l8 -69q-117 -53 -278 -53q-91 0 -169.5 31t-140 91.5t-96.5 159t-35 223.5q0 105 33.5 200.5t92 166.5t144.5 113.5t185 42.5q111 0 192 -60t119.5 -156t38.5 -214zM186 557h631q0 174 -72 276.5 t-213 102.5q-146 0 -241.5 -111t-104.5 -268zM845 1270h-188v205h188v-205zM472 1270h-188v205h188v-205z" />
<glyph unicode="&#xec;" horiz-adv-x="569" d="M378 0h-180v1062h180v-1062zM34 1442h68q27 0 39 -23q62 -123 135 -239l-78 -4q-107 159 -164 266z" />
<glyph unicode="&#xed;" horiz-adv-x="569" d="M316 1175h-68q57 107 164 266l78 -4q-73 -116 -135 -239q-12 -23 -39 -23zM246 983v-983h82v983h-82z" />
<glyph unicode="&#xee;" horiz-adv-x="569" d="M378 0h-180v1062h180v-1062zM412 1194l-110 170l-113 -170h-206l216 280h192l225 -280h-204z" />
<glyph unicode="&#xef;" horiz-adv-x="569" d="M378 0h-180v1062h180v-1062zM570 1270h-188v205h188v-205zM197 1270h-188v205h188v-205z" />
<glyph unicode="&#xf0;" d="M870 529q0 191 -91 293t-222 102q-129 0 -215 -102q-85 -100 -85 -310q0 -194 87 -292q89 -98 219 -98q129 0 217 103q90 103 90 304zM308 1466h217q75 -56 125 -102l214 102l45 -102l-172 -83q320 -368 320 -760q0 -254 -139 -400q-140 -146 -354 -146q-255 0 -398 194 q-93 127 -93 348q0 261 129 403t323 142q59 0 102 -12t110 -47q-34 70 -63 113q-31 47 -79 100l-275 -127l-44 103l239 109q-97 90 -207 165z" />
<glyph unicode="&#xf1;" d="M258 786h4q56 107 148 164.5t202 57.5q152 0 227.5 -100t75.5 -263v-645h-81v614q0 158 -57.5 239t-192.5 81q-139 0 -232.5 -103t-93.5 -249v-582h-82v987h76zM395 1219h-133q-2 104 57 166q57 62 146 62q63 0 169 -54q58 -30 94 -30q33 0 49.5 18.5t23.5 68.5h130 q-3 -111 -56 -169.5t-140 -58.5q-62 0 -166 56q-67 36 -98 36q-34 0 -55 -24q-23 -24 -21 -71z" />
<glyph unicode="&#xf2;" d="M96 492q0 232 127 372t322 140q194 0 321 -140t127 -372q0 -233 -126.5 -372.5t-321.5 -139.5t-322 140t-127 372zM186 492q0 -200 96.5 -320.5t262.5 -120.5t262 120t96 321q0 200 -96 320t-262 120t-262.5 -120t-96.5 -320zM310 1442h68q27 0 39 -23q62 -123 135 -239 l-78 -4q-107 159 -164 266z" />
<glyph unicode="&#xf3;" d="M596 1175h-68q57 107 164 266l78 -4q-73 -116 -135 -239q-12 -23 -39 -23zM186 492q0 200 96.5 320t262.5 120t262 -120t96 -320q0 -201 -96 -321t-262 -120t-262.5 120.5t-96.5 320.5zM96 492q0 -232 127 -372t322 -140t321.5 139.5t126.5 372.5q0 232 -127 372 t-321 140q-195 0 -322 -140t-127 -372z" />
<glyph unicode="&#xf4;" d="M96 492q0 232 127 372t322 140q194 0 321 -140t127 -372q0 -233 -126.5 -372.5t-321.5 -139.5t-322 140t-127 372zM186 492q0 -200 96.5 -320.5t262.5 -120.5t262 120t96 321q0 200 -96 320t-262 120t-262.5 -120t-96.5 -320zM678 1194l-110 170l-113 -170h-206l216 280 h192l225 -280h-204z" />
<glyph unicode="&#xf5;" d="M96 492q0 232 127 372t322 140q194 0 321 -140t127 -372q0 -233 -126.5 -372.5t-321.5 -139.5t-322 140t-127 372zM186 492q0 -200 96.5 -320.5t262.5 -120.5t262 120t96 321q0 200 -96 320t-262 120t-262.5 -120t-96.5 -320zM364 1219h-133q-2 104 57 166q57 62 146 62 q62 0 169 -54q59 -30 94 -30q33 0 49.5 18.5t23.5 68.5h130q-3 -111 -56 -169.5t-140 -58.5q-62 0 -166 56q-68 36 -98 36q-34 0 -55 -24q-23 -24 -21 -71z" />
<glyph unicode="&#xf6;" d="M96 492q0 232 127 372t322 140q194 0 321 -140t127 -372q0 -233 -126.5 -372.5t-321.5 -139.5t-322 140t-127 372zM186 492q0 -200 96.5 -320.5t262.5 -120.5t262 120t96 321q0 200 -96 320t-262 120t-262.5 -120t-96.5 -320zM846 1270h-188v205h188v-205zM473 1270h-188 v205h188v-205z" />
<glyph unicode="&#xf7;" horiz-adv-x="1124" d="M664 319h-205v205h205v-205zM1046 807v-168h-968v168h968zM664 922h-205v205h205v-205z" />
<glyph unicode="&#xf8;" horiz-adv-x="1251" d="M893 770l-449 -583q78 -63 176 -63q139 0 229 102q91 101 91 306q0 76 -12 133q-7 40 -35 105zM366 280l452 587q-91 70 -191 70q-133 0 -223 -102t-90 -304q0 -151 52 -251zM919 999l99 128l96 -70l-107 -138q64 -87 86 -156q31 -99 31 -233q0 -300 -169 -441 q-137 -113 -330 -113q-159 0 -281 80l-105 -135l-94 71l108 141q-58 67 -84 136q-40 108 -40 247q0 302 147 435q147 135 345 135q80 0 149 -20.5t149 -66.5z" />
<glyph unicode="&#xf9;" d="M815 201h-4q-58 -108 -149.5 -164.5t-200.5 -56.5q-78 0 -137.5 27.5t-95 77t-53 114t-17.5 143.5v641h82v-610q0 -158 57 -239t192 -81q138 0 232 103.5t94 249.5v577h82v-983h-76zM351 1442h68q27 0 39 -23q62 -123 135 -239l-78 -4q-107 159 -164 266z" />
<glyph unicode="&#xfa;" d="M556 1175h-68q57 107 164 266l78 -4q-73 -116 -135 -239q-12 -23 -39 -23zM811 201h4l6 -201h76v983h-82v-577q0 -146 -94 -249.5t-232 -103.5q-135 0 -192 81t-57 239v610h-82v-641q0 -79 17.5 -143.5t53 -114t95 -77t137.5 -27.5q109 0 200.5 56.5t149.5 164.5z" />
<glyph unicode="&#xfb;" d="M815 201h-4q-58 -108 -149.5 -164.5t-200.5 -56.5q-78 0 -137.5 27.5t-95 77t-53 114t-17.5 143.5v641h82v-610q0 -158 57 -239t192 -81q138 0 232 103.5t94 249.5v577h82v-983h-76zM674 1194l-110 170l-113 -170h-206l216 280h192l225 -280h-204z" />
<glyph unicode="&#xfc;" d="M815 201h-4q-58 -108 -149.5 -164.5t-200.5 -56.5q-78 0 -137.5 27.5t-95 77t-53 114t-17.5 143.5v641h82v-610q0 -158 57 -239t192 -81q138 0 232 103.5t94 249.5v577h82v-983h-76zM842 1270h-188v205h188v-205zM469 1270h-188v205h188v-205z" />
<glyph unicode="&#xfd;" horiz-adv-x="1024" d="M516 -6q-79 -195 -175.5 -290t-242.5 -126l-8 74q116 26 196 98.5t138 216.5l12 31l-397 985h88l350 -893h4l353 893h81zM569 1194h-149l133 280h236z" />
<glyph unicode="&#xfe;" d="M298 525q0 -205 83 -303t201 -98q119 0 205 101q86 103 86 315q0 204 -84 304q-83 101 -199 101t-204 -108q-88 -106 -88 -312zM315 -407h-180v1873h180v-516q74 77 128 102q71 34 164 34q137 0 240 -70q105 -71 157 -198q53 -129 53 -279q0 -162 -59 -294 q-58 -130 -170 -200q-111 -69 -233 -69q-83 0 -154 33q-53 25 -126 101v-517z" />
<glyph unicode="&#xff;" horiz-adv-x="1024" d="M516 -6q-79 -195 -175.5 -290t-242.5 -126l-8 74q116 26 196 98.5t138 216.5l12 31l-397 985h88l350 -893h4l353 893h81zM804 1270h-188v205h188v-205zM431 1270h-188v205h188v-205z" />
<glyph unicode="&#x131;" horiz-adv-x="569" d="M378 0h-180v1062h180v-1062z" />
<glyph unicode="&#x152;" horiz-adv-x="2048" d="M720 1334q-100 0 -197 -65q-98 -66 -146 -199.5t-48 -349.5q0 -304 115 -446q116 -143 276 -143q161 0 275 142q115 142 115 472q0 305 -116 447q-115 142 -274 142zM1302 173h681v-173h-862v212q-135 -237 -400 -237q-302 0 -456 232q-136 205 -136 528q0 322 142 539 t450 217q264 0 400 -223v198h831v-173h-650v-448h599v-172h-599v-500z" />
<glyph unicode="&#x153;" horiz-adv-x="1933" d="M1080 631h587q-12 150 -92 229q-79 78 -197 78q-121 0 -204 -82q-84 -84 -94 -225zM267 533q0 -185 71 -283q92 -126 239 -126q130 0 221 106q92 107 92 305q0 197 -91 300t-222 103q-87 0 -160 -49q-71 -48 -110.5 -143.5t-39.5 -212.5zM978 175q-152 -199 -396 -199 q-225 0 -363 143q-137 143 -137 399q0 170 58 302q58 133 178 200q120 66 266 66q136 0 240 -58q104 -59 154 -145q65 95 166 149t223 54q220 0 356 -151q136 -150 134 -452h-784q3 -167 92 -263t224 -96q100 0 171 56t103 166l180 -26q-43 -166 -160.5 -255t-296.5 -89 q-133 0 -239 52t-169 147z" />
<glyph unicode="&#x178;" horiz-adv-x="1366" d="M930 1389h90l-451 -781v-608h-82v600l-454 789h98l397 -711h4zM958 1556h-188v205h188v-205zM585 1556h-188v205h188v-205z" />
<glyph unicode="&#x2c6;" horiz-adv-x="682" d="M454 1194l-110 170l-113 -170h-206l216 280h192l225 -280h-204z" />
<glyph unicode="&#x2dc;" horiz-adv-x="682" d="M140 1219h-133q-2 104 57 166q57 62 146 62q62 0 169 -54q59 -30 94 -30q33 0 49.5 18.5t23.5 68.5h130q-3 -111 -56 -169.5t-140 -58.5q-62 0 -166 56q-68 36 -98 36q-34 0 -55 -24q-23 -24 -21 -71z" />
<glyph unicode="&#x2000;" horiz-adv-x="918" />
<glyph unicode="&#x2001;" horiz-adv-x="1836" />
<glyph unicode="&#x2002;" horiz-adv-x="918" />
<glyph unicode="&#x2003;" horiz-adv-x="1836" />
<glyph unicode="&#x2004;" horiz-adv-x="612" />
<glyph unicode="&#x2005;" horiz-adv-x="459" />
<glyph unicode="&#x2006;" horiz-adv-x="306" />
<glyph unicode="&#x2007;" horiz-adv-x="306" />
<glyph unicode="&#x2008;" horiz-adv-x="229" />
<glyph unicode="&#x2009;" horiz-adv-x="367" />
<glyph unicode="&#x200a;" horiz-adv-x="102" />
<glyph unicode="&#x2010;" horiz-adv-x="735" d="M575 555v-61h-415v61h415z" />
<glyph unicode="&#x2011;" horiz-adv-x="735" d="M575 555v-61h-415v61h415z" />
<glyph unicode="&#x2012;" horiz-adv-x="735" d="M575 555v-61h-415v61h415z" />
<glyph unicode="&#x2013;" d="M1135 458h-1139v145h1139v-145z" />
<glyph unicode="&#x2014;" horiz-adv-x="2048" d="M2048 458h-2048v145h2048v-145z" />
<glyph unicode="&#x2018;" horiz-adv-x="455" d="M227 1220h94v-209h-193v165q0 133 32 194q43 81 133 121l44 -70q-56 -24 -81.5 -69.5t-28.5 -131.5z" />
<glyph unicode="&#x2019;" horiz-adv-x="455" d="M218 1272h-94v209h193v-165q0 -135 -31 -193q-44 -82 -134 -122l-44 71q54 22 80.5 69.5t29.5 130.5z" />
<glyph unicode="&#x201a;" horiz-adv-x="455" d="M218 0h-94v209h193v-165q0 -135 -31 -193q-44 -82 -134 -122l-44 71q54 22 80.5 69.5t29.5 130.5z" />
<glyph unicode="&#x201c;" horiz-adv-x="682" d="M492 1220h94v-209h-193v165q0 133 32 194q43 81 133 121l44 -70q-56 -24 -81.5 -69.5t-28.5 -131.5zM182 1220h94v-209h-193v165q0 133 32 194q43 81 133 121l44 -70q-56 -24 -81.5 -69.5t-28.5 -131.5z" />
<glyph unicode="&#x201d;" horiz-adv-x="682" d="M491 1272h-94v209h193v-165q0 -135 -31 -193q-44 -82 -134 -122l-44 71q54 22 80.5 69.5t29.5 130.5zM181 1272h-94v209h193v-165q0 -135 -31 -193q-44 -82 -134 -122l-44 71q54 22 80.5 69.5t29.5 130.5z" />
<glyph unicode="&#x201e;" horiz-adv-x="682" d="M491 0h-94v209h193v-165q0 -135 -31 -193q-44 -82 -134 -122l-44 71q54 22 80.5 69.5t29.5 130.5zM181 0h-94v209h193v-165q0 -135 -31 -193q-44 -82 -134 -122l-44 71q54 22 80.5 69.5t29.5 130.5z" />
<glyph unicode="&#x2022;" horiz-adv-x="717" d="M109 718q0 105 74 179q76 74 179 74q105 0 179 -74q75 -73 75 -179q0 -105 -75 -180q-74 -74 -179 -74t-179 74t-74 180z" />
<glyph unicode="&#x2026;" horiz-adv-x="2048" d="M1810 0h-206v205h206v-205zM1127 0h-205v205h205v-205zM444 0h-205v205h205v-205z" />
<glyph unicode="&#x202f;" horiz-adv-x="367" />
<glyph unicode="&#x2039;" horiz-adv-x="682" d="M556 984l-265 -457l265 -455h-149l-315 455l315 457h149z" />
<glyph unicode="&#x203a;" horiz-adv-x="682" d="M92 72l265 458l-265 454h149l304 -448l-304 -464h-149z" />
<glyph unicode="&#x205f;" horiz-adv-x="459" />
<glyph unicode="&#x20ac;" d="M790 1325q-168 0 -282 -81q-68 -48 -123 -136q-56 -92 -66 -173h682l-27 -134h-671q-1 -14 -1 -40q0 -82 1 -92h644l-28 -134h-595q42 -229 202 -325q116 -69 249 -69q186 0 292 98v-206q-123 -58 -276 -58q-452 0 -611 376q-34 82 -55 184h-153l28 134h105q-3 42 -3 91 q0 27 1 41h-131l28 134h116q61 325 323 468q160 88 355 88q186 0 313 -81l-40 -186q-122 101 -277 101z" />
<glyph unicode="&#x2122;" horiz-adv-x="2048" d="M1107 651h-125v815h200l206 -651l199 651h196v-815h-124v684l-210 -684h-123l-219 694v-694zM625 651h-136v694h-264v121h666v-121h-266v-694z" />
<glyph unicode="&#xe000;" horiz-adv-x="985" d="M0 985h985v-985h-985v985z" />
<glyph unicode="&#xfb01;" horiz-adv-x="1024" d="M885 0h-180v1062h180v-1062zM885 1259h-180v207h180v-207zM363 0h-180v923h-160v139h160v103q0 326 283 326q97 0 183 -23l-28 -152q-53 9 -97 9q-93 0 -127 -37t-34 -157v-69h206v-139h-206v-923z" />
<glyph unicode="&#xfb02;" horiz-adv-x="1024" d="M883 0h-180v1466h180v-1466zM363 0h-180v923h-160v139h160v103q0 326 283 326q97 0 183 -23l-28 -152q-53 9 -97 9q-93 0 -127 -37t-34 -157v-69h206v-139h-206v-923z" />
<glyph unicode="&#xfb03;" horiz-adv-x="1716" d="M1458 0v983h82v-983h-82zM1499 1182q-26 0 -43.5 17.5t-17.5 43.5t17.5 44t43.5 18t44 -18t18 -44t-18 -43.5t-44 -17.5zM877 1085q0 199 94 304.5t239 105.5q79 0 129 -29l-8 -65q-55 22 -123 22q-114 0 -182 -79t-68 -234v-127h263v-72h-263v-911h-81v911h-162v72h162 v102zM236 1085q0 199 94 304.5t239 105.5q79 0 129 -29l-8 -65q-55 22 -123 22q-114 0 -182 -79t-68 -234v-127h263v-72h-263v-911h-81v911h-162v72h162v102z" />
<glyph unicode="&#xfb04;" horiz-adv-x="1716" d="M1540 0h-82v1475h82v-1475zM877 1085q0 199 94 304.5t239 105.5q79 0 129 -29l-8 -65q-55 22 -123 22q-114 0 -182 -79t-68 -234v-127h263v-72h-263v-911h-81v911h-162v72h162v102zM236 1085q0 199 94 304.5t239 105.5q79 0 129 -29l-8 -65q-55 22 -123 22 q-114 0 -182 -79t-68 -234v-127h263v-72h-263v-911h-81v911h-162v72h162v102z" />
<glyph horiz-adv-x="569" />
</font>
</defs>
</svg>
