<?xml version="1.0" standalone="no"?>
<!DOCTYPE svg PUBLIC "-//W3C//DTD SVG 1.1//EN" "http://www.w3.org/Graphics/SVG/1.1/DTD/svg11.dtd" >
<svg xmlns="http://www.w3.org/2000/svg">
<metadata>
This is a custom SVG webfont generated by Font Squirrel.
Copyright   : 2006 The Monotype Corporation All Rights Reserved
Designer    : Monotype Type Drawing Office  Robin Nicholas Patricia Saunders 1982
Foundry     : The Monotype Corporation
</metadata>
<defs>
<font id="webfontBD0WW2cC" horiz-adv-x="1139" >
<font-face units-per-em="2048" ascent="1638" descent="-410" />
<missing-glyph horiz-adv-x="569" />
<glyph unicode=" "  horiz-adv-x="569" />
<glyph unicode="&#x09;" horiz-adv-x="569" />
<glyph unicode="&#xa0;" horiz-adv-x="569" />
<glyph unicode="!" horiz-adv-x="549" d="M274 238q54 0 91.5 -38t37.5 -91q0 -54 -37.5 -91.5t-91.5 -37.5q-53 0 -91 37.5t-38 91.5q0 53 38 91t91 38zM377 389h-205l-16 1000h237z" />
<glyph unicode="&#x22;" horiz-adv-x="719" d="M596 909h-158l-8 461q-1 33 24 52.5t62 19.5h119zM264 909h-158l-8 461q0 33 25 52.5t61 19.5h119z" />
<glyph unicode="#" horiz-adv-x="1057" d="M977 799h-195l-41 -252h183v-123h-201l-59 -352h-140l58 352h-187l-59 -352h-139l57 352h-174v123h192l41 252h-180v123h201l57 354h141l-57 -354h187l57 354h141l-57 -354h174v-123zM600 547l41 252h-186l-41 -252h186z" />
<glyph unicode="$" horiz-adv-x="1116" d="M950 446q0 -143 -89 -244t-245 -130v-209h-167v196q-159 7 -289 76l24 187q146 -78 308 -78q102 0 159.5 42.5t57.5 106.5q0 76 -44 116.5t-167 84.5q-158 56 -237 136.5t-79 219.5q0 124 83 207.5t208 108.5v219h168v-211q152 -7 240 -68l-23 -178q-48 30 -119.5 49 t-136.5 19q-77 0 -126.5 -33.5t-49.5 -89.5q0 -60 36.5 -101t123.5 -71q204 -72 284 -150.5t80 -204.5z" />
<glyph unicode="%" horiz-adv-x="1745" d="M1292 676q149 0 243.5 -99t94.5 -249q0 -151 -94.5 -249.5t-243.5 -98.5t-243.5 99t-94.5 249t94.5 249t243.5 99zM1292 147q67 0 102.5 46.5t35.5 134.5q0 87 -35.5 133.5t-102.5 46.5t-102 -46.5t-35 -133.5q0 -88 35 -134.5t102 -46.5zM453 1368q149 0 243.5 -99 t94.5 -249t-94.5 -249t-243.5 -99t-243.5 98.5t-94.5 249.5t94.5 249.5t243.5 98.5zM453 840q67 0 102 46t35 134t-35 134t-102 46q-138 0 -138 -180t138 -180zM1260 1409h167l-942 -1450h-168z" />
<glyph unicode="&#x26;" horiz-adv-x="1464" d="M1409 0h-307l-80 102h-4q-150 -122 -436 -122q-134 0 -245.5 43t-182 133t-70.5 211q0 139 81.5 236.5t250.5 187.5v4q-85 84 -127.5 153t-42.5 152q0 132 112 220.5t265 88.5q158 0 261 -88.5t103 -208.5q0 -108 -70 -197.5t-182 -154.5v-4l307 -344h5q79 120 86 276 h225q-6 -121 -58.5 -250t-115.5 -192zM616 1233q-55 0 -89.5 -31.5t-34.5 -91.5q0 -55 31 -104.5t89 -108.5h4q68 55 96.5 96.5t28.5 96.5q0 65 -34.5 104t-90.5 39zM602 162q86 0 165.5 21.5t129.5 64.5v4l-350 405h-4q-115 -61 -162 -118t-47 -154q0 -102 74 -162.5 t194 -60.5z" />
<glyph unicode="'" horiz-adv-x="387" d="M264 909h-158l-8 461q0 33 25 52.5t61 19.5h119z" />
<glyph unicode="(" horiz-adv-x="629" d="M152 629q0 227 65 445t160 376h168q-193 -428 -193 -821q0 -392 193 -822h-168q-96 159 -160.5 377t-64.5 445z" />
<glyph unicode=")" horiz-adv-x="629" d="M477 629q0 -227 -64.5 -445t-160.5 -377h-168q192 428 192 822q0 395 -192 821h168q95 -158 160 -376t65 -445z" />
<glyph unicode="*" horiz-adv-x="1020" d="M512 883h-4l-158 -275l-147 107l213 235v4l-312 64l56 176l289 -131h4l-35 317h184l-35 -317h4l289 131l55 -176l-311 -64v-4l213 -235l-147 -107z" />
<glyph unicode="+" horiz-adv-x="1221" d="M1118 610v-168h-416v-442h-184v442h-416v168h416v439h184v-439h416z" />
<glyph unicode="," horiz-adv-x="483" d="M125 123q9 36 44 59t85 23h125q-97 -286 -195 -516l-192 -27q66 212 133 461z" />
<glyph unicode="-" horiz-adv-x="782" d="M653 610v-168h-524v168h524z" />
<glyph unicode="." horiz-adv-x="467" d="M233 238q54 0 91.5 -38t37.5 -91q0 -54 -37.5 -91.5t-91.5 -37.5q-53 0 -91 37.5t-38 91.5q0 53 38 91t91 38z" />
<glyph unicode="/" horiz-adv-x="821" d="M631 1434h200l-641 -1510h-200z" />
<glyph unicode="0" horiz-adv-x="1114" d="M557 1368q159 0 276.5 -95.5t175.5 -251t58 -347.5t-58 -347.5t-175.5 -251t-276.5 -95.5t-276.5 95.5t-175.5 251t-58 347.5t58 347.5t175.5 251t276.5 95.5zM557 162q122 0 191 140t69 372t-69 372t-191 140q-123 0 -191.5 -140t-68.5 -372t68.5 -372t191.5 -140z" />
<glyph unicode="1" horiz-adv-x="1114" d="M608 1348h113v-1348h-225v1106l-263 -92l-22 178z" />
<glyph unicode="2" horiz-adv-x="1114" d="M969 182v-182h-871v186l178 185l140 145l106 114q56 62 81 98t49 78.5t32 76t8 71.5q0 106 -59 169t-180 63q-134 0 -275 -72l-24 180q173 74 329 74q220 0 339.5 -104t119.5 -269q0 -55 -10.5 -104.5t-39.5 -104.5t-56 -98q-28 -42 -86 -110l-103 -116l-129 -136 l-133 -140v-4h584z" />
<glyph unicode="3" horiz-adv-x="1114" d="M442 -20q-199 0 -336 75l23 178q160 -71 324 -71q131 0 206.5 56.5t75.5 154.5q0 89 -84 151.5t-237 69.5v174q129 9 206.5 73.5t77.5 157.5q0 85 -63.5 136t-163.5 51q-127 0 -256 -66l-22 178q157 70 335 70q183 0 301.5 -91t118.5 -235q0 -119 -85 -202.5t-212 -120.5 v-4q148 -27 241 -115t93 -215q0 -190 -151 -297.5t-392 -107.5z" />
<glyph unicode="4" horiz-adv-x="1114" d="M903 485h203v-182h-203v-303h-225v303h-639v186l620 859h244v-863zM293 485h385v211q0 236 6 365h-4q-143 -245 -387 -572v-4z" />
<glyph unicode="5" horiz-adv-x="1114" d="M379 799q99 41 188 41q201 0 320 -107.5t119 -292.5q0 -215 -154.5 -337.5t-396.5 -122.5q-93 0 -189 24t-166 64l23 178q185 -84 342 -84q126 0 208.5 68t82.5 192q0 105 -59.5 170t-170.5 65q-99 0 -176 -49l-192 6l22 734h742v-183h-539l-10 -366h6z" />
<glyph unicode="6" horiz-adv-x="1114" d="M551 -20q-215 0 -344 148.5t-129 395.5q0 176 64.5 329.5t175 261.5t258 174.5t313.5 78.5l22 -178q-453 -52 -579 -451h4q53 61 123 95t145 34q200 0 318 -117t118 -298q0 -107 -41 -197.5t-109.5 -150t-156.5 -92.5t-182 -33zM551 686q-98 0 -161.5 -67t-63.5 -177 q0 -124 67 -202t168 -78q95 0 161 70.5t66 189.5q0 121 -64 192.5t-173 71.5z" />
<glyph unicode="7" horiz-adv-x="1114" d="M1012 1348v-189l-523 -1159h-229l528 1161v4h-661v183h885z" />
<glyph unicode="8" horiz-adv-x="1114" d="M756 705q135 -72 198.5 -153t63.5 -179q0 -97 -39.5 -173.5t-105.5 -123.5t-148.5 -71.5t-173.5 -24.5q-92 0 -173 23t-145 67t-101.5 115.5t-37.5 162.5q0 119 79.5 204.5t203.5 137.5v4q-111 60 -165 137t-54 185q0 101 59.5 182.5t156.5 125.5t210 44 q180 0 293.5 -98.5t113.5 -241.5q0 -98 -61 -179t-174 -140v-4zM399 1030q0 -152 176 -237q175 88 175 221q0 72 -49.5 125t-125.5 53q-73 0 -124.5 -47t-51.5 -115zM559 156q96 0 156.5 53.5t60.5 148.5q0 78 -52.5 140t-170.5 123q-217 -93 -217 -248q0 -96 65.5 -156.5 t157.5 -60.5z" />
<glyph unicode="9" horiz-adv-x="1114" d="M563 1368q215 0 344 -148.5t129 -396.5q0 -176 -64.5 -329.5t-175 -261t-258 -174t-313.5 -78.5l-22 178q220 24 367.5 136.5t211.5 313.5h-4q-52 -61 -122 -95t-146 -34q-200 0 -318 117.5t-118 298.5q0 107 41 197.5t109.5 150t156.5 92.5t182 33zM563 662 q98 0 161.5 67t63.5 176q0 124 -67 202.5t-168 78.5q-95 0 -161 -70.5t-66 -189.5q0 -121 64 -192.5t173 -71.5z" />
<glyph unicode=":" horiz-adv-x="467" d="M233 238q54 0 91.5 -38t37.5 -91q0 -54 -37.5 -91.5t-91.5 -37.5q-53 0 -91 37.5t-38 91.5q0 53 38 91t91 38zM233 1012q54 0 91.5 -38t37.5 -91q0 -54 -37.5 -91.5t-91.5 -37.5q-53 0 -91 37.5t-38 91.5q0 53 38 91t91 38z" />
<glyph unicode=";" horiz-adv-x="508" d="M125 123q9 36 44 59t85 23h125q-97 -286 -195 -516l-192 -27q66 212 133 461zM274 1012q54 0 91.5 -38t37.5 -91q0 -54 -37.5 -91.5t-91.5 -37.5q-53 0 -91 37.5t-38 91.5q0 53 38 91t91 38z" />
<glyph unicode="&#x3c;" horiz-adv-x="983" d="M260 518l604 -297v-207l-790 402v207l790 401v-207l-604 -293v-6z" />
<glyph unicode="=" horiz-adv-x="1346" d="M1194 219h-1042v168h1042v-168zM1194 662h-1042v167h1042v-167z" />
<glyph unicode="&#x3e;" horiz-adv-x="983" d="M723 518v6l-604 293v207l790 -401v-207l-790 -402v207z" />
<glyph unicode="?" horiz-adv-x="889" d="M520 141q0 68 -47 115t-115 47q-67 0 -114 -47t-47 -115q0 -67 46.5 -114t114.5 -47t115 46.5t47 114.5zM805 1083q0 -100 -49.5 -185.5t-186.5 -244.5q-60 -69 -82 -117t-22 -116v-31h-223v33q0 107 29.5 172.5t117.5 167.5q96 110 128 164.5t32 122.5q0 80 -57.5 129 t-153.5 49q-124 0 -252 -64l-23 178q143 68 338 68q180 0 292 -93t112 -233z" />
<glyph unicode="@" horiz-adv-x="1804" d="M1024 1214q129 0 244.5 -45.5t196 -121.5t128 -178.5t47.5 -213.5q0 -253 -116.5 -403t-298.5 -150q-169 0 -207 142h-4q-106 -156 -264 -156q-110 0 -183 83.5t-73 211.5q0 223 132 361.5t353 138.5q58 0 145 -15.5t136 -33.5l-68 -457q-23 -152 86 -152q94 0 158.5 103 t64.5 268q0 222 -140.5 363t-385.5 141q-141 0 -271 -53t-227.5 -145t-156 -224.5t-58.5 -282.5q0 -247 151 -404t382 -157q114 0 210.5 23.5t200.5 76.5l15 -112q-109 -55 -220.5 -79t-259.5 -24q-162 0 -304 81.5t-228 225.5t-86 316q0 162 48.5 303t133.5 244t199 177 t246.5 111t273.5 37zM1022 483l31 217q-45 15 -109 15q-112 0 -181 -80.5t-69 -218.5q0 -160 129 -160q74 0 128.5 58.5t70.5 168.5z" />
<glyph unicode="A" horiz-adv-x="1262" d="M993 0l-141 424h-455l-141 -424h-221l483 1389h230l483 -1389h-238zM451 606h346q-116 351 -168 576h-6q-57 -233 -172 -576z" />
<glyph unicode="B" horiz-adv-x="1133" d="M762 735q131 -27 208 -107t77 -208q0 -205 -157 -317.5t-415 -112.5q-168 0 -334 22v1360q196 27 375 27q238 0 366 -93.5t128 -261.5q0 -110 -73.5 -192.5t-174.5 -112.5v-4zM367 799h151q117 0 179.5 54t62.5 155t-63 155t-179 54q-68 0 -151 -11v-407zM508 625h-141 v-447q83 -6 157 -6q127 0 200 56t73 167t-74 170.5t-215 59.5z" />
<glyph unicode="C" horiz-adv-x="1268" d="M70 680q0 166 57.5 304.5t158.5 230.5t238 143t295 51q235 0 404 -66l-25 -184q-68 30 -170 49t-192 19q-236 0 -376.5 -138.5t-140.5 -394.5q0 -255 133 -393.5t359 -138.5q195 0 358 74l27 -189q-172 -67 -414 -67q-157 0 -286.5 45.5t-225 132t-148 220t-52.5 302.5z " />
<glyph unicode="D" horiz-adv-x="1434" d="M141 1376q215 23 428 23q380 0 587.5 -174.5t207.5 -505.5q0 -144 -47.5 -265.5t-127.5 -206t-186 -143.5t-222.5 -86.5t-237.5 -27.5q-217 0 -402 18v1368zM367 1208v-1030q91 -6 196 -6q114 0 212 32t174.5 94t120.5 164t44 232q0 251 -145.5 387t-403.5 136 q-121 0 -198 -9z" />
<glyph unicode="E" horiz-adv-x="1024" d="M381 182h567v-182h-792v1389h774v-185h-549v-397h479v-182h-479v-443z" />
<glyph unicode="F" horiz-adv-x="975" d="M381 0h-225v1389h774v-185h-549v-416h479v-182h-479v-606z" />
<glyph unicode="G" horiz-adv-x="1384" d="M813 1409q227 0 395 -66l-24 -184q-69 31 -167 49.5t-188 18.5q-236 0 -373 -136.5t-137 -396.5q0 -256 130 -389t352 -133q126 0 223 27v348h-258v182h483v-668q-219 -71 -469 -71q-154 0 -283 43.5t-224.5 128.5t-149 218.5t-53.5 303.5q0 168 56.5 305.5t156.5 229 t236 141t294 49.5z" />
<glyph unicode="H" horiz-adv-x="1415" d="M1053 1389h221v-1389h-221v625h-686v-625h-226v1389h226v-582h686v582z" />
<glyph unicode="I" horiz-adv-x="508" d="M367 0h-226v1389h226v-1389z" />
<glyph unicode="J" horiz-adv-x="807" d="M678 496q0 -141 -37 -243t-105.5 -160.5t-155.5 -85.5t-198 -27q-110 0 -190 28l24 180q78 -26 174 -26q136 0 199.5 79.5t63.5 237.5v910h225v-893z" />
<glyph unicode="K" horiz-adv-x="1153" d="M1180 1389l-580 -631l604 -758h-289l-460 596h-6l-82 -90v-506h-226v1389h226v-617h8l520 617h285z" />
<glyph unicode="L" horiz-adv-x="1014" d="M141 1389h226v-1215h624v-174h-850v1389z" />
<glyph unicode="M" horiz-adv-x="1692" d="M342 1098h-6q16 -125 16 -297q0 -62 -2 -131l-22 -670h-209l47 1389h268l268 -719q94 -251 138 -420h6q59 205 139 420l272 719h269l47 -1389h-225l-23 670q-3 80 -3 150q0 179 17 288h-6q-14 -82 -54 -208.5t-81 -229.5l-252 -629h-225l-250 629q-41 102 -80 228 t-49 200z" />
<glyph unicode="N" horiz-adv-x="1427" d="M1292 1339v-1339h-260l-401 633l-105 167q-38 61 -97 167t-91 184h-6q12 -272 12 -446v-705h-209v1389h281l403 -633q224 -350 275 -494h6q-17 146 -17 373v704h209z" />
<glyph unicode="O" horiz-adv-x="1524" d="M762 1409q133 0 255.5 -47t220.5 -134t157 -225.5t59 -308.5t-59 -308.5t-157 -225.5t-220.5 -133.5t-255.5 -46.5t-255.5 46.5t-220.5 133.5t-157 225.5t-59 308.5t59 308.5t157 225.5t220.5 134t255.5 47zM762 162q199 0 320.5 138t121.5 394q0 257 -121.5 395 t-320.5 138t-321 -138t-122 -395q0 -256 122 -394t321 -138z" />
<glyph unicode="P" horiz-adv-x="1077" d="M381 1206v-504q67 -6 121 -6q58 0 108.5 14.5t93 45t67 84t24.5 125.5q0 122 -72.5 187t-200.5 65q-76 0 -141 -11zM156 0v1368q203 31 360 31q252 0 390 -107t138 -303q0 -148 -76 -258t-197 -163.5t-267 -53.5q-76 0 -123 4v-518h-225z" />
<glyph unicode="Q" horiz-adv-x="1524" d="M1454 694q0 -245 -115.5 -414.5t-302.5 -246.5l74 -291l-217 -55l-70 299q-30 -6 -61 -6q-133 0 -255.5 46.5t-220.5 133.5t-157 225.5t-59 308.5t59 308.5t157 225.5t220.5 134t255.5 47t255.5 -47t220.5 -134t157 -225.5t59 -308.5zM762 162q199 0 320.5 138t121.5 394 q0 257 -121.5 395t-320.5 138t-321 -138t-122 -395q0 -256 122 -394t321 -138z" />
<glyph unicode="R" horiz-adv-x="1106" d="M367 754h143q132 0 207.5 63.5t75.5 186.5q0 103 -72.5 156.5t-196.5 53.5q-107 0 -157 -12v-448zM510 580h-143v-580h-226v1356q176 41 404 41q232 0 364.5 -93t132.5 -268q0 -70 -24.5 -128.5t-67 -99.5t-90 -69t-102.5 -47v-4q164 -68 211 -295q41 -200 104 -393h-252 q-41 150 -90 381q-41 199 -221 199z" />
<glyph unicode="S" horiz-adv-x="1040" d="M119 1016q0 118 66 209t173.5 137.5t237.5 46.5q210 0 319 -49l-24 -180q-114 47 -283 47q-106 0 -176 -46.5t-70 -131.5q0 -86 53 -138.5t167 -93.5q103 -37 169 -71t116 -80.5t72 -106.5t22 -141q0 -198 -145.5 -318t-383.5 -120q-194 0 -352 53l24 184 q154 -55 330 -55q129 0 207 55t78 160q0 86 -50.5 135.5t-174.5 93.5q-195 69 -285 159.5t-90 250.5z" />
<glyph unicode="T" horiz-adv-x="1061" d="M1067 1389v-185h-426v-1204h-225v1204h-422v185h1073z" />
<glyph unicode="U" horiz-adv-x="1274" d="M1149 485q0 -124 -39 -221.5t-108 -159t-161 -93t-202 -31.5q-223 0 -366.5 128.5t-143.5 337.5v943h225v-922q0 -151 81 -228t210 -77q140 0 217.5 74.5t77.5 230.5v922h209v-904z" />
<glyph unicode="V" horiz-adv-x="1186" d="M240 1389l202 -613q116 -345 162 -565h6q45 205 164 565l203 613h221l-483 -1389h-230l-483 1389h238z" />
<glyph unicode="W" horiz-adv-x="1835" d="M1622 1389h217l-416 -1389h-225l-178 666q-59 220 -94 428h-6q-37 -211 -95 -426l-178 -668h-225l-416 1389h236l182 -668q65 -236 113 -477h6q49 259 104 475l172 670h225l175 -668q62 -240 102 -475h6q43 242 109 475z" />
<glyph unicode="X" horiz-adv-x="1104" d="M1075 1389l-401 -670l432 -719h-270l-291 530h-4l-289 -530h-250l422 705l-412 684h271l268 -508h4l270 508h250z" />
<glyph unicode="Y" horiz-adv-x="1112" d="M885 1389h239l-444 -789v-600h-225v584l-457 805h260l311 -596h4z" />
<glyph unicode="Z" horiz-adv-x="1110" d="M307 174h756v-174h-1004v190l711 1020v4h-647v175h901v-189l-717 -1022v-4z" />
<glyph unicode="[" horiz-adv-x="692" d="M625 1266h-263v-1276h263v-168h-447v1612h447v-168z" />
<glyph unicode="\" horiz-adv-x="821" d="M190 1434l641 -1510h-200l-641 1510h200z" />
<glyph unicode="]" horiz-adv-x="692" d="M68 1266v168h446v-1612h-446v168h262v1276h-262z" />
<glyph unicode="^" horiz-adv-x="1151" d="M678 1380l369 -798h-205l-262 602h-7l-264 -602h-205l369 798h205z" />
<glyph unicode="_" horiz-adv-x="1169" d="M1106 -264h-1043v168h1043v-168z" />
<glyph unicode="`" horiz-adv-x="612" d="M57 1421h158q46 0 68 -39q99 -172 184 -301l-182 -8q-42 56 -111 160.5t-117 187.5z" />
<glyph unicode="a" horiz-adv-x="1028" d="M500 1016q195 0 296 -89t101 -255v-672h-219l-6 139h-4q-90 -159 -285 -159q-129 0 -221 89t-92 232q0 88 40 155.5t107 106.5t145.5 58.5t165.5 19.5q62 0 144 -12v22q0 97 -51.5 144t-163.5 47q-122 0 -256 -58l-23 170q151 62 322 62zM672 430v57q-58 11 -129 11 q-98 0 -163 -46.5t-65 -138.5q0 -81 42 -124.5t114 -43.5q87 0 144 78t57 207z" />
<glyph unicode="b" horiz-adv-x="1208" d="M371 860q127 156 325 156q202 0 319.5 -138.5t117.5 -361.5q0 -234 -125 -385t-324 -151q-104 0 -178 37t-135 118h-4l-7 -135h-219v1475h226v-615h4zM367 457q0 -142 72.5 -222.5t187.5 -80.5q130 0 197 92.5t67 253.5q0 159 -68.5 250.5t-199.5 91.5q-118 0 -187 -83 t-69 -220v-82z" />
<glyph unicode="c" horiz-adv-x="969" d="M317 502q0 -170 82 -259t226 -89q127 0 247 53l23 -170q-117 -57 -320 -57q-227 0 -363 136t-136 359q0 251 151.5 396t390.5 145q92 0 168.5 -17.5t118.5 -42.5l-22 -170q-116 56 -242 56q-149 0 -236.5 -87t-87.5 -253z" />
<glyph unicode="d" horiz-adv-x="1208" d="M838 135q-128 -155 -326 -155q-201 0 -318.5 138t-117.5 361q0 235 125 386t323 151q103 0 178 -38t136 -118h4v615h225v-1475h-219l-6 135h-4zM842 539q0 141 -72.5 222t-187.5 81q-131 0 -198 -92.5t-67 -253.5q0 -159 69 -250.5t200 -91.5q117 0 186.5 82.5 t69.5 220.5v82z" />
<glyph unicode="e" horiz-adv-x="1055" d="M307 436q9 -135 86.5 -208.5t218.5 -73.5q138 0 267 57l22 -170q-74 -34 -150 -47.5t-180 -13.5q-225 0 -360 127.5t-135 367.5q0 237 141.5 389t355.5 152q124 0 217 -62t139 -160.5t46 -215.5q0 -85 -8 -142h-660zM317 602h439q-11 240 -201 240q-99 0 -159.5 -63 t-78.5 -177z" />
<glyph unicode="f" horiz-adv-x="745" d="M225 1022q0 220 117.5 346.5t316.5 126.5q87 0 160 -29l-22 -166q-57 21 -123 21q-107 0 -165 -71t-58 -197v-58h249v-174h-249v-821h-226v821h-164v174h164v27z" />
<glyph unicode="g" horiz-adv-x="1204" d="M838 100v47h-4q-128 -155 -326 -155q-196 0 -314 137t-118 358q0 231 123 380t321 149q103 0 178 -38t136 -118h4l6 135h219v-860q0 -144 -41 -251.5t-117.5 -174t-179.5 -99t-233 -32.5q-179 0 -334 72l22 174q163 -72 309 -72q172 0 260.5 83t88.5 265zM578 842 q-127 0 -194 -89.5t-67 -248.5q0 -158 69 -248t196 -90q117 0 186.5 83t69.5 220v70q0 141 -72.5 222t-187.5 81z" />
<glyph unicode="h" horiz-adv-x="1143" d="M367 850h4q123 166 315 166q155 0 240.5 -93.5t85.5 -263.5v-659h-226v549q0 62 -3.5 104t-14.5 80.5t-31 60.5t-52.5 35t-78.5 13q-106 0 -172.5 -87.5t-66.5 -226.5v-528h-226v1475h226v-625z" />
<glyph unicode="i" horiz-adv-x="508" d="M141 0v995h226v-995h-226zM254 1110q-56 0 -94.5 39t-38.5 94t38.5 94t94.5 39t94.5 -39t38.5 -94t-38.5 -94t-94.5 -39z" />
<glyph unicode="j" horiz-adv-x="539" d="M285 1110q-55 0 -94 39t-39 94t39 94t94 39t94 -39t39 -94t-39 -94t-94 -39zM397 80q0 -128 -36 -222.5t-103.5 -151.5t-153 -87.5t-196.5 -40.5l-23 174q74 13 122.5 31.5t88 53t58 91.5t18.5 140v927h225v-915z" />
<glyph unicode="k" horiz-adv-x="1030" d="M1022 995l-410 -417l451 -578h-287l-317 420h-6l-86 -94v-326h-226v1475h226v-904h6l358 424h291z" />
<glyph unicode="l" horiz-adv-x="508" d="M367 0h-226v1475h226v-1475z" />
<glyph unicode="m" horiz-adv-x="1698" d="M942 809h6q105 207 316 207q145 0 224 -87.5t79 -250.5v-678h-226v608q0 124 -37 179t-120 55q-101 0 -159 -93t-58 -262v-487h-226v608q0 124 -37 179t-120 55q-100 0 -158.5 -95t-58.5 -260v-487h-226v995h219l7 -145h4q104 166 293 166q104 0 177 -50t101 -157z" />
<glyph unicode="n" horiz-adv-x="1143" d="M367 850h4q123 166 315 166q155 0 240.5 -93.5t85.5 -263.5v-659h-226v549q0 62 -3.5 104t-14.5 80.5t-31 60.5t-52.5 35t-78.5 13q-106 0 -172.5 -87.5t-66.5 -226.5v-528h-226v995h219z" />
<glyph unicode="o" d="M569 1016q216 0 355 -143t139 -375q0 -233 -139 -375.5t-355 -142.5t-354.5 142.5t-138.5 375.5q0 232 139 375t354 143zM569 154q119 0 185.5 89.5t66.5 254.5t-66.5 254.5t-185.5 89.5t-185.5 -89.5t-66.5 -254.5t66.5 -254.5t185.5 -89.5z" />
<glyph unicode="p" horiz-adv-x="1208" d="M371 860q127 156 325 156q202 0 319.5 -138.5t117.5 -361.5q0 -234 -125 -385t-324 -151q-104 0 -178 37t-135 118h-4v-536h-226v1396h219l7 -135h4zM367 457q0 -142 72.5 -222.5t187.5 -80.5q130 0 197 92.5t67 253.5q0 159 -68.5 250.5t-199.5 91.5q-118 0 -187 -83 t-69 -220v-82z" />
<glyph unicode="q" horiz-adv-x="1208" d="M838 135q-128 -155 -326 -155q-201 0 -318.5 138t-117.5 361q0 235 125 386t323 151q103 0 178 -38t136 -118h4l6 135h219v-1396h-225v536h-4zM842 539q0 141 -72.5 222t-187.5 81q-131 0 -198 -92.5t-67 -253.5q0 -159 69 -250.5t200 -91.5q117 0 186.5 82.5t69.5 220.5 v82z" />
<glyph unicode="r" horiz-adv-x="686" d="M664 793q-55 -3 -113 -23q-59 -21 -97 -58t-62.5 -116.5t-24.5 -202.5v-393h-226v995h219l7 -196h4q38 94 120.5 153t178.5 64z" />
<glyph unicode="s" horiz-adv-x="840" d="M385 403q-59 18 -103.5 40t-85.5 57.5t-63 89.5t-22 123q0 131 100.5 217t261.5 86q149 0 242 -45l-23 -170q-96 41 -196 41q-64 0 -107 -32t-43 -81q0 -53 27.5 -82t89.5 -49q62 -19 103.5 -36t80 -41.5t61 -53.5t35.5 -69.5t13 -92.5q0 -103 -55 -178t-144 -111 t-201 -36q-176 0 -284 53l22 172q131 -51 246 -51q86 0 133 29.5t47 84.5q0 51 -32 82.5t-103 52.5z" />
<glyph unicode="t" horiz-adv-x="766" d="M680 995v-174h-246v-526q0 -79 35.5 -110t101.5 -31q58 0 113 18l23 -166q-87 -26 -220 -26q-127 0 -202.5 64t-75.5 196v581h-162v174h162v226h225v-226h246z" />
<glyph unicode="u" horiz-adv-x="1143" d="M776 145h-4q-122 -165 -315 -165q-155 0 -240.5 93.5t-85.5 262.5v659h225v-549q0 -62 3.5 -104t14.5 -80.5t31 -60t52.5 -34.5t79.5 -13q105 0 172 87t67 226v528h225v-995h-219z" />
<glyph unicode="v" horiz-adv-x="1014" d="M791 995h225l-389 -995h-232l-387 995h242l137 -377q69 -188 129 -417h6q50 190 131 417z" />
<glyph unicode="w" horiz-adv-x="1573" d="M1341 995h226l-342 -995h-234l-110 399q-48 173 -86 369h-7q-46 -236 -83 -369l-113 -399h-234l-342 995h244l125 -407q51 -169 94 -377h6q47 225 88 377l113 407h229l113 -407q45 -160 88 -375h6q45 215 95 375z" />
<glyph unicode="x" horiz-adv-x="979" d="M956 995l-348 -477v-6l363 -512h-273l-215 350h-6l-221 -350h-254l363 500v6l-351 489h275l200 -327h7l206 327h254z" />
<glyph unicode="y" horiz-adv-x="1014" d="M618 -20q-81 -208 -188 -295t-307 -107l-23 174q127 17 189 56.5t100 142.5l12 33l-393 1011h242l137 -377q69 -188 129 -417h6q50 190 131 417l138 377h225z" />
<glyph unicode="z" horiz-adv-x="903" d="M807 815l-483 -635v-6h512v-174h-777v178l486 637v6h-439v174h701v-180z" />
<glyph unicode="{" horiz-adv-x="713" d="M135 545v168q101 1 139 41t27 129l-29 243q-19 168 83 248t296 80v-168q-105 0 -152.5 -43t-37.5 -133l28 -252q24 -202 -188 -227v-4q212 -27 188 -228l-28 -252q-10 -89 37.5 -132.5t152.5 -43.5v-168q-194 0 -296 80t-83 248l29 244q11 88 -26.5 127.5t-139.5 42.5z " />
<glyph unicode="|" horiz-adv-x="541" d="M362 -512h-184v2048h184v-2048z" />
<glyph unicode="}" horiz-adv-x="713" d="M578 545q-103 -3 -140 -42t-26 -128l28 -244q20 -167 -83 -247.5t-296 -80.5v168q105 0 153 43.5t38 132.5l-29 252q-23 201 189 228v4q-97 11 -149 65.5t-40 161.5l29 252q10 90 -38 133t-153 43v168q194 0 296.5 -80t82.5 -248l-28 -243q-11 -90 26 -129.5t140 -40.5 v-168z" />
<glyph unicode="~" horiz-adv-x="1417" d="M672 434q-148 66 -199.5 84.5t-83.5 18.5q-49 0 -77.5 -40t-28.5 -122h-168q0 167 74 248.5t208 81.5q68 0 137.5 -20.5t210.5 -82.5q147 -65 199 -83.5t84 -18.5q107 0 107 162h168q0 -168 -74.5 -249t-208.5 -81q-69 0 -138 20t-210 82z" />
<glyph unicode="&#xa1;" horiz-adv-x="682" d="M284 697h116l55 -776v-325h-223v325zM240 1062h207v-205h-207v205z" />
<glyph unicode="&#xa2;" d="M415 177l223 763q-32 3 -50 3q-83 0 -154 -46q-70 -44 -106 -138.5t-36 -223.5q0 -266 123 -358zM744 894l-222 -766q33 -9 61 -9q103 0 179 71q76 70 93 199l179 -20q-33 -185 -157 -291q-122 -106 -291 -106q-47 0 -103 14l-118 -395l-112 32l115 398q-114 55 -188 183 q-73 128 -73 322q0 179 58 305q58 127 175 192q116 64 238 64q31 0 100 -8l113 387l110 -32l-112 -387q97 -42 151 -114t75 -183l-175 -27q-26 113 -96 171z" />
<glyph unicode="&#xa3;" d="M396 809h315v-148h-284q19 -42 19 -88q0 -193 -178 -382q78 22 144 22q86 0 187 -25q175 -41 233 -41q72 0 192 56l58 -165q-91 -39 -143 -51q-49 -12 -100 -12q-39 0 -85 8q-26 4 -130 36q-107 33 -132 38q-50 8 -94 8q-72 0 -153.5 -25t-148.5 -68l-69 173 q94 51 163 151q67 98 67 241q0 59 -17 124h-196v148h154q-33 113 -42 163q-9 52 -9 101q0 208 154 325q125 93 300 93q180 0 298 -100t145 -279l-179 -27q-15 120 -90 189q-73 69 -178 69q-111 0 -185 -72q-73 -70 -73 -172q0 -111 57 -290z" />
<glyph unicode="&#xa4;" d="M305 726q0 -108 76 -184t183 -76t183 76t76 184q0 107 -76 183q-75 76 -183 76q-107 0 -183 -76t-76 -183zM213 961l-139 136l115 119l139 -139q106 72 237 72q132 0 237 -72l139 139l116 -119l-139 -136q71 -110 71 -235q0 -126 -71 -236l139 -136l-116 -119l-139 140 q-104 -73 -237 -73q-131 0 -237 73l-139 -140l-115 119l139 136q-71 110 -71 236q0 125 71 235z" />
<glyph unicode="&#xa5;" d="M657 0h-180v325h-415v139h415v143h-415v148h341l-406 711h200l290 -516q48 -87 76 -154q21 48 82 163l274 507h214l-405 -711h341v-148h-412v-143h412v-139h-412v-325z" />
<glyph unicode="&#xa6;" horiz-adv-x="532" d="M188 360h157v-791h-157v791zM188 1491h157v-790h-157v790z" />
<glyph unicode="&#xa7;" d="M728 244q72 37 109.5 87t37.5 100q0 58 -52 120t-225 169q-136 84 -204 138q-80 -45 -115 -91t-35 -103q0 -64 46 -120q47 -58 207 -152q138 -82 231 -148zM143 -70l181 26q28 -130 89 -182q62 -53 166 -53q103 0 159 52q58 52 58 122q0 51 -36 94q-61 75 -340 245 q-150 93 -207 142q-60 54 -96 124.5t-36 143.5q0 96 60 174q59 77 165 109q-70 67 -99.5 124.5t-29.5 123.5q0 128 100 222t265 94q186 0 291.5 -88.5t126.5 -258.5l-187 -19q-20 119 -71.5 168.5t-143.5 49.5q-91 0 -149 -50q-56 -50 -56 -109q0 -52 36 -96 q57 -69 306 -220q153 -94 212 -141q138 -116 138 -263q0 -114 -73 -193q-42 -47 -154 -93q159 -120 159 -281q0 -87 -50 -166q-49 -79 -144 -120q-95 -42 -203 -42q-190 0 -302.5 94.5t-134.5 266.5z" />
<glyph unicode="&#xa8;" horiz-adv-x="682" d="M622 1270h-188v205h188v-205zM249 1270h-188v205h188v-205z" />
<glyph unicode="&#xa9;" horiz-adv-x="1509" d="M1000 614l123 -36q-30 -125 -128 -200q-98 -74 -236 -74q-177 0 -286 114q-108 113 -110 316q-2 197 110.5 312.5t293.5 113.5q131 -1 219.5 -63.5t121.5 -172.5l-119 -29q-30 74 -88.5 113.5t-137.5 39.5q-115 0 -190 -82q-74 -83 -74 -235q0 -153 70 -232 q71 -78 183 -78q91 0 158 52q68 53 90 141zM758 1366q-159 0 -310 -82q-149 -80 -235 -233q-85 -151 -85 -315q0 -165 83 -313q82 -148 234 -233q151 -83 313 -83t313 83q150 84 233 233q83 151 83 313q0 164 -85 315q-85 153 -235 233q-151 82 -309 82zM758 1491 q189 0 371 -98q181 -97 282 -279t101 -378t-100 -375q-99 -179 -279 -280q-179 -99 -375 -99q-199 0 -376 99q-178 99 -279 280q-100 179 -100 375t101 378q102 182 283 279q182 98 371 98z" />
<glyph unicode="&#xaa;" horiz-adv-x="758" d="M533 1104q-53 -14 -192 -36q-90 -14 -117 -39q-28 -25 -28 -64q0 -43 35 -71t95 -28q73 0 127 39q52 38 72 96q7 21 8 103zM548 853q-122 -107 -256 -107q-114 0 -179 61q-66 61 -66 158q0 145 145 193q34 12 99 21l147 22q38 6 96 20q-2 72 -14 94q-14 26 -50.5 42.5 t-92.5 16.5q-147 0 -166 -125l-137 34q12 90 88 148q76 60 217 60q165 0 232 -61t67 -181v-240l-1 -61q-1 -132 41 -184h-148q-21 43 -22 89z" />
<glyph unicode="&#xab;" d="M991 984l-264 -456l264 -456h-152l-313 456l313 456h152zM601 984l-261 -456l259 -456h-146l-319 456l319 456h148z" />
<glyph unicode="&#xac;" horiz-adv-x="1196" d="M1082 1030v-606h-170v438h-798v168h968z" />
<glyph unicode="&#xad;" horiz-adv-x="682" d="M653 610v-168h-524v168h524z" />
<glyph unicode="&#xae;" horiz-adv-x="1509" d="M558 1021v-245h159q115 0 155 34q42 34 42 90q0 35 -20 64q-20 30 -56 43q-36 14 -131 14h-149zM558 319h-131v812h279q141 0 207 -23q65 -22 102 -78q38 -56 38 -119q0 -90 -64 -155q-64 -67 -168 -74q44 -18 69 -43q49 -47 120 -161l99 -159h-160l-72 128 q-84 148 -137 189q-39 28 -105 28h-77v-345zM758 1366q-159 0 -310 -82q-149 -80 -235 -233q-85 -151 -85 -315q0 -165 83 -313q82 -148 234 -233q151 -83 313 -83t313 83q150 84 233 233q83 151 83 313q0 164 -85 315q-85 153 -235 233q-151 82 -309 82zM758 1491 q189 0 371 -98q181 -97 282 -279t101 -378t-100 -375q-99 -179 -279 -280q-179 -99 -375 -99q-199 0 -376 99q-178 99 -279 280q-100 179 -100 375t101 378q102 182 283 279q182 98 371 98z" />
<glyph unicode="&#xaf;" horiz-adv-x="1131" d="M1162 1566h-1193v129h1193v-129z" />
<glyph unicode="&#xb0;" horiz-adv-x="819" d="M237 1214q0 -71 49 -120t120 -49q69 0 118 49q50 50 50 120q0 69 -50 119t-118 50q-70 0 -120 -50q-49 -49 -49 -119zM128 1214q0 115 81 196q83 81 196 81q116 0 197 -81t81 -196t-82 -197q-81 -81 -196 -81q-113 0 -196 81q-81 81 -81 197z" />
<glyph unicode="&#xb1;" horiz-adv-x="1124" d="M1046 168v-168h-968v168h968zM647 260h-170v403h-399v167h399v399h170v-399h399v-167h-399v-403z" />
<glyph unicode="&#xb2;" horiz-adv-x="682" d="M648 733h-623q6 56 47 114q65 88 207 190q144 105 171 135q37 40 37 84q0 50 -36 80t-102 30t-99 -24q-32 -23 -53 -90l-151 16q30 112 101.5 164t204.5 52q150 0 221 -59t71 -144q0 -83 -59 -159q-43 -53 -205 -171q-83 -60 -118 -97h386v-121z" />
<glyph unicode="&#xb3;" horiz-adv-x="682" d="M33 929l146 15q19 -58 52 -82q43 -30 102 -30q71 0 114 39t43 94q0 110 -159 110q-5 0 -33 -2q-9 -1 -22 -1l22 110q77 -1 116.5 27.5t39.5 74.5q0 39 -31 64t-88 25q-56 0 -87.5 -22t-54.5 -80l-143 23q40 105 103 148q63 42 183 42q143 0 209 -54t66 -133 q0 -56 -36 -99t-102 -61q87 -21 130 -71t43 -120q0 -93 -79 -162t-225 -69q-265 0 -309 214z" />
<glyph unicode="&#xb4;" horiz-adv-x="682" d="M371 1194h-149l133 280h236z" />
<glyph unicode="&#xb5;" horiz-adv-x="1180" d="M841 1062h177v-1062h-161v126q-53 -81 -103 -110q-71 -41 -163 -41q-83 0 -147 33q-47 25 -106 99v-514h-178v1469h178v-450q0 -247 26 -318q26 -72 84.5 -114t134.5 -42q79 0 143 44q63 44 89 113q26 72 26 314v453z" />
<glyph unicode="&#xb6;" horiz-adv-x="1100" d="M570 -407h-165v1045q-189 11 -296 121q-108 111 -108 285q0 193 120 307q121 115 353 115h633v-173h-144v-1700h-170v1700h-223v-1700z" />
<glyph unicode="&#xb7;" horiz-adv-x="682" d="M443 637h-205v205h205v-205z" />
<glyph unicode="&#xb8;" horiz-adv-x="682" d="M216 -154l52 177h134l-33 -107q81 -9 126 -50.5t45 -96.5q0 -75 -72 -132q-71 -58 -217 -58q-83 0 -144 12l11 117q57 -4 94 -4q94 0 132 26q29 20 29 49q-4 22 -11.5 33t-43 22t-102.5 12z" />
<glyph unicode="&#xb9;" horiz-adv-x="682" d="M476 733h-145v554q-103 -82 -224 -113v123q59 19 138 73q77 52 123 114h108v-751z" />
<glyph unicode="&#xba;" horiz-adv-x="748" d="M373 1358q-85 0 -132.5 -59.5t-47.5 -183.5q0 -121 49 -182t131 -61q84 0 132 61t48 187q0 118 -49 178t-131 60zM373 1491q145 0 236 -100q92 -101 92 -276q0 -174 -92 -275q-91 -100 -235 -100q-145 0 -237 98t-92 273q0 180 91 280t237 100z" />
<glyph unicode="&#xbb;" d="M140 72l264 456l-264 456h151l314 -456l-314 -456h-151zM531 72l260 456l-261 456h148l319 -456l-319 -456h-147z" />
<glyph unicode="&#xbc;" horiz-adv-x="1708" d="M1200 231h230v263zM1574 -31h-144v154h-383v123l405 474h122v-489h104v-108h-104v-154zM476 733h-145v554q-103 -82 -224 -113v123q59 19 138 73q77 52 123 114h108v-751zM409 -57h-157l1102 1548h156z" />
<glyph unicode="&#xbd;" horiz-adv-x="1708" d="M1672 -31h-623q6 56 48 113q62 87 206 191q144 103 171 135q37 40 37 84q0 50 -35.5 79.5t-102.5 29.5q-66 0 -99 -24q-32 -23 -53 -89l-151 15q30 113 102 165t204 52q150 0 221 -59t71 -144q0 -83 -59 -159q-47 -58 -204 -172q-86 -63 -119 -96h386v-121zM476 733h-145 v554q-103 -82 -224 -113v123q59 19 138 73q77 52 123 114h108v-751zM385 -57h-157l1101 1548h157z" />
<glyph unicode="&#xbe;" horiz-adv-x="1708" d="M1200 231h229v263zM1574 -31h-145v154h-382v123l404 474h123v-489h104v-108h-104v-154zM33 929l146 15q19 -58 52 -82q43 -30 102 -30q71 0 114 39t43 94q0 113 -156 110q-15 0 -28 -0.5t-21 -1.5t-9 -1l22 110q77 -1 116.5 27.5t39.5 74.5q0 39 -31 64t-88 25 q-56 0 -87.5 -22t-54.5 -80l-143 23q40 105 103 148q63 42 183 42q143 0 209 -54t66 -133q0 -56 -36 -99t-102 -61q87 -21 130 -71t43 -120q0 -93 -79 -162t-225 -69q-265 0 -309 214zM409 -57h-157l1101 1548h157z" />
<glyph unicode="&#xbf;" horiz-adv-x="1251" d="M548 701h173q1 -23 1 -51q0 -110 -30 -187q-23 -61 -71 -117q-34 -41 -130 -125q-93 -83 -121 -131q-27 -50 -27 -107q0 -106 82 -185t201 -79q117 0 193.5 73.5t99.5 222.5l184 -21q-25 -203 -148.5 -313t-325.5 -110q-217 0 -344 117t-127 283q0 97 44 177 q46 81 176 196q92 83 116 116q27 38 39 85q13 48 15 156zM528 1062h205v-205h-205v205z" />
<glyph unicode="&#xc0;" horiz-adv-x="1366" d="M993 0l-141 424h-455l-141 -424h-221l483 1389h230l483 -1389h-238zM451 606h346q-116 351 -168 576h-6q-57 -233 -172 -576zM416 1783h158q46 0 68 -39q99 -172 184 -301l-182 -8q-42 56 -111 160.5t-117 187.5z" />
<glyph unicode="&#xc1;" horiz-adv-x="1366" d="M993 0l-141 424h-455l-141 -424h-221l483 1389h230l483 -1389h-238zM451 606h346q-116 351 -168 576h-6q-57 -233 -172 -576zM690 1556h-149l133 280h236z" />
<glyph unicode="&#xc2;" horiz-adv-x="1366" d="M993 0l-141 424h-455l-141 -424h-221l483 1389h230l483 -1389h-238zM451 606h346q-116 351 -168 576h-6q-57 -233 -172 -576zM774 1556l-110 170l-113 -170h-206l216 280h192l225 -280h-204z" />
<glyph unicode="&#xc3;" horiz-adv-x="1366" d="M993 0l-141 424h-455l-141 -424h-221l483 1389h230l483 -1389h-238zM451 606h346q-116 351 -168 576h-6q-57 -233 -172 -576zM482 1556h-133q-2 104 57 166q57 62 146 62q62 0 169 -54q59 -30 94 -30q33 0 49.5 18.5t23.5 68.5h130q-3 -111 -56 -169.5t-140 -58.5 q-62 0 -166 56q-68 36 -98 36q-34 0 -55 -24q-23 -24 -21 -71z" />
<glyph unicode="&#xc4;" horiz-adv-x="1366" d="M993 0l-141 424h-455l-141 -424h-221l483 1389h230l483 -1389h-238zM451 606h346q-116 351 -168 576h-6q-57 -233 -172 -576zM940 1556h-188v205h188v-205zM567 1556h-188v205h188v-205z" />
<glyph unicode="&#xc5;" horiz-adv-x="1366" d="M993 0l-141 424h-455l-141 -424h-221l483 1389h230l483 -1389h-238zM451 606h346q-116 351 -168 576h-6q-57 -233 -172 -576zM557 1600q0 -48 31 -79q32 -32 75 -32q42 0 74 32t32 77q0 46 -31 77q-32 32 -75 32t-75 -32q-31 -31 -31 -75zM481 1601q0 73 53 126 q55 53 127 53q75 0 127 -54q53 -53 53 -129q0 -77 -53 -130t-126 -53q-75 0 -128 53q-53 55 -53 134z" />
<glyph unicode="&#xc6;" horiz-adv-x="2048" d="M832 1293l-339 -698h484v698h-145zM211 0h-210l705 1466h1203v-173h-737v-451h685v-172h-685v-497h764v-173h-959v423h-566z" />
<glyph unicode="&#xc7;" horiz-adv-x="1479" d="M70 680q0 166 57.5 304.5t158.5 230.5t238 143t295 51q235 0 404 -66l-25 -184q-68 30 -170 49t-192 19q-236 0 -376.5 -138.5t-140.5 -394.5q0 -255 133 -393.5t359 -138.5q195 0 358 74l27 -189q-172 -67 -414 -67q-157 0 -286.5 45.5t-225 132t-148 220t-52.5 302.5z M620 -154l52 177h134l-33 -107q81 -9 126 -50.5t45 -96.5q0 -75 -72 -132q-71 -58 -217 -58q-83 0 -144 12l11 117q57 -4 94 -4q94 0 132 26q29 20 29 49q-4 22 -11.5 33t-43 22t-102.5 12z" />
<glyph unicode="&#xc8;" horiz-adv-x="1366" d="M381 182h567v-182h-792v1389h774v-185h-549v-397h479v-182h-479v-443zM442 1783h158q46 0 68 -39q99 -172 184 -301l-182 -8q-42 56 -111 160.5t-117 187.5z" />
<glyph unicode="&#xc9;" horiz-adv-x="1366" d="M381 182h567v-182h-792v1389h774v-185h-549v-397h479v-182h-479v-443zM711 1556h-149l133 280h236z" />
<glyph unicode="&#xca;" horiz-adv-x="1366" d="M381 182h567v-182h-792v1389h774v-185h-549v-397h479v-182h-479v-443zM817 1556l-110 170l-113 -170h-206l216 280h192l225 -280h-204z" />
<glyph unicode="&#xcb;" horiz-adv-x="1366" d="M381 182h567v-182h-792v1389h774v-185h-549v-397h479v-182h-479v-443zM986 1556h-188v205h188v-205zM613 1556h-188v205h188v-205z" />
<glyph unicode="&#xcc;" horiz-adv-x="569" d="M367 0h-226v1389h226v-1389zM22 1783h158q46 0 68 -39q99 -172 184 -301l-182 -8q-42 56 -111 160.5t-117 187.5z" />
<glyph unicode="&#xcd;" horiz-adv-x="569" d="M367 0h-226v1389h226v-1389zM290 1556h-149l133 280h236z" />
<glyph unicode="&#xce;" horiz-adv-x="569" d="M367 0h-226v1389h226v-1389zM397 1556l-110 170l-113 -170h-206l216 280h192l225 -280h-204z" />
<glyph unicode="&#xcf;" horiz-adv-x="569" d="M367 0h-226v1389h226v-1389zM565 1556h-188v205h188v-205zM192 1556h-188v205h188v-205z" />
<glyph unicode="&#xd0;" horiz-adv-x="1479" d="M352 667v-494h313q145 0 228 27q82 27 130 75q147 147 147 468q0 171 -39 275q-37 102 -100 165q-62 62 -138 86q-77 24 -233 24h-308v-494h404v-132h-404zM687 0h-529v667h-161v132h161v667h506q170 0 260 -21q127 -29 215 -105q231 -195 231 -599q0 -223 -71 -386 q-70 -160 -170 -234q-97 -72 -228 -104q-73 -17 -214 -17z" />
<glyph unicode="&#xd1;" horiz-adv-x="1479" d="M1292 1339v-1339h-260l-401 633l-105 167q-38 61 -97 167t-91 184h-6q12 -272 12 -446v-705h-209v1389h281l403 -633q224 -350 275 -494h6q-17 146 -17 373v704h209zM563 1556h-133q-2 104 57 166q57 62 146 62q63 0 169 -54q58 -30 94 -30q33 0 49.5 18.5t23.5 68.5h130 q-3 -111 -56 -169.5t-140 -58.5q-62 0 -166 56q-67 36 -98 36q-34 0 -55 -24q-23 -24 -21 -71z" />
<glyph unicode="&#xd2;" horiz-adv-x="1593" d="M762 1409q133 0 255.5 -47t220.5 -134t157 -225.5t59 -308.5t-59 -308.5t-157 -225.5t-220.5 -133.5t-255.5 -46.5t-255.5 46.5t-220.5 133.5t-157 225.5t-59 308.5t59 308.5t157 225.5t220.5 134t255.5 47zM762 162q199 0 320.5 138t121.5 394q0 257 -121.5 395 t-320.5 138t-321 -138t-122 -395q0 -256 122 -394t321 -138zM508 1783h158q46 0 68 -39q99 -172 184 -301l-182 -8q-42 56 -111 160.5t-117 187.5z" />
<glyph unicode="&#xd3;" horiz-adv-x="1593" d="M762 1409q133 0 255.5 -47t220.5 -134t157 -225.5t59 -308.5t-59 -308.5t-157 -225.5t-220.5 -133.5t-255.5 -46.5t-255.5 46.5t-220.5 133.5t-157 225.5t-59 308.5t59 308.5t157 225.5t220.5 134t255.5 47zM762 162q199 0 320.5 138t121.5 394q0 257 -121.5 395 t-320.5 138t-321 -138t-122 -395q0 -256 122 -394t321 -138zM826 1556h-149l133 280h236z" />
<glyph unicode="&#xd4;" horiz-adv-x="1593" d="M762 1409q133 0 255.5 -47t220.5 -134t157 -225.5t59 -308.5t-59 -308.5t-157 -225.5t-220.5 -133.5t-255.5 -46.5t-255.5 46.5t-220.5 133.5t-157 225.5t-59 308.5t59 308.5t157 225.5t220.5 134t255.5 47zM762 162q199 0 320.5 138t121.5 394q0 257 -121.5 395 t-320.5 138t-321 -138t-122 -395q0 -256 122 -394t321 -138zM908 1556l-110 170l-113 -170h-206l216 280h192l225 -280h-204z" />
<glyph unicode="&#xd5;" horiz-adv-x="1593" d="M762 1409q133 0 255.5 -47t220.5 -134t157 -225.5t59 -308.5t-59 -308.5t-157 -225.5t-220.5 -133.5t-255.5 -46.5t-255.5 46.5t-220.5 133.5t-157 225.5t-59 308.5t59 308.5t157 225.5t220.5 134t255.5 47zM762 162q199 0 320.5 138t121.5 394q0 257 -121.5 395 t-320.5 138t-321 -138t-122 -395q0 -256 122 -394t321 -138zM599 1556h-133q-2 104 57 166q57 62 146 62q63 0 169 -54q58 -30 94 -30q33 0 49.5 18.5t23.5 68.5h130q-3 -111 -56 -169.5t-140 -58.5q-62 0 -166 56q-67 36 -98 36q-34 0 -55 -24q-23 -24 -21 -71z" />
<glyph unicode="&#xd6;" horiz-adv-x="1593" d="M762 1409q133 0 255.5 -47t220.5 -134t157 -225.5t59 -308.5t-59 -308.5t-157 -225.5t-220.5 -133.5t-255.5 -46.5t-255.5 46.5t-220.5 133.5t-157 225.5t-59 308.5t59 308.5t157 225.5t220.5 134t255.5 47zM762 162q199 0 320.5 138t121.5 394q0 257 -121.5 395 t-320.5 138t-321 -138t-122 -395q0 -256 122 -394t321 -138zM1077 1556h-188v205h188v-205zM704 1556h-188v205h188v-205z" />
<glyph unicode="&#xd7;" horiz-adv-x="1196" d="M282 288l-121 121l315 315l-314 314l122 122l314 -314l313 313l120 -121l-312 -313l314 -314l-122 -122l-314 314z" />
<glyph unicode="&#xd8;" horiz-adv-x="1593" d="M1212 1094l-743 -832q74 -61 142 -88q85 -33 184 -33q218 0 360 154t142 432q0 209 -85 367zM384 362l746 835q-96 74 -165 101q-71 27 -165 27q-219 0 -362 -149t-143 -443q0 -118 22 -206q17 -69 67 -165zM1250 1332l168 188l99 -84l-176 -198q86 -128 116 -224 q40 -124 40 -282q0 -226 -91 -401q-92 -177 -256 -266q-164 -90 -349 -90q-137 0 -250 39q-87 30 -201 115l-168 -188l-99 84l176 197q-98 150 -131 254q-33 106 -33 254q0 226 90 402t252 268q163 91 362 91q133 0 234 -36q102 -35 217 -123z" />
<glyph unicode="&#xd9;" horiz-adv-x="1479" d="M1149 485q0 -124 -39 -221.5t-108 -159t-161 -93t-202 -31.5q-223 0 -366.5 128.5t-143.5 337.5v943h225v-922q0 -151 81 -228t210 -77q140 0 217.5 74.5t77.5 230.5v922h209v-904zM446 1783h158q46 0 68 -39q99 -172 184 -301l-182 -8q-42 56 -111 160.5t-117 187.5z " />
<glyph unicode="&#xda;" horiz-adv-x="1479" d="M1149 485q0 -124 -39 -221.5t-108 -159t-161 -93t-202 -31.5q-223 0 -366.5 128.5t-143.5 337.5v943h225v-922q0 -151 81 -228t210 -77q140 0 217.5 74.5t77.5 230.5v922h209v-904zM763 1556h-149l133 280h236z" />
<glyph unicode="&#xdb;" horiz-adv-x="1479" d="M1149 485q0 -124 -39 -221.5t-108 -159t-161 -93t-202 -31.5q-223 0 -366.5 128.5t-143.5 337.5v943h225v-922q0 -151 81 -228t210 -77q140 0 217.5 74.5t77.5 230.5v922h209v-904zM846 1556l-110 170l-113 -170h-206l216 280h192l225 -280h-204z" />
<glyph unicode="&#xdc;" horiz-adv-x="1479" d="M1149 485q0 -124 -39 -221.5t-108 -159t-161 -93t-202 -31.5q-223 0 -366.5 128.5t-143.5 337.5v943h225v-922q0 -151 81 -228t210 -77q140 0 217.5 74.5t77.5 230.5v922h209v-904zM1015 1556h-188v205h188v-205zM642 1556h-188v205h188v-205z" />
<glyph unicode="&#xdd;" horiz-adv-x="1366" d="M885 1389h239l-444 -789v-600h-225v584l-457 805h260l311 -596h4zM704 1556h-149l133 280h236z" />
<glyph unicode="&#xde;" horiz-adv-x="1366" d="M352 995v-524h379q188 0 267 70t79 196q0 90 -46 156.5t-122 87.5q-51 14 -182 14h-375zM352 0h-194v1466h194v-298h359q143 0 224 -14q108 -20 181 -70q74 -50 117 -141q44 -93 44 -200q0 -185 -119 -316q-118 -129 -430 -129h-376v-298z" />
<glyph unicode="&#xdf;" horiz-adv-x="1251" d="M333 0h-180v999q0 182 44 281q45 99 149 155t234 56q173 0 272 -87q99 -86 99 -200q0 -52 -18 -106.5t-64 -133.5q-47 -83 -58 -112q-12 -32 -12 -55q0 -32 22 -63q23 -34 121 -97q135 -87 181 -143q64 -76 64 -182q0 -139 -103 -238q-102 -99 -262 -99q-127 0 -221 67 q-96 69 -142 174l155 72q48 -89 97.5 -127t107.5 -38q77 0 130 52q54 53 54 122q0 55 -32 96q-23 28 -112 88q-166 113 -205 171q-40 56 -40 117q0 40 13 79q12 36 65 128q50 84 68 132q16 42 16 78q0 61 -55 109q-56 48 -145 48q-108 0 -175 -66q-68 -66 -68 -286v-991z " />
<glyph unicode="&#xe0;" d="M500 1016q195 0 296 -89t101 -255v-672h-219l-6 139h-4q-90 -159 -285 -159q-129 0 -221 89t-92 232q0 88 40 155.5t107 106.5t145.5 58.5t165.5 19.5q62 0 144 -12v22q0 97 -51.5 144t-163.5 47q-122 0 -256 -58l-23 170q151 62 322 62zM672 430v57q-58 11 -129 11 q-98 0 -163 -46.5t-65 -138.5q0 -81 42 -124.5t114 -43.5q87 0 144 78t57 207zM307 1421h158q46 0 68 -39q99 -172 184 -301l-182 -8q-42 56 -111 160.5t-117 187.5z" />
<glyph unicode="&#xe1;" d="M500 1016q195 0 296 -89t101 -255v-672h-219l-6 139h-4q-90 -159 -285 -159q-129 0 -221 89t-92 232q0 88 40 155.5t107 106.5t145.5 58.5t165.5 19.5q62 0 144 -12v22q0 97 -51.5 144t-163.5 47q-122 0 -256 -58l-23 170q151 62 322 62zM672 430v57q-58 11 -129 11 q-98 0 -163 -46.5t-65 -138.5q0 -81 42 -124.5t114 -43.5q87 0 144 78t57 207zM612 1194h-149l133 280h236z" />
<glyph unicode="&#xe2;" d="M500 1016q195 0 296 -89t101 -255v-672h-219l-6 139h-4q-90 -159 -285 -159q-129 0 -221 89t-92 232q0 88 40 155.5t107 106.5t145.5 58.5t165.5 19.5q62 0 144 -12v22q0 97 -51.5 144t-163.5 47q-122 0 -256 -58l-23 170q151 62 322 62zM672 430v57q-58 11 -129 11 q-98 0 -163 -46.5t-65 -138.5q0 -81 42 -124.5t114 -43.5q87 0 144 78t57 207zM676 1194l-110 170l-113 -170h-206l216 280h192l225 -280h-204z" />
<glyph unicode="&#xe3;" d="M500 1016q195 0 296 -89t101 -255v-672h-219l-6 139h-4q-90 -159 -285 -159q-129 0 -221 89t-92 232q0 88 40 155.5t107 106.5t145.5 58.5t165.5 19.5q62 0 144 -12v22q0 97 -51.5 144t-163.5 47q-122 0 -256 -58l-23 170q151 62 322 62zM672 430v57q-58 11 -129 11 q-98 0 -163 -46.5t-65 -138.5q0 -81 42 -124.5t114 -43.5q87 0 144 78t57 207zM362 1219h-133q-2 104 57 166q57 62 146 62q62 0 169 -54q59 -30 94 -30q33 0 49.5 18.5t23.5 68.5h130q-3 -111 -56 -169.5t-140 -58.5q-62 0 -166 56q-68 36 -98 36q-34 0 -55 -24 q-23 -24 -21 -71z" />
<glyph unicode="&#xe4;" d="M500 1016q195 0 296 -89t101 -255v-672h-219l-6 139h-4q-90 -159 -285 -159q-129 0 -221 89t-92 232q0 88 40 155.5t107 106.5t145.5 58.5t165.5 19.5q62 0 144 -12v22q0 97 -51.5 144t-163.5 47q-122 0 -256 -58l-23 170q151 62 322 62zM672 430v57q-58 11 -129 11 q-98 0 -163 -46.5t-65 -138.5q0 -81 42 -124.5t114 -43.5q87 0 144 78t57 207zM844 1270h-188v205h188v-205zM471 1270h-188v205h188v-205z" />
<glyph unicode="&#xe5;" d="M500 1016q195 0 296 -89t101 -255v-672h-219l-6 139h-4q-90 -159 -285 -159q-129 0 -221 89t-92 232q0 88 40 155.5t107 106.5t145.5 58.5t165.5 19.5q62 0 144 -12v22q0 97 -51.5 144t-163.5 47q-122 0 -256 -58l-23 170q151 62 322 62zM672 430v57q-58 11 -129 11 q-98 0 -163 -46.5t-65 -138.5q0 -81 42 -124.5t114 -43.5q87 0 144 78t57 207zM459 1337q0 -48 31 -79q32 -32 75 -32q42 0 74 32t32 77q0 46 -31 77q-32 32 -75 32t-75 -32q-31 -31 -31 -75zM383 1338q0 73 53 126q55 53 127 53q75 0 127 -54q53 -53 53 -129 q0 -77 -53 -130t-126 -53q-75 0 -128 53q-53 55 -53 134z" />
<glyph unicode="&#xe6;" horiz-adv-x="1821" d="M793 533q-78 -34 -322 -73q-109 -16 -153 -51q-59 -47 -59 -123q0 -70 53 -120q52 -48 154 -48q114 0 200 57q87 58 112 142q15 53 15 216zM969 633h584q-14 154 -88 229t-200 75q-125 0 -207 -80q-80 -80 -89 -224zM1546 349l188 -24q-51 -168 -171 -258.5t-297 -90.5 q-127 0 -222.5 48t-172.5 150q-104 -102 -210.5 -150t-229.5 -48q-173 0 -268 88q-95 89 -95 216q0 87 49 161q49 76 138 115q86 38 283 64q143 19 252 49q1 17 1 41q0 126 -53 176q-52 51 -183 51q-87 0 -147 -21q-61 -21 -89 -60q-27 -36 -47 -123l-175 21q29 120 80 185 q54 70 152 108.5t228 38.5q166 0 269 -50q58 -28 99 -93q66 72 147.5 107.5t193.5 35.5q162 0 268 -79q105 -77 155 -207q49 -128 49 -254q0 -5 -2 -61h-767q1 -144 35 -209q36 -67 107 -109q73 -43 162 -43q103 0 174.5 59t98.5 166z" />
<glyph unicode="&#xe7;" horiz-adv-x="1024" d="M317 502q0 -170 82 -259t226 -89q127 0 247 53l23 -170q-117 -57 -320 -57q-227 0 -363 136t-136 359q0 251 151.5 396t390.5 145q92 0 168.5 -17.5t118.5 -42.5l-22 -170q-116 56 -242 56q-149 0 -236.5 -87t-87.5 -253zM411 -134l52 177h134l-33 -107q81 -9 126 -50.5 t45 -96.5q0 -75 -72 -132q-71 -58 -217 -58q-82 0 -144 12l11 117q57 -4 94 -4q94 0 132 26q29 20 29 49q-4 22 -11.5 33t-43 22t-102.5 12z" />
<glyph unicode="&#xe8;" d="M307 436q9 -135 86.5 -208.5t218.5 -73.5q138 0 267 57l22 -170q-74 -34 -150 -47.5t-180 -13.5q-225 0 -360 127.5t-135 367.5q0 237 141.5 389t355.5 152q124 0 217 -62t139 -160.5t46 -215.5q0 -85 -8 -142h-660zM317 602h439q-11 240 -201 240q-99 0 -159.5 -63 t-78.5 -177zM278 1421h158q46 0 68 -39q99 -172 184 -301l-182 -8q-42 56 -111 160.5t-117 187.5z" />
<glyph unicode="&#xe9;" d="M307 436q9 -135 86.5 -208.5t218.5 -73.5q138 0 267 57l22 -170q-74 -34 -150 -47.5t-180 -13.5q-225 0 -360 127.5t-135 367.5q0 237 141.5 389t355.5 152q124 0 217 -62t139 -160.5t46 -215.5q0 -85 -8 -142h-660zM317 602h439q-11 240 -201 240q-99 0 -159.5 -63 t-78.5 -177zM614 1194h-149l133 280h236z" />
<glyph unicode="&#xea;" d="M307 436q9 -135 86.5 -208.5t218.5 -73.5q138 0 267 57l22 -170q-74 -34 -150 -47.5t-180 -13.5q-225 0 -360 127.5t-135 367.5q0 237 141.5 389t355.5 152q124 0 217 -62t139 -160.5t46 -215.5q0 -85 -8 -142h-660zM317 602h439q-11 240 -201 240q-99 0 -159.5 -63 t-78.5 -177zM677 1194l-110 170l-113 -170h-206l216 280h192l225 -280h-204z" />
<glyph unicode="&#xeb;" d="M307 436q9 -135 86.5 -208.5t218.5 -73.5q138 0 267 57l22 -170q-74 -34 -150 -47.5t-180 -13.5q-225 0 -360 127.5t-135 367.5q0 237 141.5 389t355.5 152q124 0 217 -62t139 -160.5t46 -215.5q0 -85 -8 -142h-660zM317 602h439q-11 240 -201 240q-99 0 -159.5 -63 t-78.5 -177zM845 1270h-188v205h188v-205zM472 1270h-188v205h188v-205z" />
<glyph unicode="&#xec;" horiz-adv-x="569" d="M378 0h-180v1062h180v-1062zM3 1421h158q46 0 68 -39q99 -172 184 -301l-182 -8q-42 56 -111 160.5t-117 187.5z" />
<glyph unicode="&#xed;" horiz-adv-x="569" d="M378 0h-180v1062h180v-1062zM338 1194h-149l133 280h236z" />
<glyph unicode="&#xee;" horiz-adv-x="569" d="M378 0h-180v1062h180v-1062zM412 1194l-110 170l-113 -170h-206l216 280h192l225 -280h-204z" />
<glyph unicode="&#xef;" horiz-adv-x="569" d="M378 0h-180v1062h180v-1062zM570 1270h-188v205h188v-205zM197 1270h-188v205h188v-205z" />
<glyph unicode="&#xf0;" d="M870 529q0 191 -91 293t-222 102q-129 0 -215 -102q-85 -100 -85 -310q0 -194 87 -292q89 -98 219 -98q129 0 217 103q90 103 90 304zM308 1466h217q75 -56 125 -102l214 102l45 -102l-172 -83q320 -368 320 -760q0 -254 -139 -400q-140 -146 -354 -146q-255 0 -398 194 q-93 127 -93 348q0 261 129 403t323 142q59 0 102 -12t110 -47q-34 70 -63 113q-31 47 -79 100l-275 -127l-44 103l239 109q-97 90 -207 165z" />
<glyph unicode="&#xf1;" d="M367 850h4q123 166 315 166q155 0 240.5 -93.5t85.5 -263.5v-659h-226v549q0 62 -3.5 104t-14.5 80.5t-31 60.5t-52.5 35t-78.5 13q-106 0 -172.5 -87.5t-66.5 -226.5v-528h-226v995h219zM395 1219h-133q-2 104 57 166q57 62 146 62q63 0 169 -54q58 -30 94 -30 q33 0 49.5 18.5t23.5 68.5h130q-3 -111 -56 -169.5t-140 -58.5q-62 0 -166 56q-67 36 -98 36q-34 0 -55 -24q-23 -24 -21 -71z" />
<glyph unicode="&#xf2;" d="M569 1016q216 0 355 -143t139 -375q0 -233 -139 -375.5t-355 -142.5t-354.5 142.5t-138.5 375.5q0 232 139 375t354 143zM569 154q119 0 185.5 89.5t66.5 254.5t-66.5 254.5t-185.5 89.5t-185.5 -89.5t-66.5 -254.5t66.5 -254.5t185.5 -89.5zM279 1421h158q46 0 68 -39 q99 -172 184 -301l-182 -8q-42 56 -111 160.5t-117 187.5z" />
<glyph unicode="&#xf3;" d="M569 1016q216 0 355 -143t139 -375q0 -233 -139 -375.5t-355 -142.5t-354.5 142.5t-138.5 375.5q0 232 139 375t354 143zM569 154q119 0 185.5 89.5t66.5 254.5t-66.5 254.5t-185.5 89.5t-185.5 -89.5t-66.5 -254.5t66.5 -254.5t185.5 -89.5zM615 1194h-149l133 280h236z " />
<glyph unicode="&#xf4;" d="M569 1016q216 0 355 -143t139 -375q0 -233 -139 -375.5t-355 -142.5t-354.5 142.5t-138.5 375.5q0 232 139 375t354 143zM569 154q119 0 185.5 89.5t66.5 254.5t-66.5 254.5t-185.5 89.5t-185.5 -89.5t-66.5 -254.5t66.5 -254.5t185.5 -89.5zM678 1194l-110 170 l-113 -170h-206l216 280h192l225 -280h-204z" />
<glyph unicode="&#xf5;" d="M569 1016q216 0 355 -143t139 -375q0 -233 -139 -375.5t-355 -142.5t-354.5 142.5t-138.5 375.5q0 232 139 375t354 143zM569 154q119 0 185.5 89.5t66.5 254.5t-66.5 254.5t-185.5 89.5t-185.5 -89.5t-66.5 -254.5t66.5 -254.5t185.5 -89.5zM364 1219h-133 q-2 104 57 166q57 62 146 62q62 0 169 -54q59 -30 94 -30q33 0 49.5 18.5t23.5 68.5h130q-3 -111 -56 -169.5t-140 -58.5q-62 0 -166 56q-68 36 -98 36q-34 0 -55 -24q-23 -24 -21 -71z" />
<glyph unicode="&#xf6;" d="M569 1016q216 0 355 -143t139 -375q0 -233 -139 -375.5t-355 -142.5t-354.5 142.5t-138.5 375.5q0 232 139 375t354 143zM569 154q119 0 185.5 89.5t66.5 254.5t-66.5 254.5t-185.5 89.5t-185.5 -89.5t-66.5 -254.5t66.5 -254.5t185.5 -89.5zM846 1270h-188v205h188v-205 zM473 1270h-188v205h188v-205z" />
<glyph unicode="&#xf7;" horiz-adv-x="1124" d="M664 319h-205v205h205v-205zM1046 807v-168h-968v168h968zM664 922h-205v205h205v-205z" />
<glyph unicode="&#xf8;" horiz-adv-x="1251" d="M893 770l-449 -583q78 -63 176 -63q139 0 229 102q91 101 91 306q0 76 -12 133q-7 40 -35 105zM366 280l452 587q-91 70 -191 70q-133 0 -223 -102t-90 -304q0 -151 52 -251zM919 999l99 128l96 -70l-107 -138q64 -87 86 -156q31 -99 31 -233q0 -300 -169 -441 q-137 -113 -330 -113q-159 0 -281 80l-105 -135l-94 71l108 141q-58 67 -84 136q-40 108 -40 247q0 302 147 435q147 135 345 135q80 0 149 -20.5t149 -66.5z" />
<glyph unicode="&#xf9;" d="M776 145h-4q-122 -165 -315 -165q-155 0 -240.5 93.5t-85.5 262.5v659h225v-549q0 -62 3.5 -104t14.5 -80.5t31 -60t52.5 -34.5t79.5 -13q105 0 172 87t67 226v528h225v-995h-219zM320 1421h158q46 0 68 -39q99 -172 184 -301l-182 -8q-42 56 -111 160.5t-117 187.5z" />
<glyph unicode="&#xfa;" d="M776 145h-4q-122 -165 -315 -165q-155 0 -240.5 93.5t-85.5 262.5v659h225v-549q0 -62 3.5 -104t14.5 -80.5t31 -60t52.5 -34.5t79.5 -13q105 0 172 87t67 226v528h225v-995h-219zM602 1194h-149l133 280h236z" />
<glyph unicode="&#xfb;" d="M776 145h-4q-122 -165 -315 -165q-155 0 -240.5 93.5t-85.5 262.5v659h225v-549q0 -62 3.5 -104t14.5 -80.5t31 -60t52.5 -34.5t79.5 -13q105 0 172 87t67 226v528h225v-995h-219zM674 1194l-110 170l-113 -170h-206l216 280h192l225 -280h-204z" />
<glyph unicode="&#xfc;" d="M776 145h-4q-122 -165 -315 -165q-155 0 -240.5 93.5t-85.5 262.5v659h225v-549q0 -62 3.5 -104t14.5 -80.5t31 -60t52.5 -34.5t79.5 -13q105 0 172 87t67 226v528h225v-995h-219zM842 1270h-188v205h188v-205zM469 1270h-188v205h188v-205z" />
<glyph unicode="&#xfd;" horiz-adv-x="1024" d="M618 -20q-81 -208 -188 -295t-307 -107l-23 174q127 17 189 56.5t100 142.5l12 33l-393 1011h242l137 -377q69 -188 129 -417h6q50 190 131 417l138 377h225zM569 1194h-149l133 280h236z" />
<glyph unicode="&#xfe;" d="M298 525q0 -205 83 -303t201 -98q119 0 205 101q86 103 86 315q0 204 -84 304q-83 101 -199 101t-204 -108q-88 -106 -88 -312zM315 -407h-180v1873h180v-516q74 77 128 102q71 34 164 34q137 0 240 -70q105 -71 157 -198q53 -129 53 -279q0 -162 -59 -294 q-58 -130 -170 -200q-111 -69 -233 -69q-83 0 -154 33q-53 25 -126 101v-517z" />
<glyph unicode="&#xff;" horiz-adv-x="1024" d="M618 -20q-81 -208 -188 -295t-307 -107l-23 174q127 17 189 56.5t100 142.5l12 33l-393 1011h242l137 -377q69 -188 129 -417h6q50 190 131 417l138 377h225zM804 1270h-188v205h188v-205zM431 1270h-188v205h188v-205z" />
<glyph unicode="&#x131;" horiz-adv-x="569" d="M378 0h-180v1062h180v-1062z" />
<glyph unicode="&#x152;" horiz-adv-x="2048" d="M720 1334q-100 0 -197 -65q-98 -66 -146 -199.5t-48 -349.5q0 -304 115 -446q116 -143 276 -143q161 0 275 142q115 142 115 472q0 305 -116 447q-115 142 -274 142zM1302 173h681v-173h-862v212q-135 -237 -400 -237q-302 0 -456 232q-136 205 -136 528q0 322 142 539 t450 217q264 0 400 -223v198h831v-173h-650v-448h599v-172h-599v-500z" />
<glyph unicode="&#x153;" horiz-adv-x="1933" d="M1080 631h587q-12 150 -92 229q-79 78 -197 78q-121 0 -204 -82q-84 -84 -94 -225zM267 533q0 -185 71 -283q92 -126 239 -126q130 0 221 106q92 107 92 305q0 197 -91 300t-222 103q-87 0 -160 -49q-71 -48 -110.5 -143.5t-39.5 -212.5zM978 175q-152 -199 -396 -199 q-225 0 -363 143q-137 143 -137 399q0 170 58 302q58 133 178 200q120 66 266 66q136 0 240 -58q104 -59 154 -145q65 95 166 149t223 54q220 0 356 -151q136 -150 134 -452h-784q3 -167 92 -263t224 -96q100 0 171 56t103 166l180 -26q-43 -166 -160.5 -255t-296.5 -89 q-133 0 -239 52t-169 147z" />
<glyph unicode="&#x178;" horiz-adv-x="1366" d="M885 1389h239l-444 -789v-600h-225v584l-457 805h260l311 -596h4zM958 1556h-188v205h188v-205zM585 1556h-188v205h188v-205z" />
<glyph unicode="&#x2c6;" horiz-adv-x="682" d="M454 1194l-110 170l-113 -170h-206l216 280h192l225 -280h-204z" />
<glyph unicode="&#x2dc;" horiz-adv-x="682" d="M140 1219h-133q-2 104 57 166q57 62 146 62q62 0 169 -54q59 -30 94 -30q33 0 49.5 18.5t23.5 68.5h130q-3 -111 -56 -169.5t-140 -58.5q-62 0 -166 56q-68 36 -98 36q-34 0 -55 -24q-23 -24 -21 -71z" />
<glyph unicode="&#x2000;" horiz-adv-x="918" />
<glyph unicode="&#x2001;" horiz-adv-x="1836" />
<glyph unicode="&#x2002;" horiz-adv-x="918" />
<glyph unicode="&#x2003;" horiz-adv-x="1836" />
<glyph unicode="&#x2004;" horiz-adv-x="612" />
<glyph unicode="&#x2005;" horiz-adv-x="459" />
<glyph unicode="&#x2006;" horiz-adv-x="306" />
<glyph unicode="&#x2007;" horiz-adv-x="306" />
<glyph unicode="&#x2008;" horiz-adv-x="229" />
<glyph unicode="&#x2009;" horiz-adv-x="367" />
<glyph unicode="&#x200a;" horiz-adv-x="102" />
<glyph unicode="&#x2010;" horiz-adv-x="782" d="M653 610v-168h-524v168h524z" />
<glyph unicode="&#x2011;" horiz-adv-x="782" d="M653 610v-168h-524v168h524z" />
<glyph unicode="&#x2012;" horiz-adv-x="782" d="M653 610v-168h-524v168h524z" />
<glyph unicode="&#x2013;" d="M1135 458h-1139v145h1139v-145z" />
<glyph unicode="&#x2014;" horiz-adv-x="2048" d="M2048 458h-2048v145h2048v-145z" />
<glyph unicode="&#x2018;" horiz-adv-x="455" d="M227 1220h94v-209h-193v165q0 133 32 194q43 81 133 121l44 -70q-56 -24 -81.5 -69.5t-28.5 -131.5z" />
<glyph unicode="&#x2019;" horiz-adv-x="455" d="M218 1272h-94v209h193v-165q0 -135 -31 -193q-44 -82 -134 -122l-44 71q54 22 80.5 69.5t29.5 130.5z" />
<glyph unicode="&#x201a;" horiz-adv-x="455" d="M218 0h-94v209h193v-165q0 -135 -31 -193q-44 -82 -134 -122l-44 71q54 22 80.5 69.5t29.5 130.5z" />
<glyph unicode="&#x201c;" horiz-adv-x="682" d="M492 1220h94v-209h-193v165q0 133 32 194q43 81 133 121l44 -70q-56 -24 -81.5 -69.5t-28.5 -131.5zM182 1220h94v-209h-193v165q0 133 32 194q43 81 133 121l44 -70q-56 -24 -81.5 -69.5t-28.5 -131.5z" />
<glyph unicode="&#x201d;" horiz-adv-x="682" d="M491 1272h-94v209h193v-165q0 -135 -31 -193q-44 -82 -134 -122l-44 71q54 22 80.5 69.5t29.5 130.5zM181 1272h-94v209h193v-165q0 -135 -31 -193q-44 -82 -134 -122l-44 71q54 22 80.5 69.5t29.5 130.5z" />
<glyph unicode="&#x201e;" horiz-adv-x="682" d="M491 0h-94v209h193v-165q0 -135 -31 -193q-44 -82 -134 -122l-44 71q54 22 80.5 69.5t29.5 130.5zM181 0h-94v209h193v-165q0 -135 -31 -193q-44 -82 -134 -122l-44 71q54 22 80.5 69.5t29.5 130.5z" />
<glyph unicode="&#x2022;" horiz-adv-x="717" d="M109 718q0 105 74 179q76 74 179 74q105 0 179 -74q75 -73 75 -179q0 -105 -75 -180q-74 -74 -179 -74t-179 74t-74 180z" />
<glyph unicode="&#x2026;" horiz-adv-x="2048" d="M1810 0h-206v205h206v-205zM1127 0h-205v205h205v-205zM444 0h-205v205h205v-205z" />
<glyph unicode="&#x202f;" horiz-adv-x="367" />
<glyph unicode="&#x2039;" horiz-adv-x="682" d="M556 984l-265 -457l265 -455h-149l-315 455l315 457h149z" />
<glyph unicode="&#x203a;" horiz-adv-x="682" d="M92 72l265 458l-265 454h149l304 -448l-304 -464h-149z" />
<glyph unicode="&#x205f;" horiz-adv-x="459" />
<glyph unicode="&#x20ac;" d="M790 1325q-168 0 -282 -81q-68 -48 -123 -136q-56 -92 -66 -173h682l-27 -134h-671q-1 -14 -1 -40q0 -82 1 -92h644l-28 -134h-595q42 -229 202 -325q116 -69 249 -69q186 0 292 98v-206q-123 -58 -276 -58q-452 0 -611 376q-34 82 -55 184h-153l28 134h105q-3 42 -3 91 q0 27 1 41h-131l28 134h116q61 325 323 468q160 88 355 88q186 0 313 -81l-40 -186q-122 101 -277 101z" />
<glyph unicode="&#x2122;" horiz-adv-x="2048" d="M1107 651h-125v815h200l206 -651l199 651h196v-815h-124v684l-210 -684h-123l-219 694v-694zM625 651h-136v694h-264v121h666v-121h-266v-694z" />
<glyph unicode="&#xe000;" horiz-adv-x="995" d="M0 995h995v-995h-995v995z" />
<glyph unicode="&#xfb01;" horiz-adv-x="1024" d="M885 0h-180v1062h180v-1062zM885 1259h-180v207h180v-207zM363 0h-180v923h-160v139h160v103q0 326 283 326q97 0 183 -23l-28 -152q-53 9 -97 9q-93 0 -127 -37t-34 -157v-69h206v-139h-206v-923z" />
<glyph unicode="&#xfb02;" horiz-adv-x="1024" d="M883 0h-180v1466h180v-1466zM363 0h-180v923h-160v139h160v103q0 326 283 326q97 0 183 -23l-28 -152q-53 9 -97 9q-93 0 -127 -37t-34 -157v-69h206v-139h-206v-923z" />
<glyph unicode="&#xfb03;" horiz-adv-x="1998" d="M1631 0v995h226v-995h-226zM1744 1110q-56 0 -94.5 39t-38.5 94t38.5 94t94.5 39t94.5 -39t38.5 -94t-38.5 -94t-94.5 -39zM970 1022q0 220 117.5 346.5t316.5 126.5q87 0 160 -29l-22 -166q-57 21 -123 21q-107 0 -165 -71t-58 -197v-58h249v-174h-249v-821h-226v821 h-164v174h164v27zM225 1022q0 220 117.5 346.5t316.5 126.5q87 0 160 -29l-22 -166q-57 21 -123 21q-107 0 -165 -71t-58 -197v-58h249v-174h-249v-821h-226v821h-164v174h164v27z" />
<glyph unicode="&#xfb04;" horiz-adv-x="1998" d="M1857 0h-226v1475h226v-1475zM970 1022q0 220 117.5 346.5t316.5 126.5q87 0 160 -29l-22 -166q-57 21 -123 21q-107 0 -165 -71t-58 -197v-58h249v-174h-249v-821h-226v821h-164v174h164v27zM225 1022q0 220 117.5 346.5t316.5 126.5q87 0 160 -29l-22 -166 q-57 21 -123 21q-107 0 -165 -71t-58 -197v-58h249v-174h-249v-821h-226v821h-164v174h164v27z" />
<glyph horiz-adv-x="569" />
</font>
</defs>
</svg>
