<?xml version="1.0" standalone="no"?>
<!DOCTYPE svg PUBLIC "-//W3C//DTD SVG 1.1//EN" "http://www.w3.org/Graphics/SVG/1.1/DTD/svg11.dtd" >
<svg xmlns="http://www.w3.org/2000/svg">
<metadata>
This is a custom SVG webfont generated by Font Squirrel.
Copyright   : 2006 The Monotype Corporation All Rights Reserved
Designer    : Monotype Type Drawing Office  Robin Nicholas Patricia Saunders 1982
Foundry     : The Monotype Corporation
</metadata>
<defs>
<font id="webfontWTt21cKD" horiz-adv-x="1139" >
<font-face units-per-em="2048" ascent="1638" descent="-410" />
<missing-glyph horiz-adv-x="569" />
<glyph unicode=" "  horiz-adv-x="569" />
<glyph unicode="&#x09;" horiz-adv-x="569" />
<glyph unicode="&#xa0;" horiz-adv-x="569" />
<glyph unicode="!" horiz-adv-x="545" d="M389 96q0 -48 -34.5 -82t-82.5 -34q-49 0 -82.5 33.5t-33.5 82.5q0 48 34 82.5t82 34.5t82.5 -34.5t34.5 -82.5zM352 373h-159l-13 1016h185z" />
<glyph unicode="&#x22;" horiz-adv-x="664" d="M242 944h-123l-10 457q-1 24 15.5 32.5t53.5 8.5h103zM530 944h-122l-11 457q0 24 16.5 32.5t53.5 8.5h102z" />
<glyph unicode="#" horiz-adv-x="1024" d="M698 528h191v-94h-207l-59 -362h-111l59 362h-196l-60 -362h-110l59 362h-174v94h189l47 291h-191v94h207l59 363h111l-59 -363h196l60 363h110l-59 -363h174v-94h-189zM586 528l47 291h-195l-47 -291h195z" />
<glyph unicode="$" horiz-adv-x="1069" d="M895 430q0 -143 -83 -237.5t-226 -120.5v-203h-127v192q-161 8 -291 70l20 139q153 -69 289 -69q113 0 172.5 52t59.5 148q0 83 -45 133t-175 103q-154 64 -221 140.5t-67 193.5q0 112 72.5 190.5t187.5 104.5v215h127v-203q145 -6 243 -61l-18 -134q-114 56 -248 56 q-78 0 -128 -41t-50 -111q0 -75 41.5 -120t144.5 -87q175 -71 248.5 -153t73.5 -197z" />
<glyph unicode="%" horiz-adv-x="1724" d="M1282 676q141 0 229 -102t88 -246q0 -145 -88 -246.5t-229 -101.5q-140 0 -228.5 101.5t-88.5 246.5q0 144 88.5 246t228.5 102zM1282 106q77 0 119.5 60t42.5 162q0 101 -42.5 161t-119.5 60t-119.5 -60t-42.5 -161q0 -102 42.5 -162t119.5 -60zM442 1368 q141 0 229.5 -102t88.5 -246t-88.5 -246t-229.5 -102q-140 0 -228.5 102t-88.5 246t88.5 246t228.5 102zM442 799q77 0 119.5 59.5t42.5 161.5t-42.5 161.5t-119.5 59.5t-119 -59.5t-42 -161.5t42 -161.5t119 -59.5zM1268 1409h131l-942 -1450h-131z" />
<glyph unicode="&#x26;" horiz-adv-x="1382" d="M1317 0h-223l-107 129h-4q-168 -149 -426 -149q-89 0 -170 23t-147.5 67t-106 116.5t-39.5 163.5q0 72 22 133t68.5 114.5t104 98.5t143.5 99v4q-72 55 -126 135t-54 162q0 139 98 226t232 87q143 0 231 -82t88 -209q0 -96 -63 -176.5t-187 -161.5v-4l346 -401h4 q70 122 76 313h160q-11 -249 -139 -436zM580 1272q-61 0 -100.5 -45t-39.5 -121q0 -110 123 -223h4q152 96 152 223q0 80 -37 123t-102 43zM571 119q86 0 175 30.5t149 88.5v4l-377 450h-4q-123 -75 -177 -154t-54 -176q0 -109 83.5 -176t204.5 -67z" />
<glyph unicode="'" horiz-adv-x="375" d="M242 944h-123l-10 457q-1 24 15.5 32.5t53.5 8.5h103z" />
<glyph unicode="(" horiz-adv-x="623" d="M317 629q0 -216 59 -436t152 -386h-127q-239 376 -239 822q0 445 239 821h127q-93 -166 -152 -386t-59 -435z" />
<glyph unicode=")" horiz-adv-x="623" d="M305 629q0 216 -59 435.5t-152 385.5h127q240 -377 240 -821q0 -445 -240 -822h-127q93 166 152 386t59 436z" />
<glyph unicode="*" horiz-adv-x="979" d="M487 926l-149 -260l-129 94l201 223v4l-295 62l49 153l272 -123h4l-30 301h159l-30 -301h4l272 123l49 -153l-295 -62v-4l201 -223l-129 -94l-149 260h-5z" />
<glyph unicode="+" horiz-adv-x="1212" d="M676 588h424v-127h-424v-461h-139v461h-424v127h424v461h139v-461z" />
<glyph unicode="," horiz-adv-x="467" d="M137 125q7 25 30 40t54 15h131q-85 -256 -188 -491l-162 -27q83 261 135 463z" />
<glyph unicode="-" horiz-adv-x="760" d="M621 588v-127h-482v127h482z" />
<glyph unicode="." horiz-adv-x="463" d="M231 213q48 0 82.5 -34.5t34.5 -82.5t-34.5 -82t-82.5 -34q-49 0 -82.5 33.5t-33.5 82.5q0 48 34 82.5t82 34.5z" />
<glyph unicode="/" horiz-adv-x="772" d="M631 1434h151l-641 -1510h-151z" />
<glyph unicode="0" horiz-adv-x="1069" d="M1012 670q0 -150 -30 -274.5t-88 -218t-149.5 -145.5t-209.5 -52t-210 52t-150 145.5t-88 218t-30 274.5q0 149 30 274t88 218.5t150 145.5t210 52t209.5 -52t149.5 -145.5t88 -218.5t30 -274zM246 670q0 -261 72 -406t217 -145t216.5 145t71.5 406t-71.5 406t-216.5 145 t-217 -145t-72 -406z" />
<glyph unicode="1" horiz-adv-x="1069" d="M586 1348h86v-1348h-172v1153l-273 -106l-18 133z" />
<glyph unicode="2" horiz-adv-x="1069" d="M944 131v-131h-860v137l154 170l136 151l106 120q58 66 86 102l61 78q33 44 46 68.5t26 55.5t16.5 55t3.5 52q0 116 -71 178t-206 62q-127 0 -268 -74l-18 137q149 76 319 76q205 0 318.5 -95.5t113.5 -252.5q0 -37 -4.5 -70t-19 -71t-29.5 -69t-48.5 -79l-61.5 -85 l-85 -102l-101 -117l-126 -142l-133 -150v-4h645z" />
<glyph unicode="3" horiz-adv-x="1069" d="M414 -20q-75 0 -165 16t-155 45l19 137q159 -59 325 -59q136 0 225 65.5t89 180.5q0 121 -94.5 184.5t-268.5 71.5v131q138 10 233 82t95 190q0 99 -77.5 152t-193.5 53q-118 0 -258 -60l-18 138q152 61 326 61q182 0 295.5 -87t113.5 -228q0 -128 -78 -207t-213 -125v-4 q146 -34 236 -118.5t90 -211.5q0 -130 -70.5 -223.5t-187.5 -138.5t-268 -45z" />
<glyph unicode="4" horiz-adv-x="1069" d="M852 459h184v-131h-184v-328h-172v328h-631v135l621 885h182v-889zM236 459h444v340q0 160 12 350h-4q-89 -153 -186 -295l-266 -391v-4z" />
<glyph unicode="5" horiz-adv-x="1069" d="M336 786q88 43 188 43q187 0 304.5 -108t117.5 -281q0 -207 -144.5 -333.5t-367.5 -126.5q-182 0 -319 67l18 141q165 -69 322 -69q136 0 219.5 81.5t83.5 215.5q0 125 -74.5 199.5t-194.5 74.5q-50 0 -101.5 -14.5t-86.5 -38.5l-137 6l20 705h682v-131h-522l-14 -431h6z " />
<glyph unicode="6" horiz-adv-x="1069" d="M530 -20q-199 0 -320.5 158t-121.5 421q0 185 60 339t160 254t225.5 156t261.5 60l18 -133q-228 -25 -373 -170.5t-166 -384.5h5q30 63 118.5 112.5t184.5 49.5q176 0 289.5 -113.5t113.5 -284.5q0 -136 -61.5 -243t-165 -164t-228.5 -57zM526 702q-111 0 -181.5 -65.5 t-70.5 -175.5q0 -152 78 -247t193 -95q112 0 182 79.5t70 217.5q0 125 -74 205.5t-197 80.5z" />
<glyph unicode="7" horiz-adv-x="1069" d="M969 1348v-129l-553 -1219h-180l557 1212v5h-662v131h838z" />
<glyph unicode="8" horiz-adv-x="1069" d="M688 715q146 -67 215.5 -150.5t69.5 -195.5q0 -173 -129 -281t-312 -108q-120 0 -217.5 39.5t-159 123t-61.5 199.5q0 64 22.5 118t65.5 96.5t93.5 74.5t117.5 63v4q-119 63 -182.5 141.5t-63.5 186.5q0 144 117.5 243t286.5 99q170 0 278.5 -90.5t108.5 -237.5 q0 -107 -65 -184t-185 -137v-4zM332 1034q0 -82 51.5 -138.5t163.5 -113.5q207 80 207 238q0 95 -56.5 154t-148.5 59q-96 0 -156.5 -56.5t-60.5 -142.5zM537 115q111 0 181 64.5t70 174.5q0 95 -60.5 164.5t-195.5 120.5q-253 -97 -253 -274q0 -113 71.5 -181.5 t186.5 -68.5z" />
<glyph unicode="9" horiz-adv-x="1069" d="M539 1368q199 0 320.5 -158t121.5 -422q0 -148 -39 -278t-107 -224t-158 -163t-192.5 -104.5t-210.5 -38.5l-18 133q227 24 371.5 169.5t167.5 385.5h-4q-32 -63 -120 -112.5t-184 -49.5q-177 0 -290 113t-113 284q0 206 131.5 335.5t323.5 129.5zM543 645 q111 0 181.5 65.5t70.5 176.5q0 152 -78 247t-193 95q-112 0 -182 -80t-70 -217q0 -125 74 -206t197 -81z" />
<glyph unicode=":" horiz-adv-x="463" d="M231 213q48 0 82.5 -34.5t34.5 -82.5t-34.5 -82t-82.5 -34q-49 0 -82.5 33.5t-33.5 82.5q0 48 34 82.5t82 34.5zM231 1012q48 0 82.5 -35t34.5 -82q0 -49 -34.5 -83t-82.5 -34q-49 0 -82.5 34t-33.5 83q0 48 34 82.5t82 34.5z" />
<glyph unicode=";" horiz-adv-x="489" d="M137 125q7 25 30 40t54 15h131q-85 -256 -188 -491l-162 -27q83 261 135 463zM258 1012q48 0 82.5 -35t34.5 -82q0 -49 -34.5 -83t-82.5 -34q-49 0 -83 34t-34 83q0 48 34.5 82.5t82.5 34.5z" />
<glyph unicode="&#x3c;" horiz-adv-x="971" d="M223 539l619 -330v-160l-758 412v160l758 411v-160l-619 -327v-6z" />
<glyph unicode="=" horiz-adv-x="1331" d="M1169 236h-1007v126h1007v-126zM1169 686h-1007v127h1007v-127z" />
<glyph unicode="&#x3e;" horiz-adv-x="971" d="M748 543l-619 329v160l758 -411v-160l-758 -412v160l619 328v6z" />
<glyph unicode="?" horiz-adv-x="831" d="M444 96q0 48 -34.5 82.5t-81.5 34.5q-49 0 -83 -34.5t-34 -82.5q0 -49 34 -82.5t83 -33.5q48 0 82 34t34 82zM737 1104q0 -95 -45 -174t-137 -182q-85 -95 -113 -158.5t-28 -147.5v-69h-172v51q0 128 35.5 210.5t132.5 188.5q68 76 103.5 135.5t35.5 126.5 q0 87 -57.5 136t-155.5 49q-122 0 -244 -68l-18 137q134 70 291 70q170 0 271 -85.5t101 -219.5z" />
<glyph unicode="@" horiz-adv-x="1808" d="M1030 1208q131 0 245.5 -47.5t192 -125.5t122 -180t44.5 -210q0 -155 -52.5 -279t-146 -194t-210.5 -70q-72 0 -118.5 27.5t-76.5 95.5h-4q-58 -73 -121 -105t-145 -32q-97 0 -173.5 81.5t-76.5 199.5q0 243 132.5 378.5t367.5 135.5q59 0 124.5 -13t106.5 -34l-74 -484 q-11 -78 18.5 -116.5t86.5 -38.5q97 0 168 112.5t71 294.5q0 225 -145 367.5t-383 142.5q-142 0 -273.5 -51t-232 -142t-161 -226t-60.5 -292q0 -130 43.5 -240.5t116.5 -185t170.5 -116t204.5 -41.5q238 0 419 108l13 -94q-196 -108 -455 -108q-177 0 -321.5 81t-229 228.5 t-84.5 333.5q0 149 47.5 282.5t132 234t196.5 173.5t245.5 111t275.5 38zM1049 483l36 269q-75 16 -102 16q-144 0 -230.5 -97.5t-86.5 -281.5q0 -84 41.5 -135t99.5 -51q94 0 158.5 71.5t83.5 208.5z" />
<glyph unicode="A" horiz-adv-x="1235" d="M1008 0l-152 457h-485l-154 -457h-168l483 1389h175l483 -1389h-182zM410 588h407l-8 24q-143 432 -193 609h-6q-45 -164 -192 -609z" />
<glyph unicode="B" horiz-adv-x="1116" d="M735 756q133 -39 205 -122.5t72 -205.5q0 -204 -148.5 -321t-404.5 -117q-165 0 -303 22v1360q178 27 344 27q228 0 351.5 -84.5t123.5 -237.5q0 -121 -69 -200.5t-171 -116.5v-4zM328 782h178q120 0 200 68.5t80 179.5q0 112 -76.5 171t-222.5 59q-70 0 -159 -13v-465z M494 655h-166v-516q69 -10 164 -10q148 0 239.5 70.5t91.5 199.5q0 122 -83.5 189t-245.5 67z" />
<glyph unicode="C" horiz-adv-x="1233" d="M78 676q0 168 58 307.5t157.5 232t232 143t283.5 50.5q233 0 365 -66l-19 -141q-163 68 -338 68q-237 0 -394 -157t-157 -423q0 -275 141 -423t384 -148q85 0 180 18.5t168 50.5l18 -141q-156 -67 -385 -67q-149 0 -276 46t-220 133t-145.5 219.5t-52.5 297.5z" />
<glyph unicode="D" horiz-adv-x="1407" d="M156 1370q163 29 362 29q388 0 599.5 -167.5t211.5 -494.5q0 -147 -44.5 -270.5t-121.5 -210.5t-181 -147.5t-222 -89.5t-246 -29q-201 0 -358 22v1358zM328 1247v-1110q95 -8 207 -8q126 0 234.5 37t192 108t131.5 185t48 258q0 254 -157 398.5t-447 144.5 q-127 0 -209 -13z" />
<glyph unicode="E" horiz-adv-x="1006" d="M328 139h585v-139h-757v1389h739v-140h-567v-463h497v-139h-497v-508z" />
<glyph unicode="F" horiz-adv-x="954" d="M328 0h-172v1389h739v-140h-567v-483h497v-139h-497v-627z" />
<glyph unicode="G" horiz-adv-x="1337" d="M811 1270q-116 0 -215 -38.5t-172.5 -111t-115.5 -183t-42 -247.5q0 -284 140.5 -422.5t388.5 -138.5q136 0 241 33v403h-278v140h450v-644q-75 -32 -205 -51.5t-231 -19.5q-206 0 -361.5 78t-244 234.5t-88.5 373.5q0 165 57 304t155 232t230.5 145t282.5 52 q234 0 364 -66l-18 -141q-163 68 -338 68z" />
<glyph unicode="H" horiz-adv-x="1399" d="M1071 1389h172v-1389h-172v645h-743v-645h-172v1389h172v-605h743v605z" />
<glyph unicode="I" horiz-adv-x="483" d="M328 0h-172v1389h172v-1389z" />
<glyph unicode="J" horiz-adv-x="795" d="M649 481q0 -259 -112.5 -380t-329.5 -121q-105 0 -201 28l19 139q91 -28 182 -28q143 0 206.5 81t63.5 265v924h172v-908z" />
<glyph unicode="K" horiz-adv-x="1130" d="M1126 1389l-579 -641l620 -748h-235l-492 627h-6l-106 -117v-510h-172v1389h172v-674h8l577 674h213z" />
<glyph unicode="L" horiz-adv-x="997" d="M328 131h633v-131h-805v1389h172v-1258z" />
<glyph unicode="M" horiz-adv-x="1677" d="M1495 1389l49 -1389h-172l-29 803q-2 63 -2 127q0 117 7 235h-7q-41 -165 -120 -362l-310 -762h-166l-305 762q-75 188 -118 356h-7q9 -118 9 -241q0 -57 -2 -115l-29 -803h-160l49 1389h213l283 -719q103 -263 153 -453h7q52 183 159 453l287 719h211z" />
<glyph unicode="N" horiz-adv-x="1409" d="M1260 1389v-1389h-199l-502 778q-123 193 -254 420h-6q10 -297 10 -473v-725h-159v1389h219l501 -779q139 -213 234 -391h6q-10 300 -10 445v725h160z" />
<glyph unicode="O" horiz-adv-x="1499" d="M750 1409q138 0 260 -49.5t213.5 -139.5t144.5 -226t53 -300q0 -163 -53 -299t-144.5 -226t-213.5 -139.5t-260 -49.5t-260.5 49.5t-214 139.5t-144.5 226t-53 299q0 164 53 300t144.5 226t214 139.5t260.5 49.5zM750 1270q-104 0 -192 -38.5t-153 -110t-102 -181.5 t-37 -246q0 -270 135.5 -422.5t348.5 -152.5q212 0 347.5 152.5t135.5 422.5q0 271 -135.5 423.5t-347.5 152.5z" />
<glyph unicode="P" horiz-adv-x="1042" d="M328 1249v-565q70 -6 143 -6q65 0 124.5 18t107 52.5t76 92t28.5 130.5q0 136 -86.5 212.5t-228.5 76.5q-86 0 -164 -11zM156 0v1370q183 29 342 29q231 0 364 -107t133 -295q0 -109 -45 -198t-120.5 -144.5t-170 -85.5t-198.5 -30q-23 0 -63.5 3t-65.5 3h-4v-545h-172z " />
<glyph unicode="Q" horiz-adv-x="1499" d="M1421 694q0 -247 -117 -421.5t-309 -247.5l78 -291l-168 -41l-71 293q-40 -6 -84 -6q-138 0 -260.5 49.5t-214 139.5t-144.5 226t-53 299q0 164 53 300t144.5 226t214 139.5t260.5 49.5t260 -49.5t213.5 -139.5t144.5 -226t53 -300zM750 1270q-104 0 -192 -38.5 t-153 -110t-102 -181.5t-37 -246q0 -270 135.5 -422.5t348.5 -152.5q212 0 347.5 152.5t135.5 422.5q0 271 -135.5 423.5t-347.5 152.5z" />
<glyph unicode="R" horiz-adv-x="1085" d="M328 731h143q164 0 256 67.5t92 207.5q0 124 -83.5 187.5t-231.5 63.5q-100 0 -176 -12v-514zM506 600h-178v-600h-172v1362q191 35 356 35q236 0 366 -91.5t130 -265.5q0 -129 -82 -222.5t-195 -127.5v-4q92 -37 134.5 -102t68.5 -191q49 -234 104 -393h-196 q-53 188 -90 381q-21 104 -77 161.5t-169 57.5z" />
<glyph unicode="S" horiz-adv-x="1014" d="M137 1038q0 167 126.5 269t318.5 102q164 0 280 -49l-18 -139q-128 49 -252 49q-117 0 -192.5 -56.5t-75.5 -156.5q0 -102 55.5 -162t181.5 -111q190 -76 274.5 -160.5t84.5 -224.5q0 -102 -40 -183t-109.5 -132t-160 -77.5t-194.5 -26.5q-183 0 -322 51l19 141 q155 -53 311 -53q138 0 223.5 63.5t85.5 182.5q0 98 -57.5 157.5t-198.5 116.5q-181 73 -260.5 164t-79.5 235z" />
<glyph unicode="T" horiz-adv-x="1016" d="M1012 1389v-140h-420v-1249h-172v1249h-416v140h1008z" />
<glyph unicode="U" horiz-adv-x="1251" d="M1114 477q0 -121 -37.5 -217t-104 -156.5t-153.5 -92t-190 -31.5q-137 0 -246 52.5t-174.5 158t-65.5 247.5v951h172v-930q0 -167 84 -253.5t234 -86.5q158 0 239.5 85.5t81.5 254.5v930h160v-912z" />
<glyph unicode="V" horiz-adv-x="1157" d="M987 1389h168l-483 -1389h-176l-484 1389h183l204 -613q108 -321 189 -614h6q76 279 188 614z" />
<glyph unicode="W" horiz-adv-x="1823" d="M1640 1389h172l-417 -1389h-178l-181 674q-74 284 -118 510h-7q-44 -244 -114 -508l-183 -676h-176l-418 1389h185l192 -672q92 -322 131 -535h7q40 234 118 531l181 676h178l180 -674q64 -240 119 -535h6q46 237 131 535z" />
<glyph unicode="X" horiz-adv-x="1044" d="M1020 1389l-404 -674l433 -715h-201l-328 586h-4l-323 -586h-185l424 707l-412 682h201l305 -553h4l306 553h184z" />
<glyph unicode="Y" horiz-adv-x="1090" d="M903 1389h184l-448 -785v-604h-172v590l-455 799h197l342 -641h6z" />
<glyph unicode="Z" horiz-adv-x="1120" d="M260 131h795v-131h-981v147l757 1106v4h-698v132h881v-148l-754 -1106v-4z" />
<glyph unicode="[" horiz-adv-x="635" d="M557 1307h-229v-1358h229v-127h-369v1612h369v-127z" />
<glyph unicode="\" horiz-adv-x="772" d="M141 1434l641 -1510h-151l-641 1510h151z" />
<glyph unicode="]" horiz-adv-x="635" d="M78 1307v127h368v-1612h-368v127h237v1358h-237z" />
<glyph unicode="^" horiz-adv-x="1135" d="M645 1380l375 -798h-156l-293 651h-4l-297 -651h-155l374 798h156z" />
<glyph unicode="_" horiz-adv-x="1155" d="M1081 -227h-1007v127h1007v-127z" />
<glyph unicode="`" horiz-adv-x="582" d="M68 1442h137q30 0 47 -31q76 -142 174 -287l-152 -6q-111 152 -206 324z" />
<glyph unicode="a" horiz-adv-x="1022" d="M514 1012q173 0 268 -87t95 -253v-672h-166l-6 154h-5q-40 -81 -117.5 -127.5t-174.5 -46.5q-127 0 -218.5 85t-91.5 230q0 159 124.5 250.5t318.5 91.5q92 0 164 -12v28q0 228 -216 228q-116 0 -266 -58l-16 131q150 58 307 58zM705 426v86q-82 12 -138 12 q-145 0 -214.5 -57.5t-69.5 -159.5q0 -90 48.5 -143t127.5 -53q110 0 178 84.5t68 230.5z" />
<glyph unicode="b" horiz-adv-x="1182" d="M332 154h-4l-6 -154h-166v1475h172v-637h4q126 174 332 174q202 0 318 -135.5t116 -362.5q0 -236 -124 -385t-323 -149q-213 0 -319 174zM328 555v-119q0 -141 82.5 -233t203.5 -92q146 0 225 103.5t79 283.5q0 174 -81.5 278.5t-226.5 104.5q-127 0 -204.5 -95.5 t-77.5 -230.5z" />
<glyph unicode="c" horiz-adv-x="950" d="M264 500q0 -192 90.5 -290.5t245.5 -98.5q138 0 264 57l17 -131q-134 -57 -312 -57q-140 0 -248 55t-172.5 169t-64.5 273q0 128 41 230t113.5 168.5t170.5 101.5t214 35q148 0 268 -60l-17 -131q-125 60 -266 60q-151 0 -247.5 -100t-96.5 -281z" />
<glyph unicode="d" horiz-adv-x="1182" d="M850 838h4v637h172v-1475h-166l-6 154h-4q-125 -174 -332 -174q-202 0 -318 135t-116 362q0 236 123.5 385.5t322.5 149.5q213 0 320 -174zM854 436v119q0 141 -83.5 233.5t-203.5 92.5q-146 0 -224.5 -104.5t-78.5 -282.5q0 -175 80.5 -279t226.5 -104q128 0 205.5 95 t77.5 230z" />
<glyph unicode="e" horiz-adv-x="1040" d="M946 457h-690q3 -167 91.5 -256.5t240.5 -89.5q153 0 270 57l16 -131q-140 -57 -311 -57q-216 0 -347.5 127t-131.5 370q0 229 136.5 382t342.5 153q185 0 287 -129t102 -328q0 -43 -6 -98zM549 881q-120 0 -193 -77.5t-92 -211.5h518q0 127 -61.5 208t-171.5 81z" />
<glyph unicode="f" horiz-adv-x="715" d="M233 1055q0 211 100 325.5t283 114.5q90 0 162 -29l-16 -127q-65 25 -144 25q-102 0 -157 -74t-55 -209v-90h253v-131h-253v-860h-173v860h-161v131h161v64z" />
<glyph unicode="g" horiz-adv-x="1178" d="M1022 991v-837q0 -149 -40 -261.5t-113 -180.5t-169 -101t-215 -33q-189 0 -319 72l16 135q156 -76 295 -76q171 0 272 93.5t101 291.5v72h-4q-125 -174 -332 -174q-199 0 -314.5 134t-115.5 359q0 235 123 381t319 146q213 0 320 -174h4l6 153h166zM563 881 q-141 0 -220 -101.5t-79 -277.5q0 -174 80 -276.5t223 -102.5q128 0 205.5 95.5t77.5 230.5v106q0 141 -83.5 233.5t-203.5 92.5z" />
<glyph unicode="h" horiz-adv-x="1122" d="M328 827h4q124 185 323 185q158 0 240 -93t82 -274v-645h-172v592q0 150 -42 215t-157 65q-119 0 -198.5 -89t-79.5 -238v-545h-172v1475h172v-648z" />
<glyph unicode="i" horiz-adv-x="483" d="M156 0v991h172v-991h-172zM242 1137q-45 0 -76 31t-31 75q0 45 31 76t76 31q44 0 75 -31t31 -76q0 -44 -31 -75t-75 -31z" />
<glyph unicode="j" horiz-adv-x="508" d="M266 1137q-44 0 -75 31t-31 75q0 45 31 76t75 31q45 0 76 -31t31 -76q0 -44 -31 -75t-76 -31zM180 68v923h172v-911q0 -448 -440 -502l-16 135q75 16 124.5 38t87.5 62t55 102.5t17 152.5z" />
<glyph unicode="k" horiz-adv-x="995" d="M971 991l-408 -413l455 -578h-221l-348 455h-7l-114 -123v-332h-172v1475h172v-953h6l414 469h223z" />
<glyph unicode="l" horiz-adv-x="483" d="M328 0h-172v1475h172v-1475z" />
<glyph unicode="m" horiz-adv-x="1681" d="M1364 612q0 131 -42.5 195.5t-137.5 64.5q-116 0 -184 -99t-68 -269v-504h-172v612q0 131 -42.5 195.5t-137.5 64.5q-115 0 -183.5 -100t-68.5 -268v-504h-172v991h166l6 -164h4q117 185 301 185q114 0 180.5 -57t97.5 -167h7q50 104 133 164t186 60q147 0 223 -89.5 t76 -256.5v-666h-172v612z" />
<glyph unicode="n" horiz-adv-x="1122" d="M328 827h4q124 185 323 185q158 0 240 -93t82 -274v-645h-172v592q0 150 -42 215t-157 65q-119 0 -198.5 -89t-79.5 -238v-545h-172v991h166z" />
<glyph unicode="o" horiz-adv-x="1122" d="M561 1012q146 0 255.5 -69t165.5 -185t56 -262q0 -224 -129 -370t-348 -146t-348 146t-129 370q0 146 56 262t165.5 185t255.5 69zM561 111q99 0 168 54t99 138.5t30 192.5q0 79 -17.5 147.5t-53 122t-93.5 84.5t-133 31t-133 -31t-93.5 -84.5t-53 -122t-17.5 -147.5 q0 -108 30 -192.5t99 -138.5t168 -54z" />
<glyph unicode="p" horiz-adv-x="1182" d="M332 154h-4v-555h-172v1392h166l6 -153h4q126 174 332 174q202 0 318 -135.5t116 -362.5q0 -236 -124 -385t-323 -149q-213 0 -319 174zM328 555v-119q0 -141 82.5 -233t203.5 -92q146 0 225 103.5t79 283.5q0 174 -81.5 278.5t-226.5 104.5q-127 0 -204.5 -95.5 t-77.5 -230.5z" />
<glyph unicode="q" horiz-adv-x="1182" d="M850 838h4l6 153h166v-1392h-172v555h-4q-125 -174 -332 -174q-202 0 -318 135t-116 362q0 236 123.5 385.5t322.5 149.5q213 0 320 -174zM854 436v119q0 141 -83.5 233.5t-203.5 92.5q-146 0 -224.5 -104.5t-78.5 -282.5q0 -175 80.5 -279t226.5 -104q128 0 205.5 95 t77.5 230z" />
<glyph unicode="r" horiz-adv-x="643" d="M612 842q-47 -3 -106 -29q-42 -19 -72.5 -46.5t-55.5 -73t-37.5 -115t-12.5 -162.5v-416h-172v991h170l2 -215h4q40 99 116 165.5t168 70.5z" />
<glyph unicode="s" horiz-adv-x="819" d="M371 430q-246 84 -246 287q0 132 89.5 213.5t248.5 81.5q133 0 221 -45l-16 -131q-100 45 -199 45q-73 0 -120.5 -37.5t-47.5 -98.5q0 -64 38 -107t128 -75q131 -47 192.5 -112t61.5 -164q0 -143 -106 -225t-269 -82q-158 0 -264 53l16 133q121 -55 242 -55q89 0 147 39 t58 106q0 63 -41.5 103t-132.5 71z" />
<glyph unicode="t" horiz-adv-x="715" d="M621 991v-131h-238v-573q0 -91 32.5 -133.5t106.5 -42.5q61 0 111 20l18 -125q-62 -26 -182 -26q-123 0 -190.5 65.5t-67.5 198.5v616h-158v131h158v219h172v-219h238z" />
<glyph unicode="u" horiz-adv-x="1122" d="M795 164h-4q-125 -184 -324 -184q-159 0 -240.5 92.5t-81.5 273.5v645h172v-592q0 -150 42 -215t157 -65q119 0 199 89t80 238v545h172v-991h-166z" />
<glyph unicode="v" horiz-adv-x="985" d="M805 991h168l-391 -991h-174l-390 991h185l182 -495q79 -217 115 -334h6q52 160 117 334z" />
<glyph unicode="w" horiz-adv-x="1542" d="M1350 991h172l-340 -991h-178l-144 473q-44 148 -84 338h-6q-38 -189 -82 -336l-141 -475h-178l-342 991h186l152 -469q58 -184 96 -356h6q29 160 86 352l141 473h174l140 -471q59 -200 90 -356h6q30 159 94 356z" />
<glyph unicode="x" horiz-adv-x="963" d="M915 991l-346 -475v-6l375 -510h-213l-258 393h-6l-258 -393h-197l367 502v6l-354 483h213l233 -364h6l242 364h196z" />
<glyph unicode="y" horiz-adv-x="985" d="M414 -18l-396 1009h185l182 -495q79 -217 115 -334h6q52 160 117 334l182 495h168l-400 -1011q-72 -183 -183 -275.5t-279 -126.5l-17 135q237 49 307 236z" />
<glyph unicode="z" horiz-adv-x="858" d="M760 854l-510 -717v-6h538v-131h-725v137l510 717v6h-462v131h649v-137z" />
<glyph unicode="{" horiz-adv-x="705" d="M145 565v127q68 8 98 24.5t40.5 56.5t1.5 120l-27 233q-20 175 75 251.5t300 76.5v-127q-125 0 -187 -35t-53 -118l31 -265q15 -123 -19.5 -182t-130.5 -96v-4q96 -37 130.5 -96.5t19.5 -182.5l-31 -264q-9 -84 53 -119t187 -35v-127q-205 0 -300 77t-75 251l27 234 q8 46 4.5 79.5t-9.5 54.5t-25.5 34.5t-44 20.5t-65.5 11z" />
<glyph unicode="|" horiz-adv-x="516" d="M328 -512h-140v2048h140v-2048z" />
<glyph unicode="}" horiz-adv-x="705" d="M559 565q-41 -4 -65 -11t-44 -20.5t-25.5 -34.5t-9 -54.5t4.5 -79.5l26 -234q20 -174 -74.5 -251t-299.5 -77v127q124 0 186.5 35.5t52.5 118.5l-30 264q-15 124 19 183t130 96v4q-96 37 -130 95.5t-19 182.5l30 265q10 83 -52.5 118t-186.5 35v127q205 0 299.5 -77 t74.5 -251l-26 -233q-5 -41 -5 -69t5 -50t14.5 -35.5t28 -23t40.5 -14.5t56 -9v-127z" />
<glyph unicode="~" horiz-adv-x="1319" d="M633 461q-155 65 -202.5 81.5t-78.5 16.5q-97 0 -100 -153h-127q0 145 62.5 216.5t174.5 71.5q49 0 107.5 -19.5t216.5 -86.5q158 -66 204 -82.5t77 -16.5q97 0 100 152h127q0 -145 -62.5 -216t-175.5 -71q-48 0 -105 19.5t-218 87.5z" />
<glyph unicode="&#xa1;" horiz-adv-x="682" d="M284 697h116l55 -776v-325h-223v325zM240 1062h207v-205h-207v205z" />
<glyph unicode="&#xa2;" d="M415 177l223 763q-32 3 -50 3q-83 0 -154 -46q-70 -44 -106 -138.5t-36 -223.5q0 -266 123 -358zM744 894l-222 -766q33 -9 61 -9q103 0 179 71q76 70 93 199l179 -20q-33 -185 -157 -291q-122 -106 -291 -106q-47 0 -103 14l-118 -395l-112 32l115 398q-114 55 -188 183 q-73 128 -73 322q0 179 58 305q58 127 175 192q116 64 238 64q31 0 100 -8l113 387l110 -32l-112 -387q97 -42 151 -114t75 -183l-175 -27q-26 113 -96 171z" />
<glyph unicode="&#xa3;" d="M396 809h315v-148h-284q19 -42 19 -88q0 -193 -178 -382q78 22 144 22q86 0 187 -25q175 -41 233 -41q72 0 192 56l58 -165q-91 -39 -143 -51q-49 -12 -100 -12q-39 0 -85 8q-26 4 -130 36q-107 33 -132 38q-50 8 -94 8q-72 0 -153.5 -25t-148.5 -68l-69 173 q94 51 163 151q67 98 67 241q0 59 -17 124h-196v148h154q-33 113 -42 163q-9 52 -9 101q0 208 154 325q125 93 300 93q180 0 298 -100t145 -279l-179 -27q-15 120 -90 189q-73 69 -178 69q-111 0 -185 -72q-73 -70 -73 -172q0 -111 57 -290z" />
<glyph unicode="&#xa4;" d="M305 726q0 -108 76 -184t183 -76t183 76t76 184q0 107 -76 183q-75 76 -183 76q-107 0 -183 -76t-76 -183zM213 961l-139 136l115 119l139 -139q106 72 237 72q132 0 237 -72l139 139l116 -119l-139 -136q71 -110 71 -235q0 -126 -71 -236l139 -136l-116 -119l-139 140 q-104 -73 -237 -73q-131 0 -237 73l-139 -140l-115 119l139 136q-71 110 -71 236q0 125 71 235z" />
<glyph unicode="&#xa5;" d="M657 0h-180v325h-415v139h415v143h-415v148h341l-406 711h200l290 -516q48 -87 76 -154q21 48 82 163l274 507h214l-405 -711h341v-148h-412v-143h412v-139h-412v-325z" />
<glyph unicode="&#xa6;" horiz-adv-x="532" d="M188 360h157v-791h-157v791zM188 1491h157v-790h-157v790z" />
<glyph unicode="&#xa7;" d="M728 244q72 37 109.5 87t37.5 100q0 58 -52 120t-225 169q-136 84 -204 138q-80 -45 -115 -91t-35 -103q0 -64 46 -120q47 -58 207 -152q138 -82 231 -148zM143 -70l181 26q28 -130 89 -182q62 -53 166 -53q103 0 159 52q58 52 58 122q0 51 -36 94q-61 75 -340 245 q-150 93 -207 142q-60 54 -96 124.5t-36 143.5q0 96 60 174q59 77 165 109q-70 67 -99.5 124.5t-29.5 123.5q0 128 100 222t265 94q186 0 291.5 -88.5t126.5 -258.5l-187 -19q-20 119 -71.5 168.5t-143.5 49.5q-91 0 -149 -50q-56 -50 -56 -109q0 -52 36 -96 q57 -69 306 -220q153 -94 212 -141q138 -116 138 -263q0 -114 -73 -193q-42 -47 -154 -93q159 -120 159 -281q0 -87 -50 -166q-49 -79 -144 -120q-95 -42 -203 -42q-190 0 -302.5 94.5t-134.5 266.5z" />
<glyph unicode="&#xa8;" horiz-adv-x="682" d="M622 1270h-188v205h188v-205zM249 1270h-188v205h188v-205z" />
<glyph unicode="&#xa9;" horiz-adv-x="1509" d="M1000 614l123 -36q-30 -125 -128 -200q-98 -74 -236 -74q-177 0 -286 114q-108 113 -110 316q-2 197 110.5 312.5t293.5 113.5q131 -1 219.5 -63.5t121.5 -172.5l-119 -29q-30 74 -88.5 113.5t-137.5 39.5q-115 0 -190 -82q-74 -83 -74 -235q0 -153 70 -232 q71 -78 183 -78q91 0 158 52q68 53 90 141zM758 1366q-159 0 -310 -82q-149 -80 -235 -233q-85 -151 -85 -315q0 -165 83 -313q82 -148 234 -233q151 -83 313 -83t313 83q150 84 233 233q83 151 83 313q0 164 -85 315q-85 153 -235 233q-151 82 -309 82zM758 1491 q189 0 371 -98q181 -97 282 -279t101 -378t-100 -375q-99 -179 -279 -280q-179 -99 -375 -99q-199 0 -376 99q-178 99 -279 280q-100 179 -100 375t101 378q102 182 283 279q182 98 371 98z" />
<glyph unicode="&#xaa;" horiz-adv-x="758" d="M533 1104q-53 -14 -192 -36q-90 -14 -117 -39q-28 -25 -28 -64q0 -43 35 -71t95 -28q73 0 127 39q52 38 72 96q7 21 8 103zM548 853q-122 -107 -256 -107q-114 0 -179 61q-66 61 -66 158q0 145 145 193q34 12 99 21l147 22q38 6 96 20q-2 72 -14 94q-14 26 -50.5 42.5 t-92.5 16.5q-147 0 -166 -125l-137 34q12 90 88 148q76 60 217 60q165 0 232 -61t67 -181v-240l-1 -61q-1 -132 41 -184h-148q-21 43 -22 89z" />
<glyph unicode="&#xab;" d="M991 984l-264 -456l264 -456h-152l-313 456l313 456h152zM601 984l-261 -456l259 -456h-146l-319 456l319 456h148z" />
<glyph unicode="&#xac;" horiz-adv-x="1196" d="M1082 1030v-606h-170v438h-798v168h968z" />
<glyph unicode="&#xad;" horiz-adv-x="682" d="M621 588v-127h-482v127h482z" />
<glyph unicode="&#xae;" horiz-adv-x="1509" d="M558 1021v-245h159q115 0 155 34q42 34 42 90q0 35 -20 64q-20 30 -56 43q-36 14 -131 14h-149zM558 319h-131v812h279q141 0 207 -23q65 -22 102 -78q38 -56 38 -119q0 -90 -64 -155q-64 -67 -168 -74q44 -18 69 -43q49 -47 120 -161l99 -159h-160l-72 128 q-84 148 -137 189q-39 28 -105 28h-77v-345zM758 1366q-159 0 -310 -82q-149 -80 -235 -233q-85 -151 -85 -315q0 -165 83 -313q82 -148 234 -233q151 -83 313 -83t313 83q150 84 233 233q83 151 83 313q0 164 -85 315q-85 153 -235 233q-151 82 -309 82zM758 1491 q189 0 371 -98q181 -97 282 -279t101 -378t-100 -375q-99 -179 -279 -280q-179 -99 -375 -99q-199 0 -376 99q-178 99 -279 280q-100 179 -100 375t101 378q102 182 283 279q182 98 371 98z" />
<glyph unicode="&#xaf;" horiz-adv-x="1131" d="M1162 1566h-1193v129h1193v-129z" />
<glyph unicode="&#xb0;" horiz-adv-x="819" d="M237 1214q0 -71 49 -120t120 -49q69 0 118 49q50 50 50 120q0 69 -50 119t-118 50q-70 0 -120 -50q-49 -49 -49 -119zM128 1214q0 115 81 196q83 81 196 81q116 0 197 -81t81 -196t-82 -197q-81 -81 -196 -81q-113 0 -196 81q-81 81 -81 197z" />
<glyph unicode="&#xb1;" horiz-adv-x="1124" d="M1046 168v-168h-968v168h968zM647 260h-170v403h-399v167h399v399h170v-399h399v-167h-399v-403z" />
<glyph unicode="&#xb2;" horiz-adv-x="682" d="M648 733h-623q6 56 47 114q65 88 207 190q144 105 171 135q37 40 37 84q0 50 -36 80t-102 30t-99 -24q-32 -23 -53 -90l-151 16q30 112 101.5 164t204.5 52q150 0 221 -59t71 -144q0 -83 -59 -159q-43 -53 -205 -171q-83 -60 -118 -97h386v-121z" />
<glyph unicode="&#xb3;" horiz-adv-x="682" d="M33 929l146 15q19 -58 52 -82q43 -30 102 -30q71 0 114 39t43 94q0 110 -159 110q-5 0 -33 -2q-9 -1 -22 -1l22 110q77 -1 116.5 27.5t39.5 74.5q0 39 -31 64t-88 25q-56 0 -87.5 -22t-54.5 -80l-143 23q40 105 103 148q63 42 183 42q143 0 209 -54t66 -133 q0 -56 -36 -99t-102 -61q87 -21 130 -71t43 -120q0 -93 -79 -162t-225 -69q-265 0 -309 214z" />
<glyph unicode="&#xb4;" horiz-adv-x="682" d="M371 1194h-149l133 280h236z" />
<glyph unicode="&#xb5;" horiz-adv-x="1180" d="M841 1062h177v-1062h-161v126q-53 -81 -103 -110q-71 -41 -163 -41q-83 0 -147 33q-47 25 -106 99v-514h-178v1469h178v-450q0 -247 26 -318q26 -72 84.5 -114t134.5 -42q79 0 143 44q63 44 89 113q26 72 26 314v453z" />
<glyph unicode="&#xb6;" horiz-adv-x="1100" d="M570 -407h-165v1045q-189 11 -296 121q-108 111 -108 285q0 193 120 307q121 115 353 115h633v-173h-144v-1700h-170v1700h-223v-1700z" />
<glyph unicode="&#xb7;" horiz-adv-x="682" d="M443 637h-205v205h205v-205z" />
<glyph unicode="&#xb8;" horiz-adv-x="682" d="M216 -154l52 177h134l-33 -107q81 -9 126 -50.5t45 -96.5q0 -75 -72 -132q-71 -58 -217 -58q-83 0 -144 12l11 117q57 -4 94 -4q94 0 132 26q29 20 29 49q-4 22 -11.5 33t-43 22t-102.5 12z" />
<glyph unicode="&#xb9;" horiz-adv-x="682" d="M476 733h-145v554q-103 -82 -224 -113v123q59 19 138 73q77 52 123 114h108v-751z" />
<glyph unicode="&#xba;" horiz-adv-x="748" d="M373 1358q-85 0 -132.5 -59.5t-47.5 -183.5q0 -121 49 -182t131 -61q84 0 132 61t48 187q0 118 -49 178t-131 60zM373 1491q145 0 236 -100q92 -101 92 -276q0 -174 -92 -275q-91 -100 -235 -100q-145 0 -237 98t-92 273q0 180 91 280t237 100z" />
<glyph unicode="&#xbb;" d="M140 72l264 456l-264 456h151l314 -456l-314 -456h-151zM531 72l260 456l-261 456h148l319 -456l-319 -456h-147z" />
<glyph unicode="&#xbc;" horiz-adv-x="1708" d="M1200 231h230v263zM1574 -31h-144v154h-383v123l405 474h122v-489h104v-108h-104v-154zM476 733h-145v554q-103 -82 -224 -113v123q59 19 138 73q77 52 123 114h108v-751zM409 -57h-157l1102 1548h156z" />
<glyph unicode="&#xbd;" horiz-adv-x="1708" d="M1672 -31h-623q6 56 48 113q62 87 206 191q144 103 171 135q37 40 37 84q0 50 -35.5 79.5t-102.5 29.5q-66 0 -99 -24q-32 -23 -53 -89l-151 15q30 113 102 165t204 52q150 0 221 -59t71 -144q0 -83 -59 -159q-47 -58 -204 -172q-86 -63 -119 -96h386v-121zM476 733h-145 v554q-103 -82 -224 -113v123q59 19 138 73q77 52 123 114h108v-751zM385 -57h-157l1101 1548h157z" />
<glyph unicode="&#xbe;" horiz-adv-x="1708" d="M1200 231h229v263zM1574 -31h-145v154h-382v123l404 474h123v-489h104v-108h-104v-154zM33 929l146 15q19 -58 52 -82q43 -30 102 -30q71 0 114 39t43 94q0 113 -156 110q-15 0 -28 -0.5t-21 -1.5t-9 -1l22 110q77 -1 116.5 27.5t39.5 74.5q0 39 -31 64t-88 25 q-56 0 -87.5 -22t-54.5 -80l-143 23q40 105 103 148q63 42 183 42q143 0 209 -54t66 -133q0 -56 -36 -99t-102 -61q87 -21 130 -71t43 -120q0 -93 -79 -162t-225 -69q-265 0 -309 214zM409 -57h-157l1101 1548h157z" />
<glyph unicode="&#xbf;" horiz-adv-x="1251" d="M548 701h173q1 -23 1 -51q0 -110 -30 -187q-23 -61 -71 -117q-34 -41 -130 -125q-93 -83 -121 -131q-27 -50 -27 -107q0 -106 82 -185t201 -79q117 0 193.5 73.5t99.5 222.5l184 -21q-25 -203 -148.5 -313t-325.5 -110q-217 0 -344 117t-127 283q0 97 44 177 q46 81 176 196q92 83 116 116q27 38 39 85q13 48 15 156zM528 1062h205v-205h-205v205z" />
<glyph unicode="&#xc0;" horiz-adv-x="1366" d="M1008 0l-152 457h-485l-154 -457h-168l483 1389h175l483 -1389h-182zM410 588h407l-8 24q-143 432 -193 609h-6q-45 -164 -192 -609zM427 1804h137q30 0 47 -31q76 -142 174 -287l-152 -6q-111 152 -206 324z" />
<glyph unicode="&#xc1;" horiz-adv-x="1366" d="M1008 0l-152 457h-485l-154 -457h-168l483 1389h175l483 -1389h-182zM410 588h407l-8 24q-143 432 -193 609h-6q-45 -164 -192 -609zM690 1556h-149l133 280h236z" />
<glyph unicode="&#xc2;" horiz-adv-x="1366" d="M1008 0l-152 457h-485l-154 -457h-168l483 1389h175l483 -1389h-182zM410 588h407l-8 24q-143 432 -193 609h-6q-45 -164 -192 -609zM774 1556l-110 170l-113 -170h-206l216 280h192l225 -280h-204z" />
<glyph unicode="&#xc3;" horiz-adv-x="1366" d="M1008 0l-152 457h-485l-154 -457h-168l483 1389h175l483 -1389h-182zM410 588h407l-8 24q-143 432 -193 609h-6q-45 -164 -192 -609zM482 1556h-133q-2 104 57 166q57 62 146 62q62 0 169 -54q59 -30 94 -30q33 0 49.5 18.5t23.5 68.5h130q-3 -111 -56 -169.5t-140 -58.5 q-62 0 -166 56q-68 36 -98 36q-34 0 -55 -24q-23 -24 -21 -71z" />
<glyph unicode="&#xc4;" horiz-adv-x="1366" d="M1008 0l-152 457h-485l-154 -457h-168l483 1389h175l483 -1389h-182zM410 588h407l-8 24q-143 432 -193 609h-6q-45 -164 -192 -609zM940 1556h-188v205h188v-205zM567 1556h-188v205h188v-205z" />
<glyph unicode="&#xc5;" horiz-adv-x="1366" d="M1008 0l-152 457h-485l-154 -457h-168l483 1389h175l483 -1389h-182zM410 588h407l-8 24q-143 432 -193 609h-6q-45 -164 -192 -609zM557 1600q0 -48 31 -79q32 -32 75 -32q42 0 74 32t32 77q0 46 -31 77q-32 32 -75 32t-75 -32q-31 -31 -31 -75zM481 1601q0 73 53 126 q55 53 127 53q75 0 127 -54q53 -53 53 -129q0 -77 -53 -130t-126 -53q-75 0 -128 53q-53 55 -53 134z" />
<glyph unicode="&#xc6;" horiz-adv-x="2048" d="M832 1293l-339 -698h484v698h-145zM211 0h-210l705 1466h1203v-173h-737v-451h685v-172h-685v-497h764v-173h-959v423h-566z" />
<glyph unicode="&#xc7;" horiz-adv-x="1479" d="M78 676q0 168 58 307.5t157.5 232t232 143t283.5 50.5q233 0 365 -66l-19 -141q-163 68 -338 68q-237 0 -394 -157t-157 -423q0 -275 141 -423t384 -148q85 0 180 18.5t168 50.5l18 -141q-156 -67 -385 -67q-149 0 -276 46t-220 133t-145.5 219.5t-52.5 297.5zM620 -154 l52 177h134l-33 -107q81 -9 126 -50.5t45 -96.5q0 -75 -72 -132q-71 -58 -217 -58q-83 0 -144 12l11 117q57 -4 94 -4q94 0 132 26q29 20 29 49q-4 22 -11.5 33t-43 22t-102.5 12z" />
<glyph unicode="&#xc8;" horiz-adv-x="1366" d="M328 139h585v-139h-757v1389h739v-140h-567v-463h497v-139h-497v-508zM453 1804h137q30 0 47 -31q76 -142 174 -287l-152 -6q-111 152 -206 324z" />
<glyph unicode="&#xc9;" horiz-adv-x="1366" d="M328 139h585v-139h-757v1389h739v-140h-567v-463h497v-139h-497v-508zM711 1556h-149l133 280h236z" />
<glyph unicode="&#xca;" horiz-adv-x="1366" d="M328 139h585v-139h-757v1389h739v-140h-567v-463h497v-139h-497v-508zM817 1556l-110 170l-113 -170h-206l216 280h192l225 -280h-204z" />
<glyph unicode="&#xcb;" horiz-adv-x="1366" d="M328 139h585v-139h-757v1389h739v-140h-567v-463h497v-139h-497v-508zM986 1556h-188v205h188v-205zM613 1556h-188v205h188v-205z" />
<glyph unicode="&#xcc;" horiz-adv-x="569" d="M328 0h-172v1389h172v-1389zM33 1804h137q30 0 47 -31q76 -142 174 -287l-152 -6q-111 152 -206 324z" />
<glyph unicode="&#xcd;" horiz-adv-x="569" d="M328 0h-172v1389h172v-1389zM290 1556h-149l133 280h236z" />
<glyph unicode="&#xce;" horiz-adv-x="569" d="M328 0h-172v1389h172v-1389zM397 1556l-110 170l-113 -170h-206l216 280h192l225 -280h-204z" />
<glyph unicode="&#xcf;" horiz-adv-x="569" d="M328 0h-172v1389h172v-1389zM565 1556h-188v205h188v-205zM192 1556h-188v205h188v-205z" />
<glyph unicode="&#xd0;" horiz-adv-x="1479" d="M352 667v-494h313q145 0 228 27q82 27 130 75q147 147 147 468q0 171 -39 275q-37 102 -100 165q-62 62 -138 86q-77 24 -233 24h-308v-494h404v-132h-404zM687 0h-529v667h-161v132h161v667h506q170 0 260 -21q127 -29 215 -105q231 -195 231 -599q0 -223 -71 -386 q-70 -160 -170 -234q-97 -72 -228 -104q-73 -17 -214 -17z" />
<glyph unicode="&#xd1;" horiz-adv-x="1479" d="M1260 1389v-1389h-199l-502 778q-123 193 -254 420h-6q10 -297 10 -473v-725h-159v1389h219l501 -779q139 -213 234 -391h6q-10 300 -10 445v725h160zM563 1556h-133q-2 104 57 166q57 62 146 62q63 0 169 -54q58 -30 94 -30q33 0 49.5 18.5t23.5 68.5h130 q-3 -111 -56 -169.5t-140 -58.5q-62 0 -166 56q-67 36 -98 36q-34 0 -55 -24q-23 -24 -21 -71z" />
<glyph unicode="&#xd2;" horiz-adv-x="1593" d="M750 1409q138 0 260 -49.5t213.5 -139.5t144.5 -226t53 -300q0 -163 -53 -299t-144.5 -226t-213.5 -139.5t-260 -49.5t-260.5 49.5t-214 139.5t-144.5 226t-53 299q0 164 53 300t144.5 226t214 139.5t260.5 49.5zM750 1270q-104 0 -192 -38.5t-153 -110t-102 -181.5 t-37 -246q0 -270 135.5 -422.5t348.5 -152.5q212 0 347.5 152.5t135.5 422.5q0 271 -135.5 423.5t-347.5 152.5zM519 1804h137q30 0 47 -31q76 -142 174 -287l-152 -6q-111 152 -206 324z" />
<glyph unicode="&#xd3;" horiz-adv-x="1593" d="M750 1409q138 0 260 -49.5t213.5 -139.5t144.5 -226t53 -300q0 -163 -53 -299t-144.5 -226t-213.5 -139.5t-260 -49.5t-260.5 49.5t-214 139.5t-144.5 226t-53 299q0 164 53 300t144.5 226t214 139.5t260.5 49.5zM750 1270q-104 0 -192 -38.5t-153 -110t-102 -181.5 t-37 -246q0 -270 135.5 -422.5t348.5 -152.5q212 0 347.5 152.5t135.5 422.5q0 271 -135.5 423.5t-347.5 152.5zM826 1556h-149l133 280h236z" />
<glyph unicode="&#xd4;" horiz-adv-x="1593" d="M750 1409q138 0 260 -49.5t213.5 -139.5t144.5 -226t53 -300q0 -163 -53 -299t-144.5 -226t-213.5 -139.5t-260 -49.5t-260.5 49.5t-214 139.5t-144.5 226t-53 299q0 164 53 300t144.5 226t214 139.5t260.5 49.5zM750 1270q-104 0 -192 -38.5t-153 -110t-102 -181.5 t-37 -246q0 -270 135.5 -422.5t348.5 -152.5q212 0 347.5 152.5t135.5 422.5q0 271 -135.5 423.5t-347.5 152.5zM908 1556l-110 170l-113 -170h-206l216 280h192l225 -280h-204z" />
<glyph unicode="&#xd5;" horiz-adv-x="1593" d="M750 1409q138 0 260 -49.5t213.5 -139.5t144.5 -226t53 -300q0 -163 -53 -299t-144.5 -226t-213.5 -139.5t-260 -49.5t-260.5 49.5t-214 139.5t-144.5 226t-53 299q0 164 53 300t144.5 226t214 139.5t260.5 49.5zM750 1270q-104 0 -192 -38.5t-153 -110t-102 -181.5 t-37 -246q0 -270 135.5 -422.5t348.5 -152.5q212 0 347.5 152.5t135.5 422.5q0 271 -135.5 423.5t-347.5 152.5zM599 1556h-133q-2 104 57 166q57 62 146 62q63 0 169 -54q58 -30 94 -30q33 0 49.5 18.5t23.5 68.5h130q-3 -111 -56 -169.5t-140 -58.5q-62 0 -166 56 q-67 36 -98 36q-34 0 -55 -24q-23 -24 -21 -71z" />
<glyph unicode="&#xd6;" horiz-adv-x="1593" d="M750 1409q138 0 260 -49.5t213.5 -139.5t144.5 -226t53 -300q0 -163 -53 -299t-144.5 -226t-213.5 -139.5t-260 -49.5t-260.5 49.5t-214 139.5t-144.5 226t-53 299q0 164 53 300t144.5 226t214 139.5t260.5 49.5zM750 1270q-104 0 -192 -38.5t-153 -110t-102 -181.5 t-37 -246q0 -270 135.5 -422.5t348.5 -152.5q212 0 347.5 152.5t135.5 422.5q0 271 -135.5 423.5t-347.5 152.5zM1077 1556h-188v205h188v-205zM704 1556h-188v205h188v-205z" />
<glyph unicode="&#xd7;" horiz-adv-x="1196" d="M282 288l-121 121l315 315l-314 314l122 122l314 -314l313 313l120 -121l-312 -313l314 -314l-122 -122l-314 314z" />
<glyph unicode="&#xd8;" horiz-adv-x="1593" d="M1212 1094l-743 -832q74 -61 142 -88q85 -33 184 -33q218 0 360 154t142 432q0 209 -85 367zM384 362l746 835q-96 74 -165 101q-71 27 -165 27q-219 0 -362 -149t-143 -443q0 -118 22 -206q17 -69 67 -165zM1250 1332l168 188l99 -84l-176 -198q86 -128 116 -224 q40 -124 40 -282q0 -226 -91 -401q-92 -177 -256 -266q-164 -90 -349 -90q-137 0 -250 39q-87 30 -201 115l-168 -188l-99 84l176 197q-98 150 -131 254q-33 106 -33 254q0 226 90 402t252 268q163 91 362 91q133 0 234 -36q102 -35 217 -123z" />
<glyph unicode="&#xd9;" horiz-adv-x="1479" d="M1114 477q0 -121 -37.5 -217t-104 -156.5t-153.5 -92t-190 -31.5q-137 0 -246 52.5t-174.5 158t-65.5 247.5v951h172v-930q0 -167 84 -253.5t234 -86.5q158 0 239.5 85.5t81.5 254.5v930h160v-912zM457 1804h137q30 0 47 -31q76 -142 174 -287l-152 -6q-111 152 -206 324 z" />
<glyph unicode="&#xda;" horiz-adv-x="1479" d="M1114 477q0 -121 -37.5 -217t-104 -156.5t-153.5 -92t-190 -31.5q-137 0 -246 52.5t-174.5 158t-65.5 247.5v951h172v-930q0 -167 84 -253.5t234 -86.5q158 0 239.5 85.5t81.5 254.5v930h160v-912zM763 1556h-149l133 280h236z" />
<glyph unicode="&#xdb;" horiz-adv-x="1479" d="M1114 477q0 -121 -37.5 -217t-104 -156.5t-153.5 -92t-190 -31.5q-137 0 -246 52.5t-174.5 158t-65.5 247.5v951h172v-930q0 -167 84 -253.5t234 -86.5q158 0 239.5 85.5t81.5 254.5v930h160v-912zM846 1556l-110 170l-113 -170h-206l216 280h192l225 -280h-204z" />
<glyph unicode="&#xdc;" horiz-adv-x="1479" d="M1114 477q0 -121 -37.5 -217t-104 -156.5t-153.5 -92t-190 -31.5q-137 0 -246 52.5t-174.5 158t-65.5 247.5v951h172v-930q0 -167 84 -253.5t234 -86.5q158 0 239.5 85.5t81.5 254.5v930h160v-912zM1015 1556h-188v205h188v-205zM642 1556h-188v205h188v-205z" />
<glyph unicode="&#xdd;" horiz-adv-x="1366" d="M903 1389h184l-448 -785v-604h-172v590l-455 799h197l342 -641h6zM704 1556h-149l133 280h236z" />
<glyph unicode="&#xde;" horiz-adv-x="1366" d="M352 995v-524h379q188 0 267 70t79 196q0 90 -46 156.5t-122 87.5q-51 14 -182 14h-375zM352 0h-194v1466h194v-298h359q143 0 224 -14q108 -20 181 -70q74 -50 117 -141q44 -93 44 -200q0 -185 -119 -316q-118 -129 -430 -129h-376v-298z" />
<glyph unicode="&#xdf;" horiz-adv-x="1251" d="M333 0h-180v999q0 182 44 281q45 99 149 155t234 56q173 0 272 -87q99 -86 99 -200q0 -52 -18 -106.5t-64 -133.5q-47 -83 -58 -112q-12 -32 -12 -55q0 -32 22 -63q23 -34 121 -97q135 -87 181 -143q64 -76 64 -182q0 -139 -103 -238q-102 -99 -262 -99q-127 0 -221 67 q-96 69 -142 174l155 72q48 -89 97.5 -127t107.5 -38q77 0 130 52q54 53 54 122q0 55 -32 96q-23 28 -112 88q-166 113 -205 171q-40 56 -40 117q0 40 13 79q12 36 65 128q50 84 68 132q16 42 16 78q0 61 -55 109q-56 48 -145 48q-108 0 -175 -66q-68 -66 -68 -286v-991z " />
<glyph unicode="&#xe0;" d="M514 1012q173 0 268 -87t95 -253v-672h-166l-6 154h-5q-40 -81 -117.5 -127.5t-174.5 -46.5q-127 0 -218.5 85t-91.5 230q0 159 124.5 250.5t318.5 91.5q92 0 164 -12v28q0 228 -216 228q-116 0 -266 -58l-16 131q150 58 307 58zM705 426v86q-82 12 -138 12 q-145 0 -214.5 -57.5t-69.5 -159.5q0 -90 48.5 -143t127.5 -53q110 0 178 84.5t68 230.5zM318 1442h137q30 0 47 -31q76 -142 174 -287l-152 -6q-111 152 -206 324z" />
<glyph unicode="&#xe1;" d="M514 1012q173 0 268 -87t95 -253v-672h-166l-6 154h-5q-40 -81 -117.5 -127.5t-174.5 -46.5q-127 0 -218.5 85t-91.5 230q0 159 124.5 250.5t318.5 91.5q92 0 164 -12v28q0 228 -216 228q-116 0 -266 -58l-16 131q150 58 307 58zM705 426v86q-82 12 -138 12 q-145 0 -214.5 -57.5t-69.5 -159.5q0 -90 48.5 -143t127.5 -53q110 0 178 84.5t68 230.5zM612 1194h-149l133 280h236z" />
<glyph unicode="&#xe2;" d="M514 1012q173 0 268 -87t95 -253v-672h-166l-6 154h-5q-40 -81 -117.5 -127.5t-174.5 -46.5q-127 0 -218.5 85t-91.5 230q0 159 124.5 250.5t318.5 91.5q92 0 164 -12v28q0 228 -216 228q-116 0 -266 -58l-16 131q150 58 307 58zM705 426v86q-82 12 -138 12 q-145 0 -214.5 -57.5t-69.5 -159.5q0 -90 48.5 -143t127.5 -53q110 0 178 84.5t68 230.5zM676 1194l-110 170l-113 -170h-206l216 280h192l225 -280h-204z" />
<glyph unicode="&#xe3;" d="M514 1012q173 0 268 -87t95 -253v-672h-166l-6 154h-5q-40 -81 -117.5 -127.5t-174.5 -46.5q-127 0 -218.5 85t-91.5 230q0 159 124.5 250.5t318.5 91.5q92 0 164 -12v28q0 228 -216 228q-116 0 -266 -58l-16 131q150 58 307 58zM705 426v86q-82 12 -138 12 q-145 0 -214.5 -57.5t-69.5 -159.5q0 -90 48.5 -143t127.5 -53q110 0 178 84.5t68 230.5zM362 1219h-133q-2 104 57 166q57 62 146 62q62 0 169 -54q59 -30 94 -30q33 0 49.5 18.5t23.5 68.5h130q-3 -111 -56 -169.5t-140 -58.5q-62 0 -166 56q-68 36 -98 36q-34 0 -55 -24 q-23 -24 -21 -71z" />
<glyph unicode="&#xe4;" d="M514 1012q173 0 268 -87t95 -253v-672h-166l-6 154h-5q-40 -81 -117.5 -127.5t-174.5 -46.5q-127 0 -218.5 85t-91.5 230q0 159 124.5 250.5t318.5 91.5q92 0 164 -12v28q0 228 -216 228q-116 0 -266 -58l-16 131q150 58 307 58zM705 426v86q-82 12 -138 12 q-145 0 -214.5 -57.5t-69.5 -159.5q0 -90 48.5 -143t127.5 -53q110 0 178 84.5t68 230.5zM844 1270h-188v205h188v-205zM471 1270h-188v205h188v-205z" />
<glyph unicode="&#xe5;" d="M514 1012q173 0 268 -87t95 -253v-672h-166l-6 154h-5q-40 -81 -117.5 -127.5t-174.5 -46.5q-127 0 -218.5 85t-91.5 230q0 159 124.5 250.5t318.5 91.5q92 0 164 -12v28q0 228 -216 228q-116 0 -266 -58l-16 131q150 58 307 58zM705 426v86q-82 12 -138 12 q-145 0 -214.5 -57.5t-69.5 -159.5q0 -90 48.5 -143t127.5 -53q110 0 178 84.5t68 230.5zM459 1337q0 -48 31 -79q32 -32 75 -32q42 0 74 32t32 77q0 46 -31 77q-32 32 -75 32t-75 -32q-31 -31 -31 -75zM383 1338q0 73 53 126q55 53 127 53q75 0 127 -54q53 -53 53 -129 q0 -77 -53 -130t-126 -53q-75 0 -128 53q-53 55 -53 134z" />
<glyph unicode="&#xe6;" horiz-adv-x="1821" d="M793 533q-78 -34 -322 -73q-109 -16 -153 -51q-59 -47 -59 -123q0 -70 53 -120q52 -48 154 -48q114 0 200 57q87 58 112 142q15 53 15 216zM969 633h584q-14 154 -88 229t-200 75q-125 0 -207 -80q-80 -80 -89 -224zM1546 349l188 -24q-51 -168 -171 -258.5t-297 -90.5 q-127 0 -222.5 48t-172.5 150q-104 -102 -210.5 -150t-229.5 -48q-173 0 -268 88q-95 89 -95 216q0 87 49 161q49 76 138 115q86 38 283 64q143 19 252 49q1 17 1 41q0 126 -53 176q-52 51 -183 51q-87 0 -147 -21q-61 -21 -89 -60q-27 -36 -47 -123l-175 21q29 120 80 185 q54 70 152 108.5t228 38.5q166 0 269 -50q58 -28 99 -93q66 72 147.5 107.5t193.5 35.5q162 0 268 -79q105 -77 155 -207q49 -128 49 -254q0 -5 -2 -61h-767q1 -144 35 -209q36 -67 107 -109q73 -43 162 -43q103 0 174.5 59t98.5 166z" />
<glyph unicode="&#xe7;" horiz-adv-x="1024" d="M264 500q0 -192 90.5 -290.5t245.5 -98.5q138 0 264 57l17 -131q-134 -57 -312 -57q-140 0 -248 55t-172.5 169t-64.5 273q0 128 41 230t113.5 168.5t170.5 101.5t214 35q148 0 268 -60l-17 -131q-125 60 -266 60q-151 0 -247.5 -100t-96.5 -281zM411 -134l52 177h134 l-33 -107q81 -9 126 -50.5t45 -96.5q0 -75 -72 -132q-71 -58 -217 -58q-82 0 -144 12l11 117q57 -4 94 -4q94 0 132 26q29 20 29 49q-4 22 -11.5 33t-43 22t-102.5 12z" />
<glyph unicode="&#xe8;" d="M946 457h-690q3 -167 91.5 -256.5t240.5 -89.5q153 0 270 57l16 -131q-140 -57 -311 -57q-216 0 -347.5 127t-131.5 370q0 229 136.5 382t342.5 153q185 0 287 -129t102 -328q0 -43 -6 -98zM549 881q-120 0 -193 -77.5t-92 -211.5h518q0 127 -61.5 208t-171.5 81z M289 1442h137q30 0 47 -31q76 -142 174 -287l-152 -6q-111 152 -206 324z" />
<glyph unicode="&#xe9;" d="M946 457h-690q3 -167 91.5 -256.5t240.5 -89.5q153 0 270 57l16 -131q-140 -57 -311 -57q-216 0 -347.5 127t-131.5 370q0 229 136.5 382t342.5 153q185 0 287 -129t102 -328q0 -43 -6 -98zM549 881q-120 0 -193 -77.5t-92 -211.5h518q0 127 -61.5 208t-171.5 81z M614 1194h-149l133 280h236z" />
<glyph unicode="&#xea;" d="M946 457h-690q3 -167 91.5 -256.5t240.5 -89.5q153 0 270 57l16 -131q-140 -57 -311 -57q-216 0 -347.5 127t-131.5 370q0 229 136.5 382t342.5 153q185 0 287 -129t102 -328q0 -43 -6 -98zM549 881q-120 0 -193 -77.5t-92 -211.5h518q0 127 -61.5 208t-171.5 81z M677 1194l-110 170l-113 -170h-206l216 280h192l225 -280h-204z" />
<glyph unicode="&#xeb;" d="M946 457h-690q3 -167 91.5 -256.5t240.5 -89.5q153 0 270 57l16 -131q-140 -57 -311 -57q-216 0 -347.5 127t-131.5 370q0 229 136.5 382t342.5 153q185 0 287 -129t102 -328q0 -43 -6 -98zM549 881q-120 0 -193 -77.5t-92 -211.5h518q0 127 -61.5 208t-171.5 81z M845 1270h-188v205h188v-205zM472 1270h-188v205h188v-205z" />
<glyph unicode="&#xec;" horiz-adv-x="569" d="M378 0h-180v1062h180v-1062zM14 1442h137q30 0 47 -31q76 -142 174 -287l-152 -6q-111 152 -206 324z" />
<glyph unicode="&#xed;" horiz-adv-x="569" d="M156 0v991h172v-991h-172zM338 1194h-149l133 280h236z" />
<glyph unicode="&#xee;" horiz-adv-x="569" d="M378 0h-180v1062h180v-1062zM412 1194l-110 170l-113 -170h-206l216 280h192l225 -280h-204z" />
<glyph unicode="&#xef;" horiz-adv-x="569" d="M378 0h-180v1062h180v-1062zM570 1270h-188v205h188v-205zM197 1270h-188v205h188v-205z" />
<glyph unicode="&#xf0;" d="M870 529q0 191 -91 293t-222 102q-129 0 -215 -102q-85 -100 -85 -310q0 -194 87 -292q89 -98 219 -98q129 0 217 103q90 103 90 304zM308 1466h217q75 -56 125 -102l214 102l45 -102l-172 -83q320 -368 320 -760q0 -254 -139 -400q-140 -146 -354 -146q-255 0 -398 194 q-93 127 -93 348q0 261 129 403t323 142q59 0 102 -12t110 -47q-34 70 -63 113q-31 47 -79 100l-275 -127l-44 103l239 109q-97 90 -207 165z" />
<glyph unicode="&#xf1;" d="M328 827h4q124 185 323 185q158 0 240 -93t82 -274v-645h-172v592q0 150 -42 215t-157 65q-119 0 -198.5 -89t-79.5 -238v-545h-172v991h166zM395 1219h-133q-2 104 57 166q57 62 146 62q63 0 169 -54q58 -30 94 -30q33 0 49.5 18.5t23.5 68.5h130q-3 -111 -56 -169.5 t-140 -58.5q-62 0 -166 56q-67 36 -98 36q-34 0 -55 -24q-23 -24 -21 -71z" />
<glyph unicode="&#xf2;" d="M561 1012q146 0 255.5 -69t165.5 -185t56 -262q0 -224 -129 -370t-348 -146t-348 146t-129 370q0 146 56 262t165.5 185t255.5 69zM561 111q99 0 168 54t99 138.5t30 192.5q0 79 -17.5 147.5t-53 122t-93.5 84.5t-133 31t-133 -31t-93.5 -84.5t-53 -122t-17.5 -147.5 q0 -108 30 -192.5t99 -138.5t168 -54zM290 1442h137q30 0 47 -31q76 -142 174 -287l-152 -6q-111 152 -206 324z" />
<glyph unicode="&#xf3;" d="M561 1012q146 0 255.5 -69t165.5 -185t56 -262q0 -224 -129 -370t-348 -146t-348 146t-129 370q0 146 56 262t165.5 185t255.5 69zM561 111q99 0 168 54t99 138.5t30 192.5q0 79 -17.5 147.5t-53 122t-93.5 84.5t-133 31t-133 -31t-93.5 -84.5t-53 -122t-17.5 -147.5 q0 -108 30 -192.5t99 -138.5t168 -54zM615 1194h-149l133 280h236z" />
<glyph unicode="&#xf4;" d="M561 1012q146 0 255.5 -69t165.5 -185t56 -262q0 -224 -129 -370t-348 -146t-348 146t-129 370q0 146 56 262t165.5 185t255.5 69zM561 111q99 0 168 54t99 138.5t30 192.5q0 79 -17.5 147.5t-53 122t-93.5 84.5t-133 31t-133 -31t-93.5 -84.5t-53 -122t-17.5 -147.5 q0 -108 30 -192.5t99 -138.5t168 -54zM678 1194l-110 170l-113 -170h-206l216 280h192l225 -280h-204z" />
<glyph unicode="&#xf5;" d="M561 1012q146 0 255.5 -69t165.5 -185t56 -262q0 -224 -129 -370t-348 -146t-348 146t-129 370q0 146 56 262t165.5 185t255.5 69zM561 111q99 0 168 54t99 138.5t30 192.5q0 79 -17.5 147.5t-53 122t-93.5 84.5t-133 31t-133 -31t-93.5 -84.5t-53 -122t-17.5 -147.5 q0 -108 30 -192.5t99 -138.5t168 -54zM364 1219h-133q-2 104 57 166q57 62 146 62q62 0 169 -54q59 -30 94 -30q33 0 49.5 18.5t23.5 68.5h130q-3 -111 -56 -169.5t-140 -58.5q-62 0 -166 56q-68 36 -98 36q-34 0 -55 -24q-23 -24 -21 -71z" />
<glyph unicode="&#xf6;" d="M561 1012q146 0 255.5 -69t165.5 -185t56 -262q0 -224 -129 -370t-348 -146t-348 146t-129 370q0 146 56 262t165.5 185t255.5 69zM561 111q99 0 168 54t99 138.5t30 192.5q0 79 -17.5 147.5t-53 122t-93.5 84.5t-133 31t-133 -31t-93.5 -84.5t-53 -122t-17.5 -147.5 q0 -108 30 -192.5t99 -138.5t168 -54zM846 1270h-188v205h188v-205zM473 1270h-188v205h188v-205z" />
<glyph unicode="&#xf7;" horiz-adv-x="1124" d="M664 319h-205v205h205v-205zM1046 807v-168h-968v168h968zM664 922h-205v205h205v-205z" />
<glyph unicode="&#xf8;" horiz-adv-x="1251" d="M893 770l-449 -583q78 -63 176 -63q139 0 229 102q91 101 91 306q0 76 -12 133q-7 40 -35 105zM366 280l452 587q-91 70 -191 70q-133 0 -223 -102t-90 -304q0 -151 52 -251zM919 999l99 128l96 -70l-107 -138q64 -87 86 -156q31 -99 31 -233q0 -300 -169 -441 q-137 -113 -330 -113q-159 0 -281 80l-105 -135l-94 71l108 141q-58 67 -84 136q-40 108 -40 247q0 302 147 435q147 135 345 135q80 0 149 -20.5t149 -66.5z" />
<glyph unicode="&#xf9;" d="M795 164h-4q-125 -184 -324 -184q-159 0 -240.5 92.5t-81.5 273.5v645h172v-592q0 -150 42 -215t157 -65q119 0 199 89t80 238v545h172v-991h-166zM331 1442h137q30 0 47 -31q76 -142 174 -287l-152 -6q-111 152 -206 324z" />
<glyph unicode="&#xfa;" d="M795 164h-4q-125 -184 -324 -184q-159 0 -240.5 92.5t-81.5 273.5v645h172v-592q0 -150 42 -215t157 -65q119 0 199 89t80 238v545h172v-991h-166zM602 1194h-149l133 280h236z" />
<glyph unicode="&#xfb;" d="M795 164h-4q-125 -184 -324 -184q-159 0 -240.5 92.5t-81.5 273.5v645h172v-592q0 -150 42 -215t157 -65q119 0 199 89t80 238v545h172v-991h-166zM674 1194l-110 170l-113 -170h-206l216 280h192l225 -280h-204z" />
<glyph unicode="&#xfc;" d="M795 164h-4q-125 -184 -324 -184q-159 0 -240.5 92.5t-81.5 273.5v645h172v-592q0 -150 42 -215t157 -65q119 0 199 89t80 238v545h172v-991h-166zM842 1270h-188v205h188v-205zM469 1270h-188v205h188v-205z" />
<glyph unicode="&#xfd;" horiz-adv-x="1024" d="M414 -18l-396 1009h185l182 -495q79 -217 115 -334h6q52 160 117 334l182 495h168l-400 -1011q-72 -183 -183 -275.5t-279 -126.5l-17 135q237 49 307 236zM569 1194h-149l133 280h236z" />
<glyph unicode="&#xfe;" d="M298 525q0 -205 83 -303t201 -98q119 0 205 101q86 103 86 315q0 204 -84 304q-83 101 -199 101t-204 -108q-88 -106 -88 -312zM315 -407h-180v1873h180v-516q74 77 128 102q71 34 164 34q137 0 240 -70q105 -71 157 -198q53 -129 53 -279q0 -162 -59 -294 q-58 -130 -170 -200q-111 -69 -233 -69q-83 0 -154 33q-53 25 -126 101v-517z" />
<glyph unicode="&#xff;" horiz-adv-x="1024" d="M414 -18l-396 1009h185l182 -495q79 -217 115 -334h6q52 160 117 334l182 495h168l-400 -1011q-72 -183 -183 -275.5t-279 -126.5l-17 135q237 49 307 236zM804 1270h-188v205h188v-205zM431 1270h-188v205h188v-205z" />
<glyph unicode="&#x131;" horiz-adv-x="569" d="M378 0h-180v1062h180v-1062z" />
<glyph unicode="&#x152;" horiz-adv-x="2048" d="M720 1334q-100 0 -197 -65q-98 -66 -146 -199.5t-48 -349.5q0 -304 115 -446q116 -143 276 -143q161 0 275 142q115 142 115 472q0 305 -116 447q-115 142 -274 142zM1302 173h681v-173h-862v212q-135 -237 -400 -237q-302 0 -456 232q-136 205 -136 528q0 322 142 539 t450 217q264 0 400 -223v198h831v-173h-650v-448h599v-172h-599v-500z" />
<glyph unicode="&#x153;" horiz-adv-x="1933" d="M1080 631h587q-12 150 -92 229q-79 78 -197 78q-121 0 -204 -82q-84 -84 -94 -225zM267 533q0 -185 71 -283q92 -126 239 -126q130 0 221 106q92 107 92 305q0 197 -91 300t-222 103q-87 0 -160 -49q-71 -48 -110.5 -143.5t-39.5 -212.5zM978 175q-152 -199 -396 -199 q-225 0 -363 143q-137 143 -137 399q0 170 58 302q58 133 178 200q120 66 266 66q136 0 240 -58q104 -59 154 -145q65 95 166 149t223 54q220 0 356 -151q136 -150 134 -452h-784q3 -167 92 -263t224 -96q100 0 171 56t103 166l180 -26q-43 -166 -160.5 -255t-296.5 -89 q-133 0 -239 52t-169 147z" />
<glyph unicode="&#x178;" horiz-adv-x="1366" d="M903 1389h184l-448 -785v-604h-172v590l-455 799h197l342 -641h6zM958 1556h-188v205h188v-205zM585 1556h-188v205h188v-205z" />
<glyph unicode="&#x2c6;" horiz-adv-x="682" d="M454 1194l-110 170l-113 -170h-206l216 280h192l225 -280h-204z" />
<glyph unicode="&#x2dc;" horiz-adv-x="682" d="M140 1219h-133q-2 104 57 166q57 62 146 62q62 0 169 -54q59 -30 94 -30q33 0 49.5 18.5t23.5 68.5h130q-3 -111 -56 -169.5t-140 -58.5q-62 0 -166 56q-68 36 -98 36q-34 0 -55 -24q-23 -24 -21 -71z" />
<glyph unicode="&#x2000;" horiz-adv-x="918" />
<glyph unicode="&#x2001;" horiz-adv-x="1836" />
<glyph unicode="&#x2002;" horiz-adv-x="918" />
<glyph unicode="&#x2003;" horiz-adv-x="1836" />
<glyph unicode="&#x2004;" horiz-adv-x="612" />
<glyph unicode="&#x2005;" horiz-adv-x="459" />
<glyph unicode="&#x2006;" horiz-adv-x="306" />
<glyph unicode="&#x2007;" horiz-adv-x="306" />
<glyph unicode="&#x2008;" horiz-adv-x="229" />
<glyph unicode="&#x2009;" horiz-adv-x="367" />
<glyph unicode="&#x200a;" horiz-adv-x="102" />
<glyph unicode="&#x2010;" horiz-adv-x="760" d="M621 588v-127h-482v127h482z" />
<glyph unicode="&#x2011;" horiz-adv-x="760" d="M621 588v-127h-482v127h482z" />
<glyph unicode="&#x2012;" horiz-adv-x="760" d="M621 588v-127h-482v127h482z" />
<glyph unicode="&#x2013;" d="M1135 458h-1139v145h1139v-145z" />
<glyph unicode="&#x2014;" horiz-adv-x="2048" d="M2048 458h-2048v145h2048v-145z" />
<glyph unicode="&#x2018;" horiz-adv-x="455" d="M227 1220h94v-209h-193v165q0 133 32 194q43 81 133 121l44 -70q-56 -24 -81.5 -69.5t-28.5 -131.5z" />
<glyph unicode="&#x2019;" horiz-adv-x="455" d="M218 1272h-94v209h193v-165q0 -135 -31 -193q-44 -82 -134 -122l-44 71q54 22 80.5 69.5t29.5 130.5z" />
<glyph unicode="&#x201a;" horiz-adv-x="455" d="M218 0h-94v209h193v-165q0 -135 -31 -193q-44 -82 -134 -122l-44 71q54 22 80.5 69.5t29.5 130.5z" />
<glyph unicode="&#x201c;" horiz-adv-x="682" d="M492 1220h94v-209h-193v165q0 133 32 194q43 81 133 121l44 -70q-56 -24 -81.5 -69.5t-28.5 -131.5zM182 1220h94v-209h-193v165q0 133 32 194q43 81 133 121l44 -70q-56 -24 -81.5 -69.5t-28.5 -131.5z" />
<glyph unicode="&#x201d;" horiz-adv-x="682" d="M491 1272h-94v209h193v-165q0 -135 -31 -193q-44 -82 -134 -122l-44 71q54 22 80.5 69.5t29.5 130.5zM181 1272h-94v209h193v-165q0 -135 -31 -193q-44 -82 -134 -122l-44 71q54 22 80.5 69.5t29.5 130.5z" />
<glyph unicode="&#x201e;" horiz-adv-x="682" d="M491 0h-94v209h193v-165q0 -135 -31 -193q-44 -82 -134 -122l-44 71q54 22 80.5 69.5t29.5 130.5zM181 0h-94v209h193v-165q0 -135 -31 -193q-44 -82 -134 -122l-44 71q54 22 80.5 69.5t29.5 130.5z" />
<glyph unicode="&#x2022;" horiz-adv-x="717" d="M109 718q0 105 74 179q76 74 179 74q105 0 179 -74q75 -73 75 -179q0 -105 -75 -180q-74 -74 -179 -74t-179 74t-74 180z" />
<glyph unicode="&#x2026;" horiz-adv-x="2048" d="M1810 0h-206v205h206v-205zM1127 0h-205v205h205v-205zM444 0h-205v205h205v-205z" />
<glyph unicode="&#x202f;" horiz-adv-x="367" />
<glyph unicode="&#x2039;" horiz-adv-x="682" d="M556 984l-265 -457l265 -455h-149l-315 455l315 457h149z" />
<glyph unicode="&#x203a;" horiz-adv-x="682" d="M92 72l265 458l-265 454h149l304 -448l-304 -464h-149z" />
<glyph unicode="&#x205f;" horiz-adv-x="459" />
<glyph unicode="&#x20ac;" d="M790 1325q-168 0 -282 -81q-68 -48 -123 -136q-56 -92 -66 -173h682l-27 -134h-671q-1 -14 -1 -40q0 -82 1 -92h644l-28 -134h-595q42 -229 202 -325q116 -69 249 -69q186 0 292 98v-206q-123 -58 -276 -58q-452 0 -611 376q-34 82 -55 184h-153l28 134h105q-3 42 -3 91 q0 27 1 41h-131l28 134h116q61 325 323 468q160 88 355 88q186 0 313 -81l-40 -186q-122 101 -277 101z" />
<glyph unicode="&#x2122;" horiz-adv-x="2048" d="M1107 651h-125v815h200l206 -651l199 651h196v-815h-124v684l-210 -684h-123l-219 694v-694zM625 651h-136v694h-264v121h666v-121h-266v-694z" />
<glyph unicode="&#xe000;" horiz-adv-x="990" d="M0 990h990v-990h-990v990z" />
<glyph unicode="&#xfb01;" horiz-adv-x="1024" d="M885 0h-180v1062h180v-1062zM885 1259h-180v207h180v-207zM363 0h-180v923h-160v139h160v103q0 326 283 326q97 0 183 -23l-28 -152q-53 9 -97 9q-93 0 -127 -37t-34 -157v-69h206v-139h-206v-923z" />
<glyph unicode="&#xfb02;" horiz-adv-x="1024" d="M883 0h-180v1466h180v-1466zM363 0h-180v923h-160v139h160v103q0 326 283 326q97 0 183 -23l-28 -152q-53 9 -97 9q-93 0 -127 -37t-34 -157v-69h206v-139h-206v-923z" />
<glyph unicode="&#xfb03;" horiz-adv-x="1913" d="M1586 0v991h172v-991h-172zM1672 1137q-45 0 -76 31t-31 75q0 45 31 76t76 31q44 0 75 -31t31 -76q0 -44 -31 -75t-75 -31zM948 1055q0 211 100 325.5t283 114.5q90 0 162 -29l-16 -127q-65 25 -144 25q-102 0 -157 -74t-55 -209v-90h253v-131h-253v-860h-173v860h-161 v131h161v64zM233 1055q0 211 100 325.5t283 114.5q90 0 162 -29l-16 -127q-65 25 -144 25q-102 0 -157 -74t-55 -209v-90h253v-131h-253v-860h-173v860h-161v131h161v64z" />
<glyph unicode="&#xfb04;" horiz-adv-x="1913" d="M1758 0h-172v1475h172v-1475zM948 1055q0 211 100 325.5t283 114.5q90 0 162 -29l-16 -127q-65 25 -144 25q-102 0 -157 -74t-55 -209v-90h253v-131h-253v-860h-173v860h-161v131h161v64zM233 1055q0 211 100 325.5t283 114.5q90 0 162 -29l-16 -127q-65 25 -144 25 q-102 0 -157 -74t-55 -209v-90h253v-131h-253v-860h-173v860h-161v131h161v64z" />
<glyph horiz-adv-x="569" />
</font>
</defs>
</svg>
